<?xml version="1.0" encoding="UTF-8"?>
<svg version="1.1" xmlns="http://www.w3.org/2000/svg" width="50" height="49">
<path d="M0 0 C3.125 1.625 3.125 1.625 5.125 3.625 C4.11179687 3.68558594 3.09859375 3.74617187 2.0546875 3.80859375 C0.70311486 3.89306704 -0.64844709 3.97771157 -2 4.0625 C-2.99773438 4.12147461 -2.99773438 4.12147461 -4.015625 4.18164062 C-9.99754357 4.54766304 -9.99754357 4.54766304 -15.875 5.625 C-18.18782587 9.09423881 -18.29978586 10.54705575 -17.875 14.625 C-16.84954394 16.41881016 -16.84954394 16.41881016 -14.875 17.625 C-11.55034408 18.09515314 -11.55034408 18.09515314 -7.875 18.125 C-1.35648148 18.28796296 -1.35648148 18.28796296 1.078125 19.9921875 C2.125 21.625 2.125 21.625 1.875 24.25 C1.125 26.625 1.125 26.625 0.125 27.625 C-3.65776223 27.96009556 -7.45430111 27.94993683 -11.25 28 C-12.31734375 28.03738281 -13.3846875 28.07476562 -14.484375 28.11328125 C-17.3632565 28.14591341 -20.03743841 28.11481545 -22.875 27.625 C-25.63785727 24.79343935 -26.30536158 22.21721549 -26.3125 18.3125 C-26.08064943 12.49691477 -24.18338707 8.03831375 -20.15625 3.828125 C-14.14960532 -1.51677069 -7.62477753 -3.15838065 0 0 Z " fill="#3499C8" transform="translate(36.875,7.375)"/>
<path d="M0 0 C1.40668945 0.00966797 1.40668945 0.00966797 2.84179688 0.01953125 C4.30649414 0.04466797 4.30649414 0.04466797 5.80078125 0.0703125 C6.78884766 0.07933594 7.77691406 0.08835937 8.79492188 0.09765625 C11.2346189 0.1212282 13.67382822 0.15413228 16.11328125 0.1953125 C19.20808996 5.82819185 19.84623705 9.87743998 19.11328125 16.1953125 C17.33312386 21.6404998 13.72502025 24.97757643 9.11328125 28.1953125 C3.97961658 29.90653406 -2.05976456 30.30572847 -7.1640625 28.30078125 C-9.07421875 27.1953125 -9.07421875 27.1953125 -11.88671875 25.1953125 C-11.88671875 24.8653125 -11.88671875 24.5353125 -11.88671875 24.1953125 C-10.95605591 24.18914917 -10.95605591 24.18914917 -10.0065918 24.18286133 C-7.19483211 24.1499614 -4.3852502 24.07932602 -1.57421875 24.0078125 C-0.10952148 23.99911133 -0.10952148 23.99911133 1.38476562 23.99023438 C6.90422821 23.95831545 6.90422821 23.95831545 11.34375 21.08203125 C12.30404117 17.47972072 11.89340584 14.8122538 11.11328125 11.1953125 C9.90929687 11.07414062 8.7053125 10.95296875 7.46484375 10.828125 C5.88927359 10.65931391 4.31375533 10.49001791 2.73828125 10.3203125 C1.94421875 10.24167969 1.15015625 10.16304687 0.33203125 10.08203125 C-5.66015625 9.421875 -5.66015625 9.421875 -7.88671875 7.1953125 C-8.19921875 4.6953125 -8.19921875 4.6953125 -7.88671875 2.1953125 C-4.63281887 0.02604591 -3.75275918 -0.04548799 0 0 Z " fill="#343736" transform="translate(28.88671875,13.8046875)"/>
<path d="M0 0 C0.66 0.33 1.32 0.66 2 1 C2 2.65 2 4.3 2 6 C2.639375 6.268125 3.27875 6.53625 3.9375 6.8125 C6 8 6 8 7 11 C7.58007812 11.06058594 8.16015625 11.12117188 8.7578125 11.18359375 C13.20092863 11.66016561 17.59905423 12.21008666 22 13 C22 14.32 22 15.64 22 17 C18.37506666 17.05787784 14.75025143 17.0935542 11.125 17.125 C10.09246094 17.14175781 9.05992188 17.15851562 7.99609375 17.17578125 C7.00996094 17.18222656 6.02382813 17.18867187 5.0078125 17.1953125 C3.64100342 17.21102295 3.64100342 17.21102295 2.24658203 17.22705078 C-0 17 -0 17 -2 15 C-2.265625 12.5390625 -2.265625 12.5390625 -2.25 9.625 C-2.25515625 8.66851562 -2.2603125 7.71203125 -2.265625 6.7265625 C-1.99896864 3.98941342 -1.39742087 2.34012543 0 0 Z " fill="#029FE6" transform="translate(15,16)"/>
<path d="M0 0 C5.9836128 -0.31492699 9.6714343 0.22914584 15 3 C15.66 3.66 16.32 4.32 17 5 C14.56304285 5.22181406 12.126474 5.42791119 9.6875 5.625 C8.65206055 5.72167969 8.65206055 5.72167969 7.59570312 5.8203125 C3.7440028 6.11802847 2.31145584 6.20763723 -1 4 C-0.67 2.68 -0.34 1.36 0 0 Z " fill="#17ACE1" transform="translate(25,6)"/>
<path d="M0 0 C2.27024968 -0.08097324 4.54132075 -0.13917704 6.8125 -0.1875 C8.07707031 -0.22230469 9.34164063 -0.25710937 10.64453125 -0.29296875 C14 0 14 0 16.01171875 1.19921875 C17 3 17 3 16 8 C8.41 8 0.82 8 -7 8 C-7 7.67 -7 7.34 -7 7 C0.26 7 7.52 7 15 7 C15 5.68 15 4.36 15 3 C10.71 3 6.42 3 2 3 C2 2.34 2 1.68 2 1 C1.34 0.67 0.68 0.34 0 0 Z " fill="#1D97CE" transform="translate(22,26)"/>
<path d="M0 0 C5.94 0 11.88 0 18 0 C18 0.99 18 1.98 18 3 C14.9489365 4.01702117 12.75800939 4.16582083 9.5625 4.1875 C8.14130859 4.20876953 8.14130859 4.20876953 6.69140625 4.23046875 C3.95498356 3.99614518 2.33571877 3.39701383 0 2 C0 1.34 0 0.68 0 0 Z " fill="#2A2C2C" transform="translate(20,39)"/>
<path d="M0 0 C0.66 0.33 1.32 0.66 2 1 C2 2.65 2 4.3 2 6 C2.9590625 6.433125 2.9590625 6.433125 3.9375 6.875 C6 8 6 8 7 10 C5 9 3 8 1 7 C0.87625 7.61875 0.7525 8.2375 0.625 8.875 C0 11 0 11 -2 13 C-2.05447047 11.58376784 -2.09300508 10.16691809 -2.125 8.75 C-2.14820313 7.96109375 -2.17140625 7.1721875 -2.1953125 6.359375 C-1.9828378 3.79268059 -1.28654105 2.2083933 0 0 Z " fill="#0A9ADA" transform="translate(15,16)"/>
<path d="M0 0 C0.99 0.33 1.98 0.66 3 1 C2.67 1.66 2.34 2.32 2 3 C2.66 3.33 3.32 3.66 4 4 C3.030625 4.45375 2.06125 4.9075 1.0625 5.375 C-2.07079582 6.65786221 -2.07079582 6.65786221 -3 9 C-3.66 9 -4.32 9 -5 9 C-5.33 7.68 -5.66 6.36 -6 5 C-1.60546875 0.99609375 -1.60546875 0.99609375 0 0 Z " fill="#2089B6" transform="translate(22,7)"/>
<path d="M0 0 C5.9836128 -0.31492699 9.6714343 0.22914584 15 3 C15.66 3.66 16.32 4.32 17 5 C11.85456984 5.30267236 9.27020218 4.80934354 5 2 C2.30745009 1.29329272 2.30745009 1.29329272 0 1 C0 0.67 0 0.34 0 0 Z " fill="#2C90C3" transform="translate(25,6)"/>
<path d="M0 0 C0.33 0 0.66 0 1 0 C1.29341888 5.67276511 1.00559652 8.99067246 -2 14 C-2.66 13.01 -3.32 12.02 -4 11 C-3.525625 10.29875 -3.05125 9.5975 -2.5625 8.875 C-0.91260143 5.83918663 -0.39631536 3.40831214 0 0 Z " fill="#38363A" transform="translate(47,22)"/>
<path d="M0 0 C2.31 0 4.62 0 7 0 C6.34 0.66 5.68 1.32 5 2 C7.97 2.495 7.97 2.495 11 3 C11 3.33 11 3.66 11 4 C3.57142857 4.28571429 3.57142857 4.28571429 0 2 C0 1.34 0 0.68 0 0 Z " fill="#222528" transform="translate(20,39)"/>
<path d="M0 0 C0.99 0.33 1.98 0.66 3 1 C3.6875 3.0625 3.6875 3.0625 4 5 C2.35 5.33 0.7 5.66 -1 6 C-1.042721 4.33388095 -1.04063832 2.66617115 -1 1 C-0.67 0.67 -0.34 0.34 0 0 Z " fill="#35393A" transform="translate(22,15)"/>
<path d="M0 0 C0.66 1.32 1.32 2.64 2 4 C1.01 5.485 1.01 5.485 0 7 C-0.66 7 -1.32 7 -2 7 C-2.6875 5.1875 -2.6875 5.1875 -3 3 C-1.5625 1.25 -1.5625 1.25 0 0 Z " fill="#3587A9" transform="translate(19,9)"/>
<path d="M0 0 C2.97 0 5.94 0 9 0 C9.33 0.99 9.66 1.98 10 3 C6.7 2.34 3.4 1.68 0 1 C0 0.67 0 0.34 0 0 Z " fill="#313334" transform="translate(23,40)"/>
</svg>
