<svg width="108" height="17" viewBox="0 0 108 17" fill="none" xmlns="http://www.w3.org/2000/svg">
<path opacity="0.3" d="M107.542 3.7106C106.883 3.99662 106.185 4.18569 105.472 4.27194C106.225 3.82227 106.789 3.11487 107.059 2.28095C106.352 2.70201 105.578 2.99867 104.77 3.15804C104.23 2.57265 103.512 2.18298 102.727 2.05015C101.941 1.91732 101.134 2.04884 100.432 2.42408C99.7297 2.79933 99.1718 3.39707 98.8458 4.12357C98.5198 4.85006 98.4441 5.66421 98.6307 6.43834C97.2005 6.366 95.8016 5.99361 94.5247 5.34537C93.2479 4.69712 92.1217 3.78752 91.2193 2.67564C90.9028 3.22835 90.7365 3.85429 90.7369 4.49121C90.7358 5.0827 90.8809 5.66529 91.1595 6.18711C91.438 6.70893 91.8412 7.15379 92.3332 7.48207C91.7613 7.46651 91.2017 7.31305 90.7018 7.03476V7.07861C90.7061 7.90736 90.9965 8.70919 91.5239 9.34848C92.0513 9.98776 92.7834 10.4253 93.5962 10.587C93.2833 10.6822 92.9585 10.7324 92.6314 10.7361C92.405 10.7334 92.1792 10.7129 91.9561 10.6747C92.1875 11.3876 92.6355 12.0106 93.2375 12.457C93.8396 12.9035 94.5659 13.1512 95.3153 13.1656C94.0498 14.1613 92.4875 14.7047 90.8772 14.7093C90.5841 14.7102 90.2911 14.6926 90.0002 14.6566C91.6442 15.7181 93.5601 16.2816 95.517 16.2792C96.8675 16.2933 98.2072 16.0381 99.4579 15.5285C100.709 15.019 101.845 14.2653 102.801 13.3116C103.758 12.3579 104.514 11.2232 105.027 9.97379C105.54 8.72439 105.798 7.38535 105.788 6.03488C105.788 5.88577 105.788 5.7279 105.788 5.57002C106.476 5.05676 107.07 4.42755 107.542 3.7106Z" fill="white"/>
<path opacity="0.3" d="M62.4964 2.69088H57.0262V4.21218H62.518L62.4964 2.69088ZM61.3419 13.1565C60.9269 13.4315 60.4369 13.571 59.9393 13.5557C59.6099 13.5901 59.277 13.556 58.9614 13.4558C58.6458 13.3555 58.3543 13.1912 58.1051 12.9731C57.6444 12.4508 57.4046 11.7699 57.4362 11.0742H64.5787C64.6302 10.3497 64.5683 9.62169 64.3953 8.91632C64.2279 8.24525 63.9351 7.61192 63.5322 7.04977C63.1266 6.50448 62.6028 6.05814 62.0001 5.74426C61.3295 5.41361 60.5898 5.2472 59.8422 5.25874C59.1391 5.25359 58.442 5.38933 57.7922 5.65795C57.1972 5.90879 56.6581 6.27556 56.2062 6.73688C55.7556 7.20742 55.4067 7.76566 55.1812 8.37686C54.9392 9.03668 54.8186 9.73485 54.8252 10.4376C54.8141 11.1504 54.931 11.8593 55.1704 12.5307C55.3738 13.1388 55.6966 13.7 56.1199 14.1815C56.5578 14.6543 57.0961 15.0229 57.6951 15.2604C58.3631 15.5149 59.0736 15.6395 59.7883 15.6273C60.791 15.6585 61.7811 15.396 62.6366 14.872C63.5008 14.258 64.1229 13.361 64.3953 12.3365H62.0109C61.8832 12.6755 61.6483 12.9634 61.3419 13.1565ZM57.6412 8.71133C57.7252 8.44233 57.8646 8.19391 58.0504 7.98206C58.2362 7.77022 58.4644 7.59965 58.7201 7.48134C59.0589 7.32888 59.4277 7.2551 59.7991 7.26556C60.0673 7.24265 60.3373 7.27803 60.5906 7.36929C60.8439 7.46054 61.0744 7.60551 61.2664 7.79423C61.633 8.243 61.8683 8.78447 61.9461 9.35869H57.4686C57.486 9.13943 57.5258 8.92252 57.5872 8.71133H57.6412ZM51.9336 8.19344C52.4828 7.96477 52.9599 7.592 53.3147 7.11451C53.6407 6.60741 53.8027 6.0122 53.7786 5.40979C53.7998 4.86044 53.6926 4.31372 53.4657 3.81297C53.2751 3.37915 52.9691 3.00596 52.581 2.73404C52.1695 2.45133 51.7023 2.26003 51.2108 2.173C50.629 2.05098 50.0357 1.9931 49.4413 2.00037H43.0001V15.5733H49.5816C50.1822 15.5738 50.7804 15.4976 51.3618 15.3468C51.9129 15.2042 52.4349 14.9669 52.9047 14.6455C53.3597 14.3301 53.7302 13.9077 53.9836 13.4155C54.264 12.865 54.4013 12.2528 54.3828 11.6352C54.4032 10.87 54.1886 10.1169 53.7678 9.47737C53.3153 8.83424 52.6441 8.37785 51.8797 8.19344H51.9336ZM45.9887 4.32007H48.7832C49.0399 4.31976 49.2962 4.34141 49.5492 4.38481C49.7822 4.41934 50.0059 4.50004 50.2073 4.62217C50.4019 4.73224 50.5596 4.89742 50.6605 5.0969C50.7855 5.33612 50.845 5.60411 50.8331 5.87374C50.8532 6.10596 50.8177 6.33964 50.7295 6.55541C50.6413 6.77118 50.503 6.96284 50.326 7.11451C49.9399 7.37996 49.4779 7.51251 49.0097 7.49213H45.9887V4.32007ZM51.2108 12.3473C51.0999 12.5672 50.9323 12.7535 50.7252 12.8868C50.5098 13.0208 50.2724 13.1158 50.0239 13.1673C49.7478 13.2291 49.4653 13.2581 49.1824 13.2536H45.9456V9.53132H49.1824C49.7378 9.50699 50.2863 9.6621 50.7468 9.97368C50.9548 10.1604 51.116 10.3934 51.2172 10.654C51.3184 10.9145 51.3569 11.1952 51.3294 11.4734C51.3586 11.77 51.318 12.0693 51.2108 12.3473Z" fill="white"/>
<path opacity="0.3" d="M0 1.97475C0 1.40235 0.202709 0.930123 0.608109 0.558081C1.01351 0.186021 1.54055 0 2.18919 0C2.82627 0 3.3417 0.183154 3.73553 0.549495C4.14093 0.927273 4.34364 1.41952 4.34364 2.02626C4.34364 2.57576 4.14673 3.03366 3.7529 3.4C3.3475 3.77778 2.81468 3.96667 2.15444 3.96667H2.13707C1.5 3.96667 0.984564 3.77778 0.590735 3.4C0.196906 3.02222 0 2.54713 0 1.97475ZM0.225869 17V5.52929H4.08302V17H0.225869ZM6.22009 17H10.0772V10.595C10.0772 10.1943 10.1236 9.88518 10.2162 9.66768C10.3784 9.27845 10.6245 8.94932 10.9547 8.6803C11.2848 8.41127 11.6989 8.27677 12.1969 8.27677C13.4942 8.27677 14.1429 9.14107 14.1429 10.8697V17H18V10.4232C18 8.72895 17.5946 7.44394 16.7838 6.56818C15.973 5.69242 14.9016 5.25455 13.5695 5.25455C12.0753 5.25455 10.9112 5.8899 10.0772 7.16061V7.19495H10.0599L10.0772 7.16061V5.52929H6.22009C6.24325 5.89562 6.25484 7.03467 6.25484 8.94647C6.25484 10.8582 6.24325 13.5428 6.22009 17Z" fill="white"/>
</svg>
