<?xml version="1.0" encoding="UTF-8"?>
<svg xmlns="http://www.w3.org/2000/svg" xmlns:xlink="http://www.w3.org/1999/xlink" width="42px" height="42px" viewBox="0 0 42 42" version="1.1">
<g id="surface1">
<path style=" stroke:none;fill-rule:nonzero;fill:rgb(65.098041%,65.882355%,67.058825%);fill-opacity:1;" d="M 0 0 C 13.859375 0 27.71875 0 42 0 C 42 13.859375 42 27.71875 42 42 C 28.140625 42 14.28125 42 0 42 C 0 28.140625 0 14.28125 0 0 Z M 0 0 "/>
<path style=" stroke:none;fill-rule:nonzero;fill:rgb(56.862748%,57.254905%,58.823532%);fill-opacity:1;" d="M 31.390625 2.382812 C 31.785156 2.394531 31.785156 2.394531 32.1875 2.40625 C 32.582031 2.414062 32.582031 2.414062 32.988281 2.425781 C 33.289062 2.4375 33.289062 2.4375 33.601562 2.449219 C 33.851562 2.90625 34.101562 3.367188 34.347656 3.828125 C 34.484375 4.082031 34.625 4.339844 34.765625 4.601562 C 35.863281 7.046875 36.355469 9.273438 36.324219 11.988281 C 36.324219 12.273438 36.324219 12.5625 36.320312 12.855469 C 36.273438 15.113281 36.121094 18.621094 34.570312 20.300781 C 34.355469 22.105469 34.890625 23.417969 35.546875 25.039062 C 36.765625 28.382812 36.378906 32.15625 35.597656 35.570312 C 35.546875 35.804688 35.492188 36.039062 35.4375 36.285156 C 35.121094 37.558594 34.816406 38.625 33.921875 39.550781 C 33.03125 39.734375 32.253906 39.613281 31.339844 39.550781 C 31.339844 39.433594 31.339844 39.320312 31.339844 39.199219 C 32.457031 39.027344 32.457031 39.027344 33.601562 38.851562 C 33.761719 38.15625 33.761719 38.15625 33.921875 37.449219 C 33.71875 37.453125 33.511719 37.457031 33.296875 37.460938 C 33.03125 37.464844 32.765625 37.46875 32.488281 37.472656 C 32.222656 37.476562 31.957031 37.480469 31.683594 37.484375 C 31.015625 37.449219 31.015625 37.449219 30.691406 37.101562 C 30.679688 36.515625 30.679688 35.933594 30.691406 35.351562 C 30.496094 35.34375 30.300781 35.339844 30.097656 35.335938 C 27.910156 35.199219 26.035156 34.644531 24.230469 33.25 C 24.015625 32.785156 23.796875 32.316406 23.585938 31.851562 C 22.785156 31.011719 22.785156 31.011719 21.847656 30.210938 C 21.539062 29.933594 21.230469 29.65625 20.910156 29.375 C 20.132812 28.777344 19.664062 28.492188 18.738281 28.351562 C 18.851562 30.761719 20.09375 32.320312 21.65625 33.925781 C 22.097656 34.339844 22.542969 34.753906 22.992188 35.160156 C 23.660156 35.769531 24.273438 36.417969 24.875 37.101562 C 22.28125 36.085938 19.957031 33.984375 18.414062 31.5 C 18.414062 31.269531 18.414062 31.039062 18.414062 30.800781 C 17.777344 30.800781 17.136719 30.800781 16.476562 30.800781 C 16.636719 30.28125 16.636719 30.28125 16.800781 29.75 C 16.585938 29.75 16.375 29.75 16.152344 29.75 C 16.074219 29.539062 15.992188 29.332031 15.910156 29.117188 C 15.453125 28.25 14.972656 27.847656 14.214844 27.300781 C 14.117188 27.574219 14.015625 27.847656 13.914062 28.132812 C 13.570312 29.050781 13.570312 29.050781 13.246094 29.75 C 9.25 29.558594 6.148438 26.425781 3.554688 23.398438 C 2.75 22.347656 2.292969 21.671875 2.160156 20.300781 C 2.785156 18.757812 3.769531 17.648438 4.847656 16.449219 C 5.058594 16.566406 5.273438 16.679688 5.492188 16.800781 C 5.386719 17.03125 5.277344 17.261719 5.167969 17.5 C 5.023438 19.960938 5.261719 22.203125 6.136719 24.5 C 7.007812 25.488281 7.539062 25.820312 8.722656 26.25 C 7.949219 23.882812 7.949219 23.882812 6.703125 21.789062 C 6.136719 21 6.136719 21 5.917969 19.992188 C 6.261719 18.289062 7.132812 17.480469 8.398438 16.449219 C 11.773438 14.21875 11.773438 14.21875 13.351562 13.800781 C 13.53125 13.75 13.710938 13.699219 13.890625 13.648438 C 14 13.417969 14.105469 13.1875 14.214844 12.949219 C 12.617188 13.179688 11.015625 13.410156 9.371094 13.648438 C 10.96875 11.914062 13.550781 11.867188 15.6875 11.703125 C 17.582031 11.464844 18.46875 11.074219 19.726562 9.515625 C 20.152344 8.910156 20.578125 8.308594 21 7.699219 C 21.621094 7.0625 22.261719 6.515625 22.9375 5.949219 C 23.257812 6.125 23.257812 6.125 23.585938 6.300781 C 23.390625 6.488281 23.199219 6.675781 23 6.867188 C 22.222656 7.78125 21.792969 8.675781 21.324219 9.800781 C 23.757812 9.980469 25.503906 10.089844 27.488281 8.460938 C 28.570312 7.742188 29.765625 7.734375 31.015625 7.699219 C 32.242188 10.988281 32.742188 14.859375 31.523438 18.230469 C 30.984375 19.542969 30.363281 20.792969 29.722656 22.050781 C 28.5 24.542969 28.5 24.542969 28.109375 27.300781 C 31.394531 24.40625 33.394531 21.34375 34.382812 16.867188 C 34.570312 16.101562 34.570312 16.101562 34.890625 15.75 C 34.933594 14.949219 34.949219 14.144531 34.953125 13.34375 C 34.957031 12.90625 34.960938 12.464844 34.964844 12.011719 C 34.976562 10.800781 34.976562 10.800781 34.246094 9.800781 C 33.996094 8.933594 33.769531 8.074219 33.558594 7.195312 C 33.5 6.964844 33.441406 6.730469 33.382812 6.488281 C 33.097656 5.320312 32.953125 4.367188 32.953125 3.148438 C 31.996094 3.148438 31.035156 3.148438 30.046875 3.148438 C 30.691406 2.449219 30.691406 2.449219 31.390625 2.382812 Z M 31.390625 2.382812 "/>
<path style=" stroke:none;fill-rule:nonzero;fill:rgb(64.705884%,65.490198%,66.666669%);fill-opacity:1;" d="M 31.390625 2.382812 C 31.785156 2.394531 31.785156 2.394531 32.1875 2.40625 C 32.582031 2.414062 32.582031 2.414062 32.988281 2.425781 C 33.289062 2.4375 33.289062 2.4375 33.601562 2.449219 C 33.851562 2.90625 34.101562 3.367188 34.347656 3.828125 C 34.484375 4.082031 34.625 4.339844 34.765625 4.601562 C 35.863281 7.046875 36.355469 9.273438 36.324219 11.988281 C 36.324219 12.273438 36.324219 12.5625 36.320312 12.855469 C 36.273438 15.113281 36.121094 18.621094 34.570312 20.300781 C 34.355469 22.105469 34.890625 23.417969 35.546875 25.039062 C 36.765625 28.382812 36.378906 32.15625 35.597656 35.570312 C 35.546875 35.804688 35.492188 36.039062 35.4375 36.285156 C 35.121094 37.558594 34.816406 38.625 33.921875 39.550781 C 33.03125 39.734375 32.253906 39.613281 31.339844 39.550781 C 31.339844 39.433594 31.339844 39.320312 31.339844 39.199219 C 32.085938 39.085938 32.832031 38.96875 33.601562 38.851562 C 33.761719 38.15625 33.761719 38.15625 33.921875 37.449219 C 33.71875 37.453125 33.511719 37.457031 33.296875 37.460938 C 33.03125 37.464844 32.765625 37.46875 32.488281 37.472656 C 32.222656 37.476562 31.957031 37.480469 31.683594 37.484375 C 31.015625 37.449219 31.015625 37.449219 30.691406 37.101562 C 30.679688 36.515625 30.679688 35.933594 30.691406 35.351562 C 30.496094 35.34375 30.300781 35.339844 30.097656 35.335938 C 27.910156 35.199219 26.035156 34.644531 24.230469 33.25 C 24.015625 32.785156 23.796875 32.316406 23.585938 31.851562 C 22.785156 31.011719 22.785156 31.011719 21.847656 30.210938 C 21.539062 29.933594 21.230469 29.65625 20.910156 29.375 C 20.132812 28.777344 19.664062 28.492188 18.738281 28.351562 C 18.851562 30.761719 20.09375 32.320312 21.65625 33.925781 C 22.097656 34.339844 22.542969 34.753906 22.992188 35.160156 C 23.660156 35.769531 24.273438 36.417969 24.875 37.101562 C 22.28125 36.085938 19.957031 33.984375 18.414062 31.5 C 18.414062 31.269531 18.414062 31.039062 18.414062 30.800781 C 18.117188 30.671875 18.117188 30.671875 17.808594 30.539062 C 16.996094 30.019531 16.796875 29.652344 16.476562 28.699219 C 16.476562 28.351562 16.476562 28.007812 16.476562 27.648438 C 16.265625 27.648438 16.050781 27.648438 15.832031 27.648438 C 15.671875 26.785156 15.671875 26.785156 15.507812 25.898438 C 15.722656 25.898438 15.933594 25.898438 16.152344 25.898438 C 16.050781 25.621094 15.945312 25.339844 15.835938 25.050781 C 15.4375 23.53125 15.414062 22.175781 15.425781 20.605469 C 15.425781 20.328125 15.421875 20.046875 15.417969 19.761719 C 15.425781 17.257812 15.425781 17.257812 16.152344 16.101562 C 16.605469 16.089844 17.054688 16.082031 17.507812 16.078125 C 17.882812 16.070312 17.882812 16.070312 18.269531 16.066406 C 19.101562 16.101562 19.863281 16.265625 20.675781 16.449219 C 20.675781 16.679688 20.671875 16.90625 20.671875 17.140625 C 20.664062 18.171875 20.660156 19.203125 20.65625 20.234375 C 20.652344 20.59375 20.652344 20.953125 20.648438 21.320312 C 20.648438 21.664062 20.644531 22.007812 20.644531 22.363281 C 20.644531 22.679688 20.640625 22.996094 20.640625 23.324219 C 20.644531 24.203125 20.644531 24.203125 21 25.199219 C 23.519531 25.097656 25.554688 24.042969 27.394531 22.15625 C 27.523438 22.007812 27.652344 21.855469 27.785156 21.699219 C 27.363281 20.605469 27.363281 20.605469 26.492188 19.949219 C 26.6875 18.847656 27.023438 18.132812 27.644531 17.238281 C 27.789062 17.023438 27.9375 16.808594 28.089844 16.585938 C 28.257812 16.347656 28.257812 16.347656 28.429688 16.101562 C 29.386719 16.316406 29.847656 16.539062 30.691406 17.148438 C 30.585938 17.84375 30.480469 18.535156 30.371094 19.25 C 30.15625 19.25 29.941406 19.25 29.722656 19.25 C 29.679688 19.480469 29.636719 19.714844 29.59375 19.953125 C 29.421875 20.886719 29.25 21.816406 29.078125 22.75 C 29.023438 23.054688 28.96875 23.359375 28.914062 23.671875 C 28.71875 24.675781 28.40625 25.625 28.109375 26.601562 C 28.109375 26.832031 28.109375 27.0625 28.109375 27.300781 C 31.394531 24.40625 33.394531 21.34375 34.382812 16.867188 C 34.570312 16.101562 34.570312 16.101562 34.890625 15.75 C 34.933594 14.949219 34.949219 14.144531 34.953125 13.34375 C 34.957031 12.90625 34.960938 12.464844 34.964844 12.011719 C 34.976562 10.800781 34.976562 10.800781 34.246094 9.800781 C 33.996094 8.933594 33.769531 8.074219 33.558594 7.195312 C 33.5 6.964844 33.441406 6.730469 33.382812 6.488281 C 33.097656 5.320312 32.953125 4.367188 32.953125 3.148438 C 31.996094 3.148438 31.035156 3.148438 30.046875 3.148438 C 30.691406 2.449219 30.691406 2.449219 31.390625 2.382812 Z M 31.390625 2.382812 "/>
<path style=" stroke:none;fill-rule:nonzero;fill:rgb(54.901963%,55.29412%,56.470591%);fill-opacity:1;" d="M 16.152344 16.101562 C 16.605469 16.089844 17.054688 16.082031 17.507812 16.078125 C 17.757812 16.074219 18.007812 16.070312 18.269531 16.066406 C 19.101562 16.101562 19.863281 16.265625 20.675781 16.449219 C 20.675781 16.679688 20.671875 16.90625 20.671875 17.140625 C 20.664062 18.171875 20.660156 19.203125 20.65625 20.234375 C 20.652344 20.59375 20.652344 20.953125 20.648438 21.320312 C 20.648438 21.664062 20.644531 22.007812 20.644531 22.363281 C 20.644531 22.679688 20.640625 22.996094 20.640625 23.324219 C 20.644531 24.203125 20.644531 24.203125 21 25.199219 C 23.519531 25.097656 25.554688 24.042969 27.394531 22.15625 C 27.523438 22.007812 27.652344 21.855469 27.785156 21.699219 C 27.363281 20.605469 27.363281 20.605469 26.492188 19.949219 C 26.6875 18.847656 27.023438 18.132812 27.644531 17.238281 C 27.789062 17.023438 27.9375 16.808594 28.089844 16.585938 C 28.257812 16.347656 28.257812 16.347656 28.429688 16.101562 C 29.386719 16.316406 29.847656 16.539062 30.691406 17.148438 C 30.585938 17.84375 30.480469 18.535156 30.371094 19.25 C 30.15625 19.25 29.941406 19.25 29.722656 19.25 C 29.660156 19.597656 29.660156 19.597656 29.59375 19.953125 C 29.421875 20.886719 29.25 21.816406 29.078125 22.75 C 29.003906 23.210938 29.003906 23.210938 28.925781 23.679688 C 28.683594 24.839844 28.105469 25.664062 27.460938 26.601562 C 27.277344 26.871094 27.097656 27.140625 26.90625 27.421875 C 25.328125 29.703125 25.328125 29.703125 24.230469 30.101562 C 24.574219 31.25 24.910156 31.523438 25.882812 32.160156 C 26.285156 32.375 26.691406 32.585938 27.097656 32.789062 C 27.300781 32.898438 27.503906 33.003906 27.710938 33.117188 C 28.6875 33.628906 29.621094 34.082031 30.691406 34.300781 C 30.691406 34.53125 30.691406 34.761719 30.691406 35 C 28 34.695312 26.089844 34.078125 24.230469 31.851562 C 23.902344 31.570312 23.578125 31.285156 23.242188 30.996094 C 22.292969 30.101562 22.292969 30.101562 21.625 29.007812 C 20.949219 27.921875 20.484375 27.472656 19.382812 26.949219 C 18.507812 26.863281 18.507812 26.863281 17.769531 26.949219 C 18.597656 30.359375 20.371094 32.757812 22.820312 34.996094 C 23.546875 35.664062 24.214844 36.363281 24.875 37.101562 C 22.28125 36.085938 19.957031 33.984375 18.414062 31.5 C 18.414062 31.269531 18.414062 31.039062 18.414062 30.800781 C 18.214844 30.714844 18.015625 30.625 17.808594 30.539062 C 16.996094 30.019531 16.796875 29.652344 16.476562 28.699219 C 16.476562 28.351562 16.476562 28.007812 16.476562 27.648438 C 16.265625 27.648438 16.050781 27.648438 15.832031 27.648438 C 15.722656 27.074219 15.617188 26.496094 15.507812 25.898438 C 15.722656 25.898438 15.933594 25.898438 16.152344 25.898438 C 15.996094 25.480469 15.996094 25.480469 15.835938 25.050781 C 15.4375 23.53125 15.414062 22.175781 15.425781 20.605469 C 15.425781 20.328125 15.421875 20.046875 15.417969 19.761719 C 15.425781 17.257812 15.425781 17.257812 16.152344 16.101562 Z M 16.152344 16.101562 "/>
<path style=" stroke:none;fill-rule:nonzero;fill:rgb(79.215688%,79.607844%,80.392158%);fill-opacity:1;" d="M 31.015625 3.851562 C 31.828125 4.730469 31.878906 5.351562 32.125 6.5625 C 32.691406 9.324219 32.691406 9.324219 34.308594 11.441406 C 35.316406 12.835938 35.058594 14.402344 34.890625 16.101562 C 34.191406 20.609375 31.84375 24.257812 28.753906 27.300781 C 28.007812 27.582031 28.007812 27.582031 27.460938 27.648438 C 27.566406 27.457031 27.675781 27.261719 27.785156 27.058594 C 28.148438 26.144531 28.160156 25.488281 28.109375 24.5 C 28.320312 24.5 28.535156 24.5 28.753906 24.5 C 28.875 24.074219 28.992188 23.648438 29.117188 23.210938 C 29.539062 21.789062 30.113281 20.546875 30.753906 19.226562 C 32.34375 15.574219 31.96875 11.535156 31.015625 7.699219 C 29.421875 7.96875 28.1875 8.265625 26.894531 9.339844 C 25.183594 10.632812 23.28125 10.125 21.324219 9.800781 C 21.886719 7.675781 22.609375 6.855469 24.230469 5.601562 C 24.449219 5.429688 24.664062 5.257812 24.890625 5.078125 C 26.835938 3.71875 28.726562 3.484375 31.015625 3.851562 Z M 31.015625 3.851562 "/>
<path style=" stroke:none;fill-rule:nonzero;fill:rgb(65.490198%,66.274512%,67.450982%);fill-opacity:1;" d="M 31.015625 7.699219 C 32.257812 11.03125 32.738281 14.90625 31.488281 18.300781 C 30.960938 19.589844 30.355469 20.820312 29.722656 22.050781 C 29.617188 22.28125 29.511719 22.511719 29.398438 22.75 C 29.1875 22.632812 28.972656 22.519531 28.753906 22.398438 C 29.359375 20.039062 29.359375 20.039062 29.722656 19.25 C 29.9375 19.25 30.148438 19.25 30.371094 19.25 C 30.476562 18.558594 30.582031 17.863281 30.691406 17.148438 C 30.265625 16.917969 29.839844 16.6875 29.398438 16.449219 C 29.398438 16.21875 29.398438 15.988281 29.398438 15.75 C 29.171875 15.65625 28.945312 15.5625 28.714844 15.464844 C 27.730469 15.027344 26.792969 14.523438 25.847656 14 C 25.613281 14.289062 25.378906 14.578125 25.140625 14.875 C 24.230469 15.75 24.230469 15.75 23.382812 15.859375 C 23.128906 15.824219 22.875 15.789062 22.617188 15.75 C 22.296875 15.75 21.976562 15.75 21.644531 15.75 C 21.214844 15.644531 20.78125 15.527344 20.355469 15.398438 C 22.339844 12.445312 22.339844 12.445312 23.585938 11.199219 C 22.625 11.085938 21.664062 10.96875 20.675781 10.851562 C 20.785156 10.386719 20.890625 9.925781 21 9.449219 C 21.445312 9.519531 21.445312 9.519531 21.898438 9.589844 C 24.578125 9.984375 24.578125 9.984375 27.015625 8.96875 C 27.203125 8.808594 27.386719 8.644531 27.574219 8.480469 C 28.636719 7.621094 29.726562 7.660156 31.015625 7.699219 Z M 31.015625 7.699219 "/>
<path style=" stroke:none;fill-rule:nonzero;fill:rgb(36.470589%,36.862746%,37.64706%);fill-opacity:1;" d="M 33.601562 21.699219 C 35.546875 23.554688 36.027344 26.148438 36.3125 28.867188 C 36.398438 31.878906 35.929688 34.648438 34.890625 37.449219 C 34.574219 37.625 34.574219 37.625 34.246094 37.800781 C 34.246094 37.570312 34.246094 37.339844 34.246094 37.101562 C 33.605469 37.101562 32.964844 37.101562 32.308594 37.101562 C 32.148438 34.5 32.148438 34.5 31.984375 31.851562 C 31.878906 31.851562 31.769531 31.851562 31.660156 31.851562 C 30.917969 27.078125 30.917969 27.078125 31.015625 24.851562 C 31.214844 24.761719 31.414062 24.675781 31.621094 24.585938 C 32.4375 24.066406 32.589844 23.679688 32.953125 22.75 C 33.167969 22.402344 33.378906 22.058594 33.601562 21.699219 Z M 33.601562 21.699219 "/>
<path style=" stroke:none;fill-rule:nonzero;fill:rgb(80.784315%,81.176472%,81.960785%);fill-opacity:1;" d="M 18.738281 28 C 20.121094 28.179688 21.007812 29.113281 22.03125 30.054688 C 22.207031 30.210938 22.382812 30.371094 22.5625 30.53125 C 23.414062 31.304688 23.875 31.742188 24.230469 32.898438 C 26.035156 34.410156 28.492188 34.898438 30.691406 35.351562 C 30.851562 36.214844 30.851562 36.214844 31.015625 37.101562 C 31.976562 37.214844 32.933594 37.332031 33.921875 37.449219 C 33.761719 38.316406 33.761719 38.316406 33.601562 39.199219 C 28.421875 39.023438 24.324219 37.242188 20.65625 33.21875 C 19.753906 32.125 18.929688 31.117188 18.414062 29.75 C 18.535156 28.789062 18.535156 28.789062 18.738281 28 Z M 18.738281 28 "/>
<path style=" stroke:none;fill-rule:nonzero;fill:rgb(65.098041%,65.882355%,67.058825%);fill-opacity:1;" d="M 15.832031 16.449219 C 15.832031 19.453125 15.832031 22.457031 15.832031 25.550781 C 12.433594 25.023438 10.359375 23.726562 7.753906 21.351562 C 8.5625 19.292969 10.335938 18.109375 12.175781 17.214844 C 13.441406 16.726562 14.492188 16.449219 15.832031 16.449219 Z M 15.832031 16.449219 "/>
<path style=" stroke:none;fill-rule:nonzero;fill:rgb(65.098041%,65.882355%,67.058825%);fill-opacity:1;" d="M 20.675781 16.800781 C 23.363281 17.1875 25.375 18.429688 27.460938 20.300781 C 27.898438 21.089844 27.898438 21.089844 28.109375 21.699219 C 26.238281 23.664062 24.308594 25.398438 21.625 25.636719 C 21.316406 25.59375 21.316406 25.59375 21 25.550781 C 20.453125 24.515625 20.273438 23.773438 20.28125 22.582031 C 20.28125 22.289062 20.28125 22 20.28125 21.695312 C 20.285156 21.394531 20.289062 21.09375 20.292969 20.78125 C 20.292969 20.476562 20.292969 20.171875 20.292969 19.855469 C 20.308594 17.597656 20.308594 17.597656 20.675781 16.800781 Z M 20.675781 16.800781 "/>
<path style=" stroke:none;fill-rule:nonzero;fill:rgb(43.921569%,44.313726%,45.490196%);fill-opacity:1;" d="M 31.339844 27.300781 C 33.207031 28.710938 33.984375 30.3125 34.890625 32.550781 C 35.359375 31.386719 35.636719 30.378906 35.742188 29.117188 C 35.765625 28.839844 35.789062 28.5625 35.8125 28.277344 C 35.828125 28.070312 35.84375 27.863281 35.863281 27.648438 C 35.96875 27.648438 36.074219 27.648438 36.183594 27.648438 C 36.363281 31.171875 36.117188 34.144531 34.890625 37.449219 C 34.679688 37.566406 34.464844 37.679688 34.246094 37.800781 C 34.246094 37.570312 34.246094 37.339844 34.246094 37.101562 C 33.605469 37.101562 32.964844 37.101562 32.308594 37.101562 C 32.199219 35.367188 32.09375 33.636719 31.984375 31.851562 C 31.878906 31.851562 31.769531 31.851562 31.660156 31.851562 C 31.554688 30.347656 31.449219 28.847656 31.339844 27.300781 Z M 31.339844 27.300781 "/>
<path style=" stroke:none;fill-rule:nonzero;fill:rgb(38.82353%,39.215687%,40.000001%);fill-opacity:1;" d="M 16.152344 16.101562 C 16.605469 16.089844 17.054688 16.082031 17.507812 16.078125 C 17.757812 16.074219 18.007812 16.070312 18.269531 16.066406 C 19.0625 16.101562 19.0625 16.101562 20.675781 16.449219 C 20.464844 18.761719 20.25 21.070312 20.03125 23.449219 C 19.925781 23.449219 19.816406 23.449219 19.707031 23.449219 C 19.707031 22.410156 19.707031 21.371094 19.707031 20.300781 C 18.199219 20.941406 17.0625 21.578125 15.832031 22.75 C 15.210938 22.078125 15.453125 20.90625 15.445312 20.015625 C 15.441406 19.582031 15.4375 19.144531 15.433594 18.695312 C 15.5 17.597656 15.617188 17.015625 16.152344 16.101562 Z M 16.152344 16.101562 "/>
<path style=" stroke:none;fill-rule:nonzero;fill:rgb(49.411765%,49.803922%,50.980395%);fill-opacity:1;" d="M 31.390625 2.382812 C 31.785156 2.394531 31.785156 2.394531 32.1875 2.40625 C 32.582031 2.414062 32.582031 2.414062 32.988281 2.425781 C 33.289062 2.4375 33.289062 2.4375 33.601562 2.449219 C 33.851562 2.90625 34.101562 3.367188 34.347656 3.828125 C 34.484375 4.082031 34.625 4.339844 34.765625 4.601562 C 35.878906 7.078125 36.351562 9.304688 36.304688 12.054688 C 36.304688 12.34375 36.300781 12.632812 36.296875 12.929688 C 36.253906 14.992188 36.117188 17.042969 35.214844 18.898438 C 34.894531 19.074219 34.894531 19.074219 34.570312 19.25 C 34.558594 18.730469 34.554688 18.214844 34.550781 17.695312 C 34.546875 17.410156 34.542969 17.121094 34.539062 16.824219 C 34.570312 16.101562 34.570312 16.101562 34.890625 15.75 C 34.933594 14.949219 34.949219 14.144531 34.953125 13.34375 C 34.960938 12.683594 34.960938 12.683594 34.964844 12.011719 C 34.976562 10.800781 34.976562 10.800781 34.246094 9.800781 C 33.996094 8.933594 33.769531 8.074219 33.558594 7.195312 C 33.5 6.964844 33.441406 6.730469 33.382812 6.488281 C 33.097656 5.320312 32.953125 4.367188 32.953125 3.148438 C 31.996094 3.148438 31.035156 3.148438 30.046875 3.148438 C 30.691406 2.449219 30.691406 2.449219 31.390625 2.382812 Z M 31.390625 2.382812 "/>
<path style=" stroke:none;fill-rule:nonzero;fill:rgb(94.509804%,94.509804%,94.509804%);fill-opacity:1;" d="M 32.308594 12.601562 C 34.207031 13.605469 34.207031 13.605469 34.570312 14 C 34.910156 17.640625 33.769531 20.429688 31.984375 23.449219 C 31.238281 24.347656 31.238281 24.347656 30.691406 24.851562 C 30.480469 24.734375 30.265625 24.617188 30.046875 24.5 C 30.160156 24.164062 30.273438 23.824219 30.386719 23.476562 C 30.535156 23.03125 30.683594 22.585938 30.832031 22.136719 C 30.945312 21.804688 30.945312 21.804688 31.058594 21.464844 C 31.753906 19.367188 32.054688 17.535156 32.167969 15.3125 C 32.1875 14.921875 32.1875 14.921875 32.207031 14.523438 C 32.242188 13.882812 32.273438 13.242188 32.308594 12.601562 Z M 32.308594 12.601562 "/>
<path style=" stroke:none;fill-rule:nonzero;fill:rgb(52.156866%,52.549022%,53.725493%);fill-opacity:1;" d="M 4.199219 17.5 C 4.777344 18.75 4.726562 20.300781 4.8125 21.691406 C 4.984375 23.527344 5.425781 24.335938 6.785156 25.550781 C 7.144531 25.898438 7.144531 25.898438 7.511719 26.25 C 8.714844 27.195312 9.996094 27.945312 11.308594 28.699219 C 10.339844 29.050781 10.339844 29.050781 9.496094 28.660156 C 7.183594 27.203125 5.3125 25.640625 3.554688 23.449219 C 3.394531 23.253906 3.238281 23.058594 3.078125 22.855469 C 2.445312 21.96875 2.261719 21.402344 2.242188 20.277344 C 2.664062 19.011719 3.273438 18.375 4.199219 17.5 Z M 4.199219 17.5 "/>
<path style=" stroke:none;fill-rule:nonzero;fill:rgb(88.627452%,89.019608%,89.411765%);fill-opacity:1;" d="M 20.675781 32.199219 C 21.960938 32.445312 23.023438 33.121094 24.148438 33.796875 C 24.441406 33.96875 24.441406 33.96875 24.738281 34.144531 C 25.214844 34.429688 25.691406 34.714844 26.167969 35 C 26.167969 35.230469 26.167969 35.460938 26.167969 35.699219 C 27.234375 35.929688 28.300781 36.160156 29.398438 36.398438 C 29.292969 36.746094 29.1875 37.09375 29.078125 37.449219 C 25.675781 37.644531 25.675781 37.644531 24.230469 36.398438 C 23.992188 36.207031 23.757812 36.011719 23.511719 35.808594 C 21.527344 34.171875 21.527344 34.171875 20.675781 33.25 C 20.675781 32.902344 20.675781 32.558594 20.675781 32.199219 Z M 20.675781 32.199219 "/>
<path style=" stroke:none;fill-rule:nonzero;fill:rgb(68.235296%,69.01961%,69.803923%);fill-opacity:1;" d="M 18.980469 26.664062 C 20.804688 27.378906 21.792969 28.5 22.824219 30.191406 C 23.441406 31.046875 24.179688 31.574219 25.023438 32.152344 C 25.523438 32.550781 25.523438 32.550781 26.167969 33.601562 C 26.996094 33.902344 27.785156 34.148438 28.632812 34.367188 C 28.859375 34.425781 29.089844 34.488281 29.324219 34.554688 C 29.886719 34.707031 30.449219 34.851562 31.015625 35 C 31.121094 34.769531 31.230469 34.539062 31.339844 34.300781 C 31.5 35.859375 31.5 35.859375 31.660156 37.449219 C 31.339844 37.335938 31.023438 37.21875 30.691406 37.101562 C 30.691406 36.523438 30.691406 35.945312 30.691406 35.351562 C 30.398438 35.34375 30.398438 35.34375 30.097656 35.335938 C 27.910156 35.199219 26.035156 34.644531 24.230469 33.25 C 24.015625 32.785156 23.796875 32.316406 23.585938 31.851562 C 22.785156 31.011719 22.785156 31.011719 21.847656 30.210938 C 21.539062 29.933594 21.230469 29.65625 20.910156 29.375 C 19.90625 28.597656 19.90625 28.597656 18.738281 28.351562 C 18.523438 28.582031 18.3125 28.8125 18.09375 29.050781 C 17.769531 28.699219 17.769531 28.699219 17.75 27.804688 C 17.753906 27.523438 17.761719 27.238281 17.769531 26.949219 C 18.414062 26.601562 18.414062 26.601562 18.980469 26.664062 Z M 18.980469 26.664062 "/>
<path style=" stroke:none;fill-rule:nonzero;fill:rgb(39.607844%,40.000001%,40.784314%);fill-opacity:1;" d="M 31.339844 24.5 C 32.933594 25.980469 33.703125 27.695312 34.570312 29.75 C 34.929688 28.582031 35.058594 27.464844 35.214844 26.25 C 35.316406 25.78125 35.417969 25.3125 35.539062 24.851562 C 35.910156 26.054688 35.914062 27.015625 35.921875 28.285156 C 35.925781 28.707031 35.929688 29.125 35.9375 29.558594 C 35.863281 30.792969 35.625 31.753906 35.214844 32.898438 C 34.140625 32.125 33.984375 31.734375 33.480469 30.492188 C 32.960938 29.296875 32.703125 28.757812 31.722656 27.933594 C 31.015625 27.300781 31.015625 27.300781 30.894531 26.007812 C 31.015625 24.851562 31.015625 24.851562 31.339844 24.5 Z M 31.339844 24.5 "/>
<path style=" stroke:none;fill-rule:nonzero;fill:rgb(70.588237%,71.372551%,72.156864%);fill-opacity:1;" d="M 31.660156 16.800781 C 32.355469 18.308594 31.644531 20.457031 31.339844 22.050781 C 31.0625 22.90625 30.730469 23.679688 30.371094 24.5 C 30.371094 24.847656 30.371094 25.191406 30.371094 25.550781 C 29.875 26.113281 29.875 26.113281 29.238281 26.664062 C 29.027344 26.851562 28.820312 27.035156 28.601562 27.226562 C 28.4375 27.367188 28.277344 27.507812 28.109375 27.648438 C 27.894531 27.535156 27.679688 27.417969 27.460938 27.300781 C 27.78125 26.78125 27.78125 26.78125 28.109375 26.25 C 28.160156 25.332031 28.160156 25.332031 28.109375 24.5 C 28.320312 24.5 28.535156 24.5 28.753906 24.5 C 28.875 24.074219 28.992188 23.648438 29.117188 23.210938 C 29.792969 20.992188 30.734375 18.90625 31.660156 16.800781 Z M 31.660156 16.800781 "/>
<path style=" stroke:none;fill-rule:nonzero;fill:rgb(40.784314%,41.176471%,41.960785%);fill-opacity:1;" d="M 28.429688 16.101562 C 29.386719 16.316406 29.847656 16.539062 30.691406 17.148438 C 30.585938 17.84375 30.480469 18.535156 30.371094 19.25 C 30.15625 19.25 29.941406 19.25 29.722656 19.25 C 29.511719 19.828125 29.296875 20.40625 29.078125 21 C 27.699219 21 27.480469 20.867188 26.492188 19.949219 C 26.6875 18.847656 27.023438 18.132812 27.644531 17.238281 C 27.789062 17.023438 27.9375 16.808594 28.089844 16.585938 C 28.203125 16.425781 28.316406 16.265625 28.429688 16.101562 Z M 28.429688 16.101562 "/>
<path style=" stroke:none;fill-rule:nonzero;fill:rgb(68.235296%,69.01961%,70.19608%);fill-opacity:1;" d="M 5.816406 17.851562 C 6.136719 18.550781 6.136719 18.550781 6.039062 19.46875 C 6.167969 20.976562 6.714844 21.636719 7.589844 22.773438 C 8.476562 24.007812 8.722656 24.652344 8.722656 26.25 C 7.460938 26.046875 6.722656 25.457031 5.816406 24.5 C 4.960938 22.6875 4.964844 20.546875 5.167969 18.550781 C 5.382812 18.320312 5.59375 18.089844 5.816406 17.851562 Z M 5.816406 17.851562 "/>
<path style=" stroke:none;fill-rule:nonzero;fill:rgb(87.450981%,87.843138%,88.235295%);fill-opacity:1;" d="M 27.785156 4.550781 C 27.996094 4.664062 28.210938 4.78125 28.429688 4.898438 C 28.230469 5.90625 28.230469 5.90625 27.785156 7 C 26.289062 7.828125 24.59375 7.898438 22.9375 8.050781 C 23.992188 5.574219 25.289062 4.4375 27.785156 4.550781 Z M 27.785156 4.550781 "/>
<path style=" stroke:none;fill-rule:nonzero;fill:rgb(61.960787%,62.7451%,63.921571%);fill-opacity:1;" d="M 31.074219 2.929688 C 31.425781 2.96875 31.777344 3.007812 32.140625 3.046875 C 32.410156 3.082031 32.675781 3.117188 32.953125 3.148438 C 33.011719 3.386719 33.070312 3.625 33.132812 3.867188 C 33.75 7.605469 33.75 7.605469 35.214844 10.851562 C 35.238281 11.671875 35.242188 12.496094 35.234375 13.320312 C 35.234375 13.773438 35.230469 14.226562 35.226562 14.691406 C 35.222656 15.039062 35.21875 15.390625 35.214844 15.75 C 35.109375 15.75 35.003906 15.75 34.890625 15.75 C 34.882812 15.441406 34.875 15.132812 34.867188 14.816406 C 34.847656 14.410156 34.832031 14.003906 34.8125 13.585938 C 34.796875 13.183594 34.78125 12.78125 34.765625 12.367188 C 34.535156 11.003906 34.089844 10.496094 33.277344 9.449219 C 32.867188 8.320312 32.867188 8.320312 32.550781 7.132812 C 32.441406 6.738281 32.332031 6.34375 32.222656 5.9375 C 31.984375 4.898438 31.984375 4.898438 31.984375 3.851562 C 30.707031 3.734375 29.425781 3.617188 28.109375 3.5 C 29.285156 2.648438 29.699219 2.769531 31.074219 2.929688 Z M 31.074219 2.929688 "/>
<path style=" stroke:none;fill-rule:nonzero;fill:rgb(50.196081%,50.588238%,51.764709%);fill-opacity:1;" d="M 31.390625 2.382812 C 31.785156 2.394531 31.785156 2.394531 32.1875 2.40625 C 32.582031 2.414062 32.582031 2.414062 32.988281 2.425781 C 33.289062 2.4375 33.289062 2.4375 33.601562 2.449219 C 34.503906 4.671875 34.605469 6.710938 34.570312 9.101562 C 34.78125 9.101562 34.996094 9.101562 35.214844 9.101562 C 35.628906 10.4375 35.609375 11.707031 35.621094 13.101562 C 35.625 13.371094 35.632812 13.636719 35.640625 13.914062 C 35.652344 15.894531 35.652344 15.894531 35.046875 16.988281 C 34.8125 17.242188 34.8125 17.242188 34.570312 17.5 C 34.621094 17.261719 34.671875 17.023438 34.726562 16.78125 C 34.917969 15.59375 34.945312 14.464844 34.953125 13.257812 C 34.957031 12.828125 34.960938 12.402344 34.964844 11.960938 C 34.972656 10.796875 34.972656 10.796875 34.246094 9.800781 C 33.996094 8.933594 33.769531 8.074219 33.558594 7.195312 C 33.5 6.964844 33.441406 6.730469 33.382812 6.488281 C 33.097656 5.320312 32.953125 4.367188 32.953125 3.148438 C 31.996094 3.148438 31.035156 3.148438 30.046875 3.148438 C 30.691406 2.449219 30.691406 2.449219 31.390625 2.382812 Z M 31.390625 2.382812 "/>
<path style=" stroke:none;fill-rule:nonzero;fill:rgb(46.27451%,46.666667%,47.843137%);fill-opacity:1;" d="M 15.507812 17.5 C 15.613281 17.5 15.722656 17.5 15.832031 17.5 C 15.9375 18.308594 16.042969 19.117188 16.152344 19.949219 C 16.378906 19.84375 16.605469 19.738281 16.835938 19.632812 C 17.277344 19.433594 17.277344 19.433594 17.730469 19.226562 C 18.019531 19.09375 18.3125 18.960938 18.613281 18.820312 C 19.382812 18.550781 19.382812 18.550781 20.03125 18.898438 C 20.03125 20.402344 20.03125 21.902344 20.03125 23.449219 C 19.925781 23.449219 19.816406 23.449219 19.707031 23.449219 C 19.707031 22.410156 19.707031 21.371094 19.707031 20.300781 C 18.199219 20.941406 17.0625 21.578125 15.832031 22.75 C 15.507812 22.398438 15.507812 22.398438 15.476562 21.292969 C 15.480469 20.617188 15.480469 20.617188 15.488281 19.929688 C 15.492188 19.476562 15.492188 19.023438 15.496094 18.558594 C 15.5 18.210938 15.503906 17.859375 15.507812 17.5 Z M 15.507812 17.5 "/>
<path style=" stroke:none;fill-rule:nonzero;fill:rgb(75.686276%,76.078433%,76.862746%);fill-opacity:1;" d="M 18.738281 28 C 20.113281 28.183594 21.007812 29.101562 22.03125 30.035156 C 22.207031 30.1875 22.382812 30.339844 22.5625 30.5 C 23.304688 31.167969 23.847656 31.671875 24.1875 32.664062 C 24.207031 32.953125 24.207031 32.953125 24.230469 33.25 C 23.148438 32.707031 22.210938 32.027344 21.242188 31.28125 C 20.953125 31.058594 20.664062 30.839844 20.367188 30.609375 C 20.152344 30.441406 19.933594 30.273438 19.707031 30.101562 C 19.386719 30.621094 19.386719 30.621094 19.0625 31.148438 C 18.539062 30.25 18.402344 29.863281 18.535156 28.789062 C 18.601562 28.527344 18.667969 28.269531 18.738281 28 Z M 18.738281 28 "/>
<path style=" stroke:none;fill-rule:nonzero;fill:rgb(61.56863%,62.352943%,63.529414%);fill-opacity:1;" d="M 31.339844 29.050781 C 31.445312 29.050781 31.550781 29.050781 31.660156 29.050781 C 31.769531 29.859375 31.875 30.667969 31.984375 31.5 C 32.089844 31.5 32.199219 31.5 32.308594 31.5 C 32.371094 32.300781 32.429688 33.105469 32.488281 33.90625 C 32.523438 34.351562 32.558594 34.800781 32.589844 35.257812 C 32.628906 36.398438 32.628906 36.398438 32.308594 37.101562 C 32.613281 37.09375 32.921875 37.085938 33.238281 37.078125 C 34.246094 37.101562 34.246094 37.101562 34.890625 37.449219 C 34.285156 39.15625 34.285156 39.15625 33.921875 39.550781 C 33.058594 39.597656 32.203125 39.566406 31.339844 39.550781 C 31.339844 39.433594 31.339844 39.320312 31.339844 39.199219 C 32.457031 39.027344 32.457031 39.027344 33.601562 38.851562 C 33.707031 38.386719 33.8125 37.925781 33.921875 37.449219 C 33.175781 37.449219 32.429688 37.449219 31.660156 37.449219 C 31.632812 37.089844 31.632812 37.089844 31.601562 36.722656 C 31.574219 36.40625 31.546875 36.089844 31.519531 35.765625 C 31.492188 35.453125 31.46875 35.140625 31.441406 34.816406 C 31.359375 33.90625 31.359375 33.90625 31.015625 32.898438 C 31.042969 32.234375 31.09375 31.570312 31.15625 30.910156 C 31.191406 30.5625 31.222656 30.214844 31.257812 29.855469 C 31.285156 29.589844 31.3125 29.324219 31.339844 29.050781 Z M 31.339844 29.050781 "/>
<path style=" stroke:none;fill-rule:nonzero;fill:rgb(52.156866%,52.549022%,53.725493%);fill-opacity:1;" d="M 31.984375 30.101562 C 32.953125 31.292969 33.253906 32.449219 33.621094 33.972656 C 34.0625 35.804688 34.0625 35.804688 34.890625 37.449219 C 34.679688 37.566406 34.464844 37.679688 34.246094 37.800781 C 34.246094 37.570312 34.246094 37.339844 34.246094 37.101562 C 33.605469 37.101562 32.964844 37.101562 32.308594 37.101562 C 32.289062 36.738281 32.269531 36.375 32.25 36 C 32.222656 35.519531 32.195312 35.042969 32.167969 34.5625 C 32.152344 34.324219 32.140625 34.085938 32.128906 33.839844 C 32.058594 32.667969 31.929688 31.585938 31.660156 30.449219 C 31.769531 30.335938 31.875 30.21875 31.984375 30.101562 Z M 31.984375 30.101562 "/>
<path style=" stroke:none;fill-rule:nonzero;fill:rgb(60.392159%,61.176473%,62.352943%);fill-opacity:1;" d="M 31.660156 12.601562 C 31.769531 12.601562 31.875 12.601562 31.984375 12.601562 C 32.390625 16.335938 31.300781 18.847656 29.722656 22.050781 C 29.617188 22.28125 29.511719 22.511719 29.398438 22.75 C 29.1875 22.632812 28.972656 22.519531 28.753906 22.398438 C 29.359375 20.039062 29.359375 20.039062 29.722656 19.25 C 29.9375 19.25 30.148438 19.25 30.371094 19.25 C 30.476562 18.558594 30.582031 17.863281 30.691406 17.148438 C 30.371094 17.035156 30.050781 16.917969 29.722656 16.800781 C 30.042969 16.683594 30.363281 16.570312 30.691406 16.449219 C 30.734375 16.203125 30.777344 15.953125 30.824219 15.695312 C 30.878906 15.375 30.9375 15.054688 30.996094 14.722656 C 31.050781 14.402344 31.109375 14.082031 31.164062 13.75 C 31.339844 12.949219 31.339844 12.949219 31.660156 12.601562 Z M 31.660156 12.601562 "/>
<path style=" stroke:none;fill-rule:nonzero;fill:rgb(58.431375%,59.215689%,60.392159%);fill-opacity:1;" d="M 4.847656 16.449219 C 5.058594 16.566406 5.273438 16.679688 5.492188 16.800781 C 5.386719 17.03125 5.277344 17.261719 5.167969 17.5 C 5.023438 19.960938 5.261719 22.203125 6.136719 24.5 C 7.007812 25.488281 7.539062 25.820312 8.722656 26.25 C 8.511719 25.441406 8.296875 24.632812 8.078125 23.800781 C 8.503906 24.03125 8.929688 24.261719 9.371094 24.5 C 9.371094 25.191406 9.371094 25.886719 9.371094 26.601562 C 8.722656 26.949219 8.722656 26.949219 7.976562 26.710938 C 6.605469 25.984375 5.691406 25.171875 4.847656 23.800781 C 4.6875 22.867188 4.5625 21.960938 4.460938 21.023438 C 4.433594 20.769531 4.402344 20.519531 4.371094 20.261719 C 4.109375 17.9375 4.109375 17.9375 4.523438 16.800781 C 4.628906 16.683594 4.734375 16.570312 4.847656 16.449219 Z M 4.847656 16.449219 "/>
<path style=" stroke:none;fill-rule:nonzero;fill:rgb(55.29412%,55.686277%,57.254905%);fill-opacity:1;" d="M 21.644531 28.351562 C 21.832031 28.507812 22.019531 28.667969 22.210938 28.832031 C 22.902344 29.414062 22.902344 29.414062 23.625 29.726562 C 24.230469 30.101562 24.230469 30.101562 24.453125 30.742188 C 25.082031 31.863281 26.035156 32.253906 27.097656 32.789062 C 27.300781 32.898438 27.503906 33.003906 27.710938 33.117188 C 28.6875 33.628906 29.621094 34.082031 30.691406 34.300781 C 30.691406 34.53125 30.691406 34.761719 30.691406 35 C 28 34.695312 26.089844 34.078125 24.230469 31.851562 C 23.890625 31.554688 23.546875 31.261719 23.199219 30.976562 C 22.296875 30.105469 21.972656 29.585938 21.644531 28.351562 Z M 21.644531 28.351562 "/>
<path style=" stroke:none;fill-rule:nonzero;fill:rgb(61.176473%,61.960787%,63.137257%);fill-opacity:1;" d="M 34.246094 17.5 C 34.351562 17.5 34.460938 17.5 34.570312 17.5 C 34.894531 19.261719 34.882812 20.382812 34.246094 22.050781 C 34.03125 22.050781 33.820312 22.050781 33.601562 22.050781 C 33.164062 22.746094 32.734375 23.449219 32.308594 24.148438 C 31.988281 24.382812 31.667969 24.613281 31.339844 24.851562 C 31.238281 25.074219 31.136719 25.296875 31.035156 25.527344 C 30.625 26.394531 30.140625 26.765625 29.398438 27.300781 C 29.1875 27.183594 28.972656 27.070312 28.753906 26.949219 C 28.96875 26.707031 29.183594 26.46875 29.402344 26.21875 C 31.707031 23.5625 33.46875 21.097656 34.246094 17.5 Z M 34.246094 17.5 "/>
<path style=" stroke:none;fill-rule:nonzero;fill:rgb(69.411767%,70.19608%,70.980394%);fill-opacity:1;" d="M 12.820312 12.929688 C 13.214844 12.933594 13.214844 12.933594 13.613281 12.9375 C 13.910156 12.945312 13.910156 12.945312 14.214844 12.949219 C 14.109375 13.296875 14.003906 13.644531 13.890625 14 C 11.972656 14.171875 11.972656 14.171875 10.015625 14.351562 C 10.015625 14.582031 10.015625 14.8125 10.015625 15.050781 C 8.574219 15.570312 8.574219 15.570312 7.109375 16.101562 C 7.109375 15.753906 7.109375 15.40625 7.109375 15.050781 C 7.625 14.765625 8.144531 14.480469 8.664062 14.195312 C 8.949219 14.039062 9.238281 13.878906 9.535156 13.71875 C 10.691406 13.117188 11.554688 12.910156 12.820312 12.929688 Z M 12.820312 12.929688 "/>
<path style=" stroke:none;fill-rule:nonzero;fill:rgb(81.568629%,81.960785%,82.745099%);fill-opacity:1;" d="M 31.984375 9.800781 C 32.519531 10.378906 33.050781 10.953125 33.601562 11.550781 C 33.800781 11.730469 34 11.910156 34.207031 12.097656 C 34.386719 12.347656 34.386719 12.347656 34.570312 12.601562 C 34.46875 13.367188 34.46875 13.367188 34.246094 14 C 33.714844 13.652344 33.179688 13.308594 32.628906 12.949219 C 32.613281 13.3125 32.597656 13.675781 32.582031 14.050781 C 32.558594 14.527344 32.535156 15.007812 32.507812 15.488281 C 32.5 15.726562 32.488281 15.964844 32.480469 16.210938 C 32.40625 17.585938 32.246094 18.335938 31.660156 19.601562 C 31.769531 16.367188 31.875 13.132812 31.984375 9.800781 Z M 31.984375 9.800781 "/>
<path style=" stroke:none;fill-rule:nonzero;fill:rgb(74.117649%,74.901962%,75.686276%);fill-opacity:1;" d="M 23.261719 6.300781 C 23.476562 6.414062 23.6875 6.53125 23.90625 6.648438 C 23.695312 6.867188 23.480469 7.082031 23.261719 7.304688 C 22.542969 7.964844 22.542969 7.964844 22.617188 8.75 C 23.789062 8.75 24.960938 8.75 26.167969 8.75 C 26.277344 8.980469 26.382812 9.210938 26.492188 9.449219 C 25.285156 10.324219 24.78125 10.171875 23.363281 10.019531 C 22.980469 9.980469 22.601562 9.941406 22.207031 9.902344 C 21.914062 9.867188 21.625 9.835938 21.324219 9.800781 C 21.757812 8.257812 22.125 7.367188 23.261719 6.300781 Z M 23.261719 6.300781 "/>
<path style=" stroke:none;fill-rule:nonzero;fill:rgb(45.09804%,45.490196%,46.27451%);fill-opacity:1;" d="M 22.9375 5.949219 C 23.152344 6.066406 23.363281 6.179688 23.585938 6.300781 C 23.386719 6.507812 23.1875 6.714844 22.984375 6.925781 C 22.722656 7.203125 22.460938 7.480469 22.191406 7.765625 C 21.933594 8.039062 21.675781 8.308594 21.40625 8.589844 C 20.652344 9.417969 20.652344 9.417969 20.152344 10.402344 C 19.597656 11.402344 19.105469 11.574219 18.09375 11.898438 C 18.550781 10.277344 19.410156 9.285156 20.515625 8.136719 C 20.675781 7.964844 20.835938 7.792969 21.003906 7.613281 C 22.191406 6.355469 22.191406 6.355469 22.9375 5.949219 Z M 22.9375 5.949219 "/>
<path style=" stroke:none;fill-rule:nonzero;fill:rgb(67.058825%,67.843139%,69.01961%);fill-opacity:1;" d="M 13.890625 26.601562 C 14.273438 26.914062 14.648438 27.238281 15.023438 27.5625 C 15.234375 27.742188 15.441406 27.917969 15.660156 28.105469 C 16.152344 28.699219 16.152344 28.699219 16.152344 30.101562 C 15.300781 29.984375 14.449219 29.867188 13.570312 29.75 C 13.234375 28.773438 13.230469 28.394531 13.550781 27.386719 C 13.664062 27.128906 13.777344 26.867188 13.890625 26.601562 Z M 13.890625 26.601562 "/>
<path style=" stroke:none;fill-rule:nonzero;fill:rgb(79.607844%,80.000001%,80.784315%);fill-opacity:1;" d="M 31.015625 19.601562 C 31.230469 19.601562 31.441406 19.601562 31.660156 19.601562 C 31.535156 20.953125 31.347656 22.128906 30.832031 23.363281 C 30.304688 24.453125 30.304688 24.453125 30.371094 25.550781 C 29.925781 26.140625 29.925781 26.140625 29.398438 26.601562 C 29.1875 26.601562 28.972656 26.601562 28.753906 26.601562 C 29.375 24.199219 30.125 21.898438 31.015625 19.601562 Z M 31.015625 19.601562 "/>
<path style=" stroke:none;fill-rule:nonzero;fill:rgb(69.01961%,69.803923%,70.980394%);fill-opacity:1;" d="M 31.339844 4.199219 C 31.550781 4.199219 31.765625 4.199219 31.984375 4.199219 C 32.085938 4.558594 32.1875 4.917969 32.292969 5.285156 C 32.433594 5.761719 32.570312 6.238281 32.710938 6.714844 C 32.777344 6.953125 32.84375 7.1875 32.914062 7.429688 C 33.367188 8.960938 33.957031 9.9375 34.890625 11.199219 C 34.785156 11.546875 34.679688 11.894531 34.570312 12.25 C 34.460938 11.902344 34.355469 11.558594 34.246094 11.199219 C 34.039062 11.105469 33.835938 11.007812 33.625 10.910156 C 32.648438 10.3125 32.566406 9.628906 32.246094 8.488281 C 32.144531 8.128906 32.039062 7.769531 31.929688 7.398438 C 31.671875 6.335938 31.488281 5.289062 31.339844 4.199219 Z M 31.339844 4.199219 "/>
<path style=" stroke:none;fill-rule:nonzero;fill:rgb(68.235296%,69.01961%,70.19608%);fill-opacity:1;" d="M 23.90625 32.550781 C 24.984375 32.929688 26.042969 33.332031 27.097656 33.773438 C 28.382812 34.304688 29.675781 34.664062 31.015625 35 C 31.121094 34.769531 31.230469 34.539062 31.339844 34.300781 C 31.445312 35.339844 31.550781 36.378906 31.660156 37.449219 C 31.339844 37.335938 31.023438 37.21875 30.691406 37.101562 C 30.691406 36.523438 30.691406 35.945312 30.691406 35.351562 C 30.398438 35.34375 30.398438 35.34375 30.097656 35.335938 C 27.875 35.199219 26.109375 34.570312 24.230469 33.25 C 24.125 33.019531 24.015625 32.789062 23.90625 32.550781 Z M 23.90625 32.550781 "/>
<path style=" stroke:none;fill-rule:nonzero;fill:rgb(94.509804%,94.509804%,94.509804%);fill-opacity:1;" d="M 22.617188 34.300781 C 25.335938 35.511719 25.335938 35.511719 28.109375 36.75 C 28 36.980469 27.894531 37.210938 27.785156 37.449219 C 25.78125 37.601562 24.894531 36.929688 23.320312 35.679688 C 23.089844 35.453125 22.855469 35.230469 22.617188 35 C 22.617188 34.769531 22.617188 34.539062 22.617188 34.300781 Z M 22.617188 34.300781 "/>
<path style=" stroke:none;fill-rule:nonzero;fill:rgb(49.019608%,49.411765%,50.588238%);fill-opacity:1;" d="M 15.507812 25.898438 C 15.828125 25.898438 16.148438 25.898438 16.476562 25.898438 C 16.617188 26.289062 16.757812 26.679688 16.902344 27.082031 C 17.347656 28.410156 17.347656 28.410156 18.414062 29.050781 C 18.476562 29.96875 18.476562 29.96875 18.414062 30.800781 C 17.609375 30.449219 17.195312 30.222656 16.71875 29.421875 C 16.476562 28.699219 16.476562 28.699219 16.476562 27.648438 C 16.265625 27.648438 16.050781 27.648438 15.832031 27.648438 C 15.722656 27.074219 15.617188 26.496094 15.507812 25.898438 Z M 15.507812 25.898438 "/>
<path style=" stroke:none;fill-rule:nonzero;fill:rgb(62.7451%,63.529414%,64.705884%);fill-opacity:1;" d="M 23.949219 12.578125 C 24.253906 12.699219 24.5625 12.824219 24.875 12.949219 C 24.578125 13.015625 24.578125 13.015625 24.269531 13.082031 C 23.523438 13.253906 23.523438 13.253906 22.9375 14 C 22.832031 14.347656 22.726562 14.691406 22.617188 15.050781 C 21.644531 15.75 21.644531 15.75 20.9375 15.617188 C 20.746094 15.546875 20.554688 15.472656 20.355469 15.398438 C 20.660156 14.9375 20.972656 14.480469 21.28125 14.023438 C 21.457031 13.765625 21.628906 13.511719 21.804688 13.246094 C 22.578125 12.222656 22.75 12.1875 23.949219 12.578125 Z M 23.949219 12.578125 "/>
<path style=" stroke:none;fill-rule:nonzero;fill:rgb(54.901963%,55.686277%,56.862748%);fill-opacity:1;" d="M 33.921875 7 C 34.136719 7 34.347656 7 34.570312 7 C 34.570312 7.691406 34.570312 8.386719 34.570312 9.101562 C 34.78125 9.101562 34.996094 9.101562 35.214844 9.101562 C 35.628906 10.4375 35.609375 11.707031 35.621094 13.101562 C 35.625 13.371094 35.632812 13.636719 35.640625 13.914062 C 35.652344 15.894531 35.652344 15.894531 35.046875 16.988281 C 34.890625 17.15625 34.730469 17.324219 34.570312 17.5 C 34.621094 17.261719 34.671875 17.023438 34.726562 16.78125 C 34.917969 15.59375 34.945312 14.464844 34.953125 13.257812 C 34.957031 12.828125 34.960938 12.402344 34.964844 11.960938 C 34.972656 10.796875 34.972656 10.796875 34.246094 9.800781 C 34.070312 8.867188 34.007812 7.949219 33.921875 7 Z M 33.921875 7 "/>
<path style=" stroke:none;fill-rule:nonzero;fill:rgb(63.529414%,64.313728%,65.490198%);fill-opacity:1;" d="M 12.601562 14.351562 C 12.132812 14.636719 12.132812 14.636719 11.65625 14.925781 C 11.242188 15.179688 10.832031 15.429688 10.417969 15.683594 C 10.113281 15.871094 10.113281 15.871094 9.796875 16.0625 C 8.738281 16.714844 7.738281 17.375 6.785156 18.199219 C 7.296875 16.699219 8.214844 15.988281 9.371094 15.050781 C 9.582031 15.050781 9.796875 15.050781 10.015625 15.050781 C 10.015625 14.820312 10.015625 14.589844 10.015625 14.351562 C 11.015625 14.003906 11.597656 14.042969 12.601562 14.351562 Z M 12.601562 14.351562 "/>
<path style=" stroke:none;fill-rule:nonzero;fill:rgb(42.352942%,42.745098%,43.529412%);fill-opacity:1;" d="M 20.03125 17.5 C 20.136719 17.960938 20.242188 18.425781 20.355469 18.898438 C 20.160156 18.945312 19.964844 18.992188 19.761719 19.039062 C 19.503906 19.101562 19.246094 19.164062 18.980469 19.226562 C 18.597656 19.320312 18.597656 19.320312 18.207031 19.414062 C 17.957031 19.472656 17.707031 19.535156 17.445312 19.601562 C 17.207031 19.652344 16.96875 19.703125 16.722656 19.753906 C 16.535156 19.820312 16.347656 19.882812 16.152344 19.949219 C 16.046875 20.179688 15.941406 20.410156 15.832031 20.648438 C 15.941406 19.769531 16.082031 19.328125 16.660156 18.679688 C 17.75 18.015625 18.804688 17.789062 20.03125 17.5 Z M 20.03125 17.5 "/>
<path style=" stroke:none;fill-rule:nonzero;fill:rgb(62.7451%,63.529414%,64.705884%);fill-opacity:1;" d="M 20.03125 27.648438 C 20.859375 27.78125 21.234375 27.890625 21.792969 28.585938 C 21.9375 28.824219 22.082031 29.066406 22.230469 29.3125 C 23.175781 30.765625 24.148438 31.597656 25.523438 32.550781 C 25.203125 32.664062 24.882812 32.78125 24.554688 32.898438 C 23.027344 31.824219 21.847656 30.441406 21 28.699219 C 20.488281 28.085938 20.488281 28.085938 20.03125 27.648438 Z M 20.03125 27.648438 "/>
<path style=" stroke:none;fill-rule:nonzero;fill:rgb(45.882353%,46.27451%,47.058824%);fill-opacity:1;" d="M 28.429688 16.101562 C 28.75 16.214844 29.070312 16.332031 29.398438 16.449219 C 28.761719 17.71875 28.121094 18.992188 27.460938 20.300781 C 27.140625 20.183594 26.820312 20.070312 26.492188 19.949219 C 26.6875 18.847656 27.023438 18.132812 27.644531 17.238281 C 27.789062 17.023438 27.9375 16.808594 28.089844 16.585938 C 28.203125 16.425781 28.316406 16.265625 28.429688 16.101562 Z M 28.429688 16.101562 "/>
<path style=" stroke:none;fill-rule:nonzero;fill:rgb(87.058824%,87.450981%,87.843138%);fill-opacity:1;" d="M 32.367188 37.777344 C 32.976562 37.789062 32.976562 37.789062 33.601562 37.800781 C 33.601562 38.261719 33.601562 38.722656 33.601562 39.199219 C 31.53125 39.328125 31.53125 39.328125 30.550781 38.675781 C 30.382812 38.5 30.21875 38.328125 30.046875 38.148438 C 30.933594 37.828125 31.453125 37.761719 32.367188 37.777344 Z M 32.367188 37.777344 "/>
<path style=" stroke:none;fill-rule:nonzero;fill:rgb(57.254905%,58.039218%,59.215689%);fill-opacity:1;" d="M 31.339844 29.050781 C 31.445312 29.050781 31.550781 29.050781 31.660156 29.050781 C 31.769531 29.859375 31.875 30.667969 31.984375 31.5 C 32.089844 31.5 32.199219 31.5 32.308594 31.5 C 32.378906 32.300781 32.445312 33.105469 32.507812 33.90625 C 32.546875 34.351562 32.585938 34.800781 32.625 35.257812 C 32.625 35.636719 32.628906 36.011719 32.628906 36.398438 C 32.417969 36.632812 32.203125 36.863281 31.984375 37.101562 C 31.878906 35.828125 31.769531 34.558594 31.660156 33.25 C 31.554688 33.25 31.449219 33.25 31.339844 33.25 C 31.339844 31.863281 31.339844 30.476562 31.339844 29.050781 Z M 31.339844 29.050781 "/>
<path style=" stroke:none;fill-rule:nonzero;fill:rgb(69.411767%,70.19608%,71.372551%);fill-opacity:1;" d="M 23.261719 12.949219 C 23.902344 13.179688 24.539062 13.410156 25.199219 13.648438 C 25.09375 13.996094 24.988281 14.34375 24.875 14.699219 C 24.050781 15.117188 24.050781 15.117188 23.261719 15.398438 C 22.9375 15.050781 22.9375 15.050781 22.898438 14.175781 C 22.9375 13.300781 22.9375 13.300781 23.261719 12.949219 Z M 23.261719 12.949219 "/>
<path style=" stroke:none;fill-rule:nonzero;fill:rgb(91.37255%,91.764706%,92.156863%);fill-opacity:1;" d="M 24.230469 34.648438 C 24.46875 34.746094 24.707031 34.84375 24.953125 34.945312 C 25.265625 35.070312 25.582031 35.199219 25.90625 35.328125 C 26.21875 35.453125 26.527344 35.578125 26.847656 35.710938 C 27.699219 36.019531 28.519531 36.234375 29.398438 36.398438 C 29.292969 36.746094 29.1875 37.09375 29.078125 37.449219 C 27.949219 37.195312 26.96875 36.726562 25.925781 36.203125 C 25.609375 36.042969 25.289062 35.882812 24.960938 35.71875 C 24.722656 35.597656 24.480469 35.476562 24.230469 35.351562 C 24.230469 35.117188 24.230469 34.886719 24.230469 34.648438 Z M 24.230469 34.648438 "/>
<path style=" stroke:none;fill-rule:nonzero;fill:rgb(58.039218%,58.823532%,60.000002%);fill-opacity:1;" d="M 31.074219 2.929688 C 31.425781 2.96875 31.777344 3.007812 32.140625 3.046875 C 32.410156 3.082031 32.675781 3.117188 32.953125 3.148438 C 33.058594 3.726562 33.167969 4.304688 33.277344 4.898438 C 32.628906 4.550781 31.984375 4.199219 31.339844 3.851562 C 30.789062 3.769531 30.234375 3.707031 29.683594 3.652344 C 29.386719 3.625 29.09375 3.59375 28.792969 3.5625 C 28.566406 3.542969 28.339844 3.523438 28.109375 3.5 C 29.285156 2.648438 29.699219 2.769531 31.074219 2.929688 Z M 31.074219 2.929688 "/>
<path style=" stroke:none;fill-rule:nonzero;fill:rgb(61.960787%,62.7451%,63.921571%);fill-opacity:1;" d="M 8.078125 23.800781 C 8.503906 24.03125 8.929688 24.261719 9.371094 24.5 C 9.371094 25.191406 9.371094 25.886719 9.371094 26.601562 C 8.722656 26.949219 8.722656 26.949219 7.9375 26.710938 C 7.039062 26.210938 6.671875 25.761719 6.136719 24.851562 C 7 25.316406 7.863281 25.785156 8.722656 26.25 C 8.511719 25.441406 8.296875 24.632812 8.078125 23.800781 Z M 8.078125 23.800781 "/>
<path style=" stroke:none;fill-rule:nonzero;fill:rgb(37.64706%,38.039216%,38.82353%);fill-opacity:1;" d="M 29.722656 17.148438 C 30.042969 17.148438 30.363281 17.148438 30.691406 17.148438 C 30.585938 17.84375 30.480469 18.535156 30.371094 19.25 C 30.15625 19.25 29.941406 19.25 29.722656 19.25 C 29.511719 19.710938 29.296875 20.175781 29.078125 20.648438 C 28.628906 19.1875 29.132812 18.503906 29.722656 17.148438 Z M 29.722656 17.148438 "/>
<path style=" stroke:none;fill-rule:nonzero;fill:rgb(62.7451%,63.529414%,64.705884%);fill-opacity:1;" d="M 31.660156 12.601562 C 31.769531 12.601562 31.875 12.601562 31.984375 12.601562 C 31.984375 13.984375 31.984375 15.371094 31.984375 16.800781 C 31.664062 16.972656 31.664062 16.972656 31.339844 17.148438 C 30.964844 15.660156 31.070312 14.457031 31.339844 12.949219 C 31.445312 12.835938 31.550781 12.71875 31.660156 12.601562 Z M 31.660156 12.601562 "/>
<path style=" stroke:none;fill-rule:nonzero;fill:rgb(56.862748%,57.647061%,58.823532%);fill-opacity:1;" d="M 25.199219 37.101562 C 27.039062 37.484375 28.671875 37.988281 30.371094 38.851562 C 30.371094 38.964844 30.371094 39.082031 30.371094 39.199219 C 28.363281 39.042969 26.941406 38.53125 25.199219 37.449219 C 25.199219 37.335938 25.199219 37.21875 25.199219 37.101562 Z M 25.199219 37.101562 "/>
<path style=" stroke:none;fill-rule:nonzero;fill:rgb(44.705883%,45.490196%,46.27451%);fill-opacity:1;" d="M 33.921875 4.199219 C 34.136719 4.199219 34.347656 4.199219 34.570312 4.199219 C 34.734375 4.644531 34.894531 5.089844 35.054688 5.535156 C 35.1875 5.90625 35.1875 5.90625 35.328125 6.285156 C 35.539062 7 35.539062 7 35.539062 8.050781 C 35.324219 8.050781 35.113281 8.050781 34.890625 8.050781 C 34.730469 7.605469 34.566406 7.160156 34.40625 6.714844 C 34.316406 6.46875 34.226562 6.21875 34.136719 5.964844 C 33.921875 5.25 33.921875 5.25 33.921875 4.199219 Z M 33.921875 4.199219 "/>
<path style=" stroke:none;fill-rule:nonzero;fill:rgb(74.901962%,75.294119%,76.078433%);fill-opacity:1;" d="M 28.109375 35 C 28.960938 35.117188 29.8125 35.230469 30.691406 35.351562 C 30.800781 36.042969 30.90625 36.734375 31.015625 37.449219 C 30.695312 37.335938 30.375 37.21875 30.046875 37.101562 C 30.046875 36.753906 30.046875 36.40625 30.046875 36.050781 C 29.085938 35.875 29.085938 35.875 28.109375 35.699219 C 28.109375 35.46875 28.109375 35.238281 28.109375 35 Z M 28.109375 35 "/>
<path style=" stroke:none;fill-rule:nonzero;fill:rgb(72.549021%,73.333335%,74.117649%);fill-opacity:1;" d="M 20.675781 29.398438 C 23.71875 31.28125 23.71875 31.28125 24.171875 32.636719 C 24.191406 32.839844 24.210938 33.042969 24.230469 33.25 C 23.257812 32.859375 22.730469 32.335938 22.089844 31.476562 C 21.429688 30.445312 21.429688 30.445312 20.675781 30.101562 C 20.675781 29.867188 20.675781 29.636719 20.675781 29.398438 Z M 20.675781 29.398438 "/>
<path style=" stroke:none;fill-rule:nonzero;fill:rgb(49.019608%,49.411765%,50.588238%);fill-opacity:1;" d="M 6.785156 26.25 C 8.390625 26.867188 9.832031 27.789062 11.308594 28.699219 C 10.339844 29.050781 10.339844 29.050781 9.546875 28.648438 C 9.261719 28.457031 8.976562 28.265625 8.683594 28.066406 C 8.394531 27.875 8.109375 27.6875 7.8125 27.488281 C 7.109375 26.949219 7.109375 26.949219 6.785156 26.25 Z M 6.785156 26.25 "/>
<path style=" stroke:none;fill-rule:nonzero;fill:rgb(62.352943%,63.137257%,64.313728%);fill-opacity:1;" d="M 6.460938 15.050781 C 6.675781 15.164062 6.886719 15.28125 7.109375 15.398438 C 6.71875 15.917969 6.71875 15.917969 6.320312 16.449219 C 5.386719 17.847656 5.253906 18.945312 5.167969 20.648438 C 5.0625 20.648438 4.957031 20.648438 4.847656 20.648438 C 4.722656 17.199219 4.722656 17.199219 5.492188 15.75 C 5.8125 15.519531 6.132812 15.289062 6.460938 15.050781 Z M 6.460938 15.050781 "/>
<path style=" stroke:none;fill-rule:nonzero;fill:rgb(92.156863%,92.156863%,92.54902%);fill-opacity:1;" d="M 25.847656 4.898438 C 26.273438 5.132812 26.699219 5.363281 27.136719 5.601562 C 26.230469 6.320312 26.230469 6.320312 25.199219 7 C 24.878906 6.882812 24.558594 6.769531 24.230469 6.648438 C 24.765625 6.074219 25.296875 5.496094 25.847656 4.898438 Z M 25.847656 4.898438 "/>
<path style=" stroke:none;fill-rule:nonzero;fill:rgb(43.921569%,44.313726%,45.09804%);fill-opacity:1;" d="M 21.96875 27.648438 C 22.757812 27.914062 22.757812 27.914062 23.585938 28.351562 C 23.847656 29.09375 23.847656 29.09375 23.90625 29.75 C 22.980469 29.550781 22.660156 29.449219 21.96875 28.699219 C 21.96875 28.351562 21.96875 28.007812 21.96875 27.648438 Z M 21.96875 27.648438 "/>
<path style=" stroke:none;fill-rule:nonzero;fill:rgb(58.431375%,59.215689%,60.392159%);fill-opacity:1;" d="M 27.785156 3.851562 C 27.214844 4.203125 26.640625 4.550781 26.066406 4.898438 C 25.589844 5.191406 25.589844 5.191406 25.101562 5.492188 C 24.230469 5.949219 24.230469 5.949219 23.261719 5.949219 C 23.953125 5.136719 24.613281 4.613281 25.523438 4.113281 C 25.742188 3.988281 25.960938 3.863281 26.1875 3.734375 C 26.816406 3.5 26.816406 3.5 27.785156 3.851562 Z M 27.785156 3.851562 "/>
<path style=" stroke:none;fill-rule:nonzero;fill:rgb(80.784315%,81.176472%,81.960785%);fill-opacity:1;" d="M 19.382812 29.75 C 21.605469 31.0625 21.605469 31.0625 21.96875 31.851562 C 21.328125 31.617188 20.691406 31.386719 20.03125 31.148438 C 19.925781 31.496094 19.816406 31.84375 19.707031 32.199219 C 19.601562 31.390625 19.496094 30.582031 19.382812 29.75 Z M 19.382812 29.75 "/>
<path style=" stroke:none;fill-rule:nonzero;fill:rgb(52.549022%,53.333336%,54.509807%);fill-opacity:1;" d="M 21 16.101562 C 22.664062 16.269531 23.847656 17.214844 25.199219 18.199219 C 24.171875 18.199219 23.664062 17.992188 22.738281 17.542969 C 22.480469 17.421875 22.222656 17.300781 21.957031 17.175781 C 21.324219 16.800781 21.324219 16.800781 21 16.101562 Z M 21 16.101562 "/>
<path style=" stroke:none;fill-rule:nonzero;fill:rgb(69.411767%,70.19608%,71.372551%);fill-opacity:1;" d="M 14.539062 28.351562 C 15.164062 28.632812 15.164062 28.632812 15.832031 29.050781 C 15.9375 29.398438 16.042969 29.742188 16.152344 30.101562 C 15.621094 30.101562 15.085938 30.101562 14.539062 30.101562 C 14.355469 29.421875 14.355469 29.421875 14.214844 28.699219 C 14.320312 28.585938 14.429688 28.46875 14.539062 28.351562 Z M 14.539062 28.351562 "/>
<path style=" stroke:none;fill-rule:nonzero;fill:rgb(48.627451%,49.019608%,50.196081%);fill-opacity:1;" d="M 22.9375 5.949219 C 23.152344 6.066406 23.363281 6.179688 23.585938 6.300781 C 22.839844 7.109375 22.09375 7.917969 21.324219 8.75 C 21.214844 8.402344 21.109375 8.058594 21 7.699219 C 21.640625 7.121094 22.28125 6.546875 22.9375 5.949219 Z M 22.9375 5.949219 "/>
<path style=" stroke:none;fill-rule:nonzero;fill:rgb(49.411765%,49.803922%,50.980395%);fill-opacity:1;" d="M 31.984375 30.101562 C 32.679688 31.019531 33.082031 31.726562 33.277344 32.898438 C 32.628906 32.898438 32.628906 32.898438 32.085938 32.484375 C 31.660156 31.851562 31.660156 31.851562 31.761719 30.910156 C 31.835938 30.640625 31.910156 30.375 31.984375 30.101562 Z M 31.984375 30.101562 "/>
<path style=" stroke:none;fill-rule:nonzero;fill:rgb(59.607846%,60.392159%,61.56863%);fill-opacity:1;" d="M 21.96875 13.300781 C 22.074219 13.648438 22.183594 13.992188 22.292969 14.351562 C 21.828125 15.117188 21.828125 15.117188 21.324219 15.75 C 21.003906 15.632812 20.683594 15.519531 20.355469 15.398438 C 20.886719 14.707031 21.421875 14.015625 21.96875 13.300781 Z M 21.96875 13.300781 "/>
</g>
</svg>
