<?xml version="1.0" encoding="UTF-8"?>
<svg xmlns="http://www.w3.org/2000/svg" xmlns:xlink="http://www.w3.org/1999/xlink" width="42px" height="42px" viewBox="0 0 42 42" version="1.1">
<g id="surface1">
<path style=" stroke:none;fill-rule:nonzero;fill:rgb(0%,30.588236%,16.862746%);fill-opacity:1;" d="M 25.21875 4.164062 L 4.226562 4.164062 L 4.226562 25.167969 C 4.226562 33.039062 9.472656 38.285156 17.34375 38.285156 L 38.335938 38.285156 L 38.335938 17.28125 C 38.335938 9.410156 33.085938 4.164062 25.21875 4.164062 Z M 19.96875 33.027344 L 17.347656 33.027344 C 12.472656 33.027344 9.476562 30.078125 9.476562 25.15625 L 9.476562 9.410156 L 19.96875 9.410156 Z M 19.96875 33.027344 "/>
<path style=" stroke:none;fill-rule:nonzero;fill:rgb(0%,86.666667%,22.352941%);fill-opacity:1;" d="M 22.59375 15.972656 L 25.21875 15.972656 C 30.117188 15.972656 33.085938 18.957031 33.085938 23.84375 L 33.085938 33.027344 L 30.464844 33.027344 C 25.636719 33.027344 22.59375 29.945312 22.59375 25.15625 Z M 22.59375 15.972656 "/>
</g>
</svg>
