<?xml version="1.0" encoding="UTF-8"?>
<svg xmlns="http://www.w3.org/2000/svg" xmlns:xlink="http://www.w3.org/1999/xlink" width="42px" height="42px" viewBox="0 0 42 42" version="1.1">
<g id="surface1">
<path style=" stroke:none;fill-rule:nonzero;fill:rgb(0.784314%,0.784314%,0.784314%);fill-opacity:1;" d="M 0 0 C 13.859375 0 27.71875 0 42 0 C 42 13.859375 42 27.71875 42 42 C 28.140625 42 14.28125 42 0 42 C 0 28.140625 0 14.28125 0 0 Z M 0 0 "/>
<path style=" stroke:none;fill-rule:nonzero;fill:rgb(47.058824%,39.215687%,39.607844%);fill-opacity:1;" d="M 28 0.792969 C 30.695312 0.792969 33.390625 0.792969 36.167969 0.792969 C 36.167969 13.605469 36.167969 26.421875 36.167969 39.621094 C 33.472656 39.621094 30.777344 39.621094 28 39.621094 C 28 34.390625 28 29.164062 28 23.773438 C 24.726562 23.773438 21.453125 23.773438 18.082031 23.773438 C 18.082031 20.636719 18.082031 17.496094 18.082031 14.265625 C 21.355469 14.265625 24.628906 14.265625 28 14.265625 C 28 9.820312 28 5.371094 28 0.792969 Z M 28 0.792969 "/>
<path style=" stroke:none;fill-rule:nonzero;fill:rgb(28.235295%,23.921569%,21.960784%);fill-opacity:1;" d="M 7.582031 0.792969 C 10.277344 0.792969 12.972656 0.792969 15.75 0.792969 C 15.75 10.207031 15.75 19.621094 15.75 29.320312 C 18.445312 29.320312 21.140625 29.320312 23.917969 29.320312 C 23.917969 32.71875 23.917969 36.121094 23.917969 39.621094 C 18.527344 39.621094 13.136719 39.621094 7.582031 39.621094 C 7.582031 26.808594 7.582031 13.996094 7.582031 0.792969 Z M 7.582031 0.792969 "/>
</g>
</svg>
