<?xml version="1.0" encoding="UTF-8"?>
<svg xmlns="http://www.w3.org/2000/svg" xmlns:xlink="http://www.w3.org/1999/xlink" width="42px" height="42px" viewBox="0 0 42 42" version="1.1">
<g id="surface1">
<path style=" stroke:none;fill-rule:nonzero;fill:rgb(87.843138%,7.058824%,23.529412%);fill-opacity:1;" d="M 0 0 C 13.859375 0 27.71875 0 42 0 C 42 13.859375 42 27.71875 42 42 C 28.140625 42 14.28125 42 0 42 C 0 28.140625 0 14.28125 0 0 Z M 0 0 "/>
<path style=" stroke:none;fill-rule:nonzero;fill:rgb(0%,0%,0%);fill-opacity:1;" d="M 0 0 C 13.859375 0 27.71875 0 42 0 C 42 13.859375 42 27.71875 42 42 C 28.140625 42 14.28125 42 0 42 C 0 28.140625 0 14.28125 0 0 Z M 15.324219 3.914062 C 15.195312 4.074219 15.066406 4.234375 14.9375 4.394531 C 14.835938 4.523438 14.835938 4.523438 14.730469 4.652344 C 14.527344 4.90625 14.328125 5.15625 14.125 5.410156 C 14.03125 5.53125 13.933594 5.652344 13.835938 5.773438 C 13.660156 6 13.480469 6.222656 13.304688 6.445312 C 12.90625 6.941406 12.5 7.429688 12.09375 7.917969 C 11.574219 8.546875 11.058594 9.171875 10.5625 9.824219 C 10.097656 10.421875 9.617188 11.007812 9.136719 11.59375 C 8.84375 11.953125 8.554688 12.3125 8.261719 12.671875 C 8.144531 12.8125 8.03125 12.957031 7.914062 13.097656 C 7.855469 13.167969 7.800781 13.238281 7.742188 13.3125 C 7.222656 13.953125 7.222656 13.953125 7.046875 14.167969 C 6.933594 14.308594 6.816406 14.449219 6.703125 14.589844 C 6.402344 14.960938 6.101562 15.332031 5.796875 15.699219 C 5.734375 15.777344 5.671875 15.855469 5.609375 15.933594 C 5.433594 16.148438 5.257812 16.359375 5.085938 16.574219 C 4.988281 16.695312 4.890625 16.816406 4.792969 16.941406 C 4.691406 17.070312 4.691406 17.070312 4.589844 17.195312 C 4.359375 17.609375 4.367188 17.882812 4.367188 18.363281 C 4.367188 18.539062 4.367188 18.714844 4.367188 18.894531 C 4.367188 19.085938 4.371094 19.277344 4.371094 19.472656 C 4.371094 19.675781 4.371094 19.878906 4.371094 20.082031 C 4.371094 20.632812 4.375 21.1875 4.375 21.738281 C 4.378906 22.316406 4.378906 22.890625 4.378906 23.46875 C 4.378906 24.5625 4.382812 25.65625 4.386719 26.746094 C 4.390625 27.992188 4.394531 29.234375 4.394531 30.480469 C 4.398438 33.039062 4.40625 35.597656 4.414062 38.15625 C 4.855469 38.1875 5.296875 38.203125 5.738281 38.21875 C 5.863281 38.226562 5.984375 38.238281 6.113281 38.246094 C 6.824219 38.265625 7.230469 38.199219 7.777344 37.660156 C 8.09375 37.296875 8.394531 36.917969 8.664062 36.5 C 9.035156 35.941406 9.433594 35.433594 9.863281 34.925781 C 9.984375 34.777344 10.105469 34.625 10.230469 34.476562 C 10.542969 34.09375 10.855469 33.710938 11.167969 33.328125 C 11.945312 32.375 12.722656 31.421875 13.496094 30.46875 C 14.230469 31.132812 14.832031 31.878906 15.449219 32.675781 C 18.429688 36.8125 18.429688 36.8125 22.464844 39.039062 C 24.523438 39.09375 25.902344 37.496094 27.300781 35.996094 C 28.832031 34.328125 30.261719 32.558594 31.65625 30.753906 C 32.027344 30.953125 32.277344 31.136719 32.558594 31.480469 C 32.628906 31.570312 32.703125 31.660156 32.777344 31.75 C 32.851562 31.84375 32.929688 31.9375 33.003906 32.035156 C 33.125 32.179688 33.125 32.179688 33.246094 32.328125 C 33.761719 32.964844 34.277344 33.605469 34.785156 34.25 C 35.15625 34.714844 35.527344 35.179688 35.910156 35.636719 C 36.289062 36.089844 36.621094 36.550781 36.929688 37.0625 C 37.484375 37.832031 37.484375 37.832031 38.269531 38.222656 C 38.605469 38.234375 38.9375 38.226562 39.277344 38.207031 C 39.394531 38.203125 39.511719 38.199219 39.628906 38.195312 C 39.914062 38.1875 40.199219 38.171875 40.488281 38.15625 C 40.53125 35.484375 40.5625 32.816406 40.585938 30.144531 C 40.59375 28.902344 40.609375 27.664062 40.628906 26.421875 C 40.648438 25.339844 40.660156 24.257812 40.664062 23.175781 C 40.667969 22.605469 40.671875 22.03125 40.6875 21.460938 C 40.828125 18.699219 40.828125 18.699219 39.839844 16.289062 C 39.523438 15.9375 39.191406 15.625 38.839844 15.320312 C 38.488281 14.992188 38.203125 14.613281 37.914062 14.21875 C 37.710938 13.949219 37.496094 13.703125 37.269531 13.453125 C 36.96875 13.121094 36.6875 12.78125 36.414062 12.421875 C 35.976562 11.855469 35.527344 11.304688 35.070312 10.757812 C 34.992188 10.664062 34.910156 10.566406 34.828125 10.46875 C 34.382812 9.933594 33.9375 9.402344 33.492188 8.867188 C 33.355469 8.703125 33.355469 8.703125 33.214844 8.535156 C 33.035156 8.324219 32.859375 8.113281 32.679688 7.902344 C 32.597656 7.804688 32.519531 7.707031 32.4375 7.609375 C 32.363281 7.523438 32.292969 7.441406 32.21875 7.351562 C 32.035156 7.117188 32.035156 7.117188 31.785156 6.691406 C 31.699219 6.691406 31.617188 6.691406 31.53125 6.691406 C 31.5 6.609375 31.46875 6.527344 31.433594 6.441406 C 31.261719 6.085938 31.070312 5.863281 30.8125 5.589844 C 30.378906 5.109375 29.980469 4.613281 29.59375 4.082031 C 29.371094 3.828125 29.167969 3.710938 28.882812 3.558594 C 28.832031 3.628906 28.777344 3.695312 28.722656 3.765625 C 28.175781 4.484375 27.609375 5.175781 27.03125 5.863281 C 26.234375 6.816406 25.441406 7.777344 24.65625 8.742188 C 24.316406 9.15625 23.980469 9.570312 23.640625 9.984375 C 23.578125 10.0625 23.515625 10.140625 23.449219 10.21875 C 23.210938 10.507812 22.976562 10.796875 22.722656 11.070312 C 22.546875 11.242188 22.546875 11.242188 22.578125 11.53125 C 22.171875 11.335938 21.941406 11.117188 21.664062 10.730469 C 21.351562 10.3125 21.03125 9.921875 20.683594 9.539062 C 20.289062 9.097656 19.917969 8.636719 19.554688 8.160156 C 19.234375 7.746094 18.902344 7.34375 18.570312 6.941406 C 18.507812 6.863281 18.441406 6.785156 18.375 6.703125 C 18.246094 6.542969 18.113281 6.382812 17.980469 6.222656 C 17.664062 5.832031 17.34375 5.445312 17.027344 5.054688 C 16.917969 4.921875 16.808594 4.785156 16.695312 4.648438 C 16.394531 4.269531 16.394531 4.269531 16.121094 3.867188 C 16.046875 3.765625 15.96875 3.664062 15.890625 3.558594 C 15.59375 3.527344 15.59375 3.527344 15.324219 3.914062 Z M 15.324219 3.914062 "/>
<path style=" stroke:none;fill-rule:nonzero;fill:rgb(0.392157%,0%,0%);fill-opacity:1;" d="M 22.449219 19.503906 C 22.84375 19.699219 23.066406 19.898438 23.335938 20.273438 C 23.714844 20.777344 24.113281 21.25 24.527344 21.714844 C 24.589844 21.785156 24.652344 21.855469 24.714844 21.925781 C 24.90625 22.140625 25.097656 22.351562 25.289062 22.566406 C 26.027344 23.390625 26.761719 24.210938 27.4375 25.101562 C 27.78125 25.546875 28.164062 25.949219 28.539062 26.355469 C 28.757812 26.625 28.757812 26.625 28.757812 26.910156 C 28.574219 27.109375 28.574219 27.109375 28.320312 27.347656 C 27.730469 27.914062 27.179688 28.523438 26.632812 29.144531 C 26.480469 29.316406 26.480469 29.316406 26.324219 29.492188 C 26.109375 29.734375 25.898438 29.972656 25.683594 30.214844 C 25.359375 30.585938 25.03125 30.953125 24.703125 31.324219 C 24.492188 31.558594 24.285156 31.792969 24.078125 32.027344 C 23.980469 32.136719 23.882812 32.25 23.78125 32.363281 C 23.691406 32.464844 23.601562 32.566406 23.507812 32.671875 C 23.429688 32.761719 23.347656 32.851562 23.265625 32.945312 C 23.070312 33.164062 23.070312 33.164062 22.953125 33.457031 C 22.449219 33.378906 22.214844 33.105469 21.859375 32.703125 C 21.746094 32.574219 21.628906 32.445312 21.507812 32.3125 C 21.382812 32.167969 21.257812 32.027344 21.132812 31.882812 C 21.003906 31.738281 20.875 31.59375 20.742188 31.445312 C 20.472656 31.140625 20.203125 30.835938 19.933594 30.53125 C 19.585938 30.136719 19.238281 29.746094 18.890625 29.355469 C 18.625 29.054688 18.359375 28.753906 18.09375 28.453125 C 17.964844 28.308594 17.835938 28.164062 17.707031 28.019531 C 17.527344 27.820312 17.351562 27.617188 17.171875 27.414062 C 17.070312 27.296875 16.96875 27.183594 16.867188 27.066406 C 16.648438 26.765625 16.648438 26.765625 16.648438 26.339844 C 16.730469 26.339844 16.816406 26.339844 16.902344 26.339844 C 16.941406 26.222656 16.941406 26.222656 16.984375 26.101562 C 17.207031 25.664062 17.488281 25.371094 17.808594 25.023438 C 18.296875 24.484375 18.761719 23.929688 19.203125 23.34375 C 19.546875 22.910156 19.914062 22.507812 20.28125 22.097656 C 20.609375 21.722656 20.914062 21.328125 21.21875 20.929688 C 21.609375 20.433594 22.03125 19.96875 22.449219 19.503906 Z M 22.449219 19.503906 "/>
<path style=" stroke:none;fill-rule:nonzero;fill:rgb(0.392157%,0%,0%);fill-opacity:1;" d="M 15.765625 11.390625 C 16.4375 11.992188 17.007812 12.671875 17.585938 13.386719 C 18.136719 14.070312 18.710938 14.730469 19.296875 15.375 C 19.097656 15.9375 18.773438 16.277344 18.390625 16.691406 C 17.902344 17.226562 17.449219 17.773438 17.003906 18.355469 C 16.621094 18.851562 16.214844 19.328125 15.8125 19.808594 C 15.636719 20.019531 15.460938 20.230469 15.285156 20.441406 C 15.152344 20.597656 15.152344 20.597656 15.019531 20.757812 C 14.617188 21.238281 14.21875 21.71875 13.820312 22.203125 C 13.75 22.285156 13.679688 22.367188 13.609375 22.453125 C 13.257812 22.867188 13.257812 22.867188 12.992188 23.347656 C 12.90625 23.347656 12.824219 23.347656 12.738281 23.347656 C 12.707031 23.433594 12.671875 23.515625 12.640625 23.601562 C 12.476562 23.9375 12.304688 24.167969 12.070312 24.445312 C 11.984375 24.542969 11.902344 24.640625 11.816406 24.742188 C 11.726562 24.847656 11.640625 24.949219 11.546875 25.058594 C 11.367188 25.273438 11.183594 25.488281 11 25.707031 C 10.910156 25.8125 10.820312 25.917969 10.726562 26.03125 C 10.492188 26.308594 10.261719 26.59375 10.035156 26.878906 C 9.972656 26.957031 9.910156 27.035156 9.84375 27.117188 C 9.675781 27.332031 9.507812 27.546875 9.339844 27.757812 C 9.082031 28.046875 9.082031 28.046875 8.828125 28.046875 C 8.804688 26.992188 8.789062 25.933594 8.777344 24.875 C 8.769531 24.386719 8.765625 23.894531 8.753906 23.402344 C 8.738281 22.839844 8.734375 22.273438 8.730469 21.707031 C 8.726562 21.53125 8.71875 21.359375 8.714844 21.179688 C 8.714844 19.976562 8.714844 19.976562 9.042969 19.4375 C 9.296875 19.152344 9.558594 18.902344 9.835938 18.652344 C 9.988281 18.464844 10.140625 18.273438 10.285156 18.082031 C 10.726562 17.5 11.1875 16.945312 11.652344 16.390625 C 12.257812 15.664062 12.855469 14.933594 13.445312 14.1875 C 13.855469 13.675781 14.269531 13.175781 14.6875 12.671875 C 14.761719 12.578125 14.839844 12.484375 14.921875 12.386719 C 15.476562 11.714844 15.476562 11.714844 15.765625 11.390625 Z M 15.765625 11.390625 "/>
<path style=" stroke:none;fill-rule:nonzero;fill:rgb(0.784314%,0%,0%);fill-opacity:1;" d="M 28.882812 11.53125 C 29.25 11.71875 29.507812 11.917969 29.792969 12.242188 C 29.867188 12.324219 29.9375 12.40625 30.015625 12.492188 C 30.128906 12.625 30.128906 12.625 30.246094 12.761719 C 30.328125 12.851562 30.40625 12.941406 30.488281 13.035156 C 30.9375 13.554688 31.375 14.078125 31.792969 14.632812 C 32.359375 15.371094 32.960938 16.074219 33.554688 16.789062 C 33.8125 17.097656 34.066406 17.40625 34.324219 17.714844 C 34.492188 17.917969 34.664062 18.125 34.835938 18.332031 C 34.914062 18.425781 34.996094 18.523438 35.078125 18.625 C 35.152344 18.714844 35.226562 18.804688 35.304688 18.898438 C 35.371094 18.976562 35.4375 19.058594 35.503906 19.140625 C 35.6875 19.363281 35.6875 19.363281 35.890625 19.539062 C 36.144531 19.890625 36.117188 20.132812 36.113281 20.582031 C 36.113281 20.746094 36.113281 20.90625 36.113281 21.074219 C 36.113281 21.25 36.109375 21.425781 36.109375 21.605469 C 36.109375 21.785156 36.109375 21.964844 36.105469 22.152344 C 36.105469 22.628906 36.101562 23.105469 36.097656 23.582031 C 36.09375 24.066406 36.09375 24.554688 36.089844 25.042969 C 36.085938 25.996094 36.078125 26.949219 36.070312 27.90625 C 35.820312 27.90625 35.820312 27.90625 35.652344 27.714844 C 35.585938 27.625 35.519531 27.535156 35.449219 27.441406 C 35.066406 26.933594 34.675781 26.4375 34.273438 25.949219 C 34.214844 25.875 34.15625 25.804688 34.097656 25.730469 C 33.976562 25.582031 33.855469 25.433594 33.734375 25.285156 C 33.546875 25.054688 33.359375 24.824219 33.175781 24.59375 C 33.113281 24.515625 33.050781 24.441406 32.988281 24.363281 C 32.820312 24.152344 32.648438 23.941406 32.476562 23.730469 C 32.269531 23.476562 32.054688 23.226562 31.835938 22.984375 C 31.558594 22.667969 31.296875 22.347656 31.035156 22.015625 C 30.246094 21.019531 29.4375 20.050781 28.628906 19.078125 C 27.613281 17.851562 26.601562 16.625 25.605469 15.375 C 26.246094 14.496094 26.949219 13.695312 27.667969 12.894531 C 27.785156 12.761719 27.902344 12.632812 28.023438 12.496094 C 28.308594 12.175781 28.597656 11.851562 28.882812 11.53125 Z M 28.882812 11.53125 "/>
<path style=" stroke:none;fill-rule:nonzero;fill:rgb(78.431374%,4.705882%,10.980392%);fill-opacity:1;" d="M 39.097656 15.804688 C 39.246094 15.96875 39.394531 16.136719 39.539062 16.308594 C 39.753906 16.550781 39.753906 16.550781 40.125 16.84375 C 40.621094 17.410156 40.574219 18.03125 40.582031 18.792969 C 40.578125 18.988281 40.574219 19.179688 40.574219 19.375 C 40.570312 19.578125 40.574219 19.785156 40.574219 19.988281 C 40.574219 20.542969 40.570312 21.097656 40.5625 21.652344 C 40.558594 22.234375 40.558594 22.8125 40.558594 23.394531 C 40.554688 24.492188 40.546875 25.589844 40.539062 26.6875 C 40.53125 27.941406 40.527344 29.191406 40.523438 30.441406 C 40.515625 33.011719 40.503906 35.585938 40.488281 38.15625 C 39.652344 38.15625 38.820312 38.15625 37.964844 38.15625 C 37.964844 38.109375 37.964844 38.0625 37.964844 38.011719 C 38.714844 38.011719 39.460938 38.011719 40.234375 38.011719 C 40.242188 35.339844 40.242188 32.667969 40.238281 29.996094 C 40.234375 28.757812 40.234375 27.515625 40.238281 26.277344 C 40.242188 25.195312 40.242188 24.113281 40.238281 23.03125 C 40.234375 22.457031 40.234375 21.886719 40.238281 21.3125 C 40.242188 20.773438 40.242188 20.234375 40.234375 19.695312 C 40.234375 19.496094 40.234375 19.300781 40.238281 19.101562 C 40.265625 17.988281 40.265625 17.988281 39.875 17.007812 C 39.605469 16.699219 39.605469 16.699219 39.316406 16.449219 C 39.242188 16.378906 39.171875 16.304688 39.097656 16.230469 C 39.097656 16.089844 39.097656 15.949219 39.097656 15.804688 Z M 39.097656 15.804688 "/>
<path style=" stroke:none;fill-rule:nonzero;fill:rgb(82.352942%,5.490196%,15.686275%);fill-opacity:1;" d="M 28.882812 3.558594 C 29.363281 3.773438 29.589844 4.09375 29.890625 4.554688 C 29.820312 4.53125 29.746094 4.507812 29.671875 4.484375 C 29.355469 4.394531 29.355469 4.394531 28.882812 4.414062 C 28.640625 4.628906 28.640625 4.628906 28.425781 4.910156 C 28.289062 5.082031 28.148438 5.25 28 5.410156 C 27.917969 5.410156 27.832031 5.410156 27.746094 5.410156 C 27.734375 5.527344 27.734375 5.527344 27.722656 5.648438 C 27.574219 6.128906 27.304688 6.382812 26.984375 6.734375 C 26.921875 6.804688 26.859375 6.875 26.792969 6.945312 C 26.355469 7.425781 25.902344 7.890625 25.433594 8.335938 C 25.230469 8.539062 25.035156 8.75 24.847656 8.96875 C 24.761719 8.921875 24.679688 8.875 24.59375 8.828125 C 24.648438 8.769531 24.703125 8.710938 24.757812 8.648438 C 24.832031 8.566406 24.90625 8.484375 24.980469 8.398438 C 25.050781 8.320312 25.125 8.242188 25.199219 8.160156 C 25.433594 7.878906 25.660156 7.59375 25.886719 7.300781 C 26.457031 6.558594 27.058594 5.851562 27.660156 5.136719 C 28.089844 4.628906 28.503906 4.121094 28.882812 3.558594 Z M 28.882812 3.558594 "/>
<path style=" stroke:none;fill-rule:nonzero;fill:rgb(84.705883%,4.313726%,11.372549%);fill-opacity:1;" d="M 34.9375 18.507812 C 35.523438 18.816406 35.972656 19.164062 36.324219 19.789062 C 36.445312 20.425781 36.425781 21.046875 36.410156 21.695312 C 36.410156 21.875 36.40625 22.058594 36.40625 22.246094 C 36.402344 22.726562 36.394531 23.207031 36.386719 23.6875 C 36.375 24.175781 36.371094 24.667969 36.367188 25.160156 C 36.359375 26.125 36.34375 27.085938 36.324219 28.046875 C 36.074219 28.117188 36.074219 28.117188 35.820312 28.191406 C 35.820312 28.097656 35.820312 28 35.820312 27.90625 C 35.902344 27.90625 35.984375 27.90625 36.070312 27.90625 C 36.078125 26.867188 36.082031 25.828125 36.074219 24.789062 C 36.074219 24.308594 36.070312 23.824219 36.074219 23.34375 C 36.078125 22.789062 36.078125 22.230469 36.070312 21.675781 C 36.074219 21.503906 36.078125 21.332031 36.078125 21.15625 C 36.066406 20.261719 36.007812 19.757812 35.433594 19.113281 C 35.269531 18.957031 35.105469 18.800781 34.9375 18.652344 C 34.9375 18.605469 34.9375 18.558594 34.9375 18.507812 Z M 34.9375 18.507812 "/>
<path style=" stroke:none;fill-rule:nonzero;fill:rgb(78.823531%,3.921569%,8.627451%);fill-opacity:1;" d="M 15.261719 11.675781 C 15.34375 11.722656 15.429688 11.769531 15.511719 11.816406 C 15.449219 11.886719 15.386719 11.953125 15.324219 12.027344 C 15.238281 12.121094 15.152344 12.21875 15.0625 12.316406 C 14.980469 12.40625 14.898438 12.5 14.8125 12.59375 C 14.5625 12.890625 14.324219 13.1875 14.085938 13.496094 C 13.632812 14.082031 13.164062 14.652344 12.691406 15.214844 C 12.050781 15.984375 11.417969 16.757812 10.800781 17.550781 C 10.59375 17.796875 10.59375 17.796875 10.34375 17.9375 C 10.542969 17.421875 10.828125 17.023438 11.144531 16.585938 C 11.242188 16.453125 11.339844 16.320312 11.441406 16.179688 C 11.695312 15.847656 11.945312 15.527344 12.234375 15.234375 C 12.316406 15.234375 12.402344 15.234375 12.488281 15.234375 C 12.515625 15.15625 12.542969 15.078125 12.574219 15 C 12.789062 14.558594 13.066406 14.21875 13.371094 13.847656 C 13.425781 13.773438 13.484375 13.703125 13.542969 13.628906 C 13.6875 13.445312 13.84375 13.269531 14 13.097656 C 14.082031 13.097656 14.167969 13.097656 14.253906 13.097656 C 14.292969 12.984375 14.292969 12.984375 14.332031 12.867188 C 14.578125 12.386719 14.90625 12.058594 15.261719 11.675781 Z M 15.261719 11.675781 "/>
<path style=" stroke:none;fill-rule:nonzero;fill:rgb(82.745099%,4.313726%,9.411765%);fill-opacity:1;" d="M 33.171875 32.175781 C 33.546875 32.367188 33.808594 32.574219 34.09375 32.90625 C 34.195312 33.019531 34.195312 33.019531 34.296875 33.136719 C 34.527344 33.417969 34.746094 33.699219 34.96875 33.988281 C 35.523438 34.707031 36.105469 35.394531 36.691406 36.082031 C 36.773438 36.179688 36.855469 36.277344 36.9375 36.375 C 37.046875 36.503906 37.046875 36.503906 37.160156 36.636719 C 37.332031 36.875 37.332031 36.875 37.460938 37.300781 C 37.542969 37.300781 37.625 37.300781 37.710938 37.300781 C 37.796875 37.535156 37.878906 37.773438 37.964844 38.011719 C 37.425781 37.539062 36.992188 37.039062 36.550781 36.453125 C 36.335938 36.175781 36.113281 35.921875 35.882812 35.664062 C 35.507812 35.246094 35.160156 34.808594 34.816406 34.359375 C 34.425781 33.855469 34.023438 33.367188 33.621094 32.878906 C 33.171875 32.335938 33.171875 32.335938 33.171875 32.175781 Z M 33.171875 32.175781 "/>
<path style=" stroke:none;fill-rule:nonzero;fill:rgb(79.215688%,3.921569%,8.627451%);fill-opacity:1;" d="M 12.488281 7.402344 C 12.550781 7.613281 12.550781 7.613281 12.613281 7.832031 C 12.503906 7.960938 12.394531 8.09375 12.285156 8.226562 C 11.375 9.324219 11.375 9.324219 10.492188 10.445312 C 10.125 10.925781 9.734375 11.371094 9.332031 11.8125 C 8.996094 12.199219 8.695312 12.613281 8.394531 13.03125 C 8.199219 13.242188 8.199219 13.242188 7.820312 13.242188 C 7.875 13.175781 7.929688 13.109375 7.988281 13.042969 C 8.996094 11.839844 9.996094 10.632812 10.972656 9.398438 C 11.269531 9.027344 11.566406 8.660156 11.863281 8.289062 C 12.085938 8.003906 12.289062 7.710938 12.488281 7.402344 Z M 12.488281 7.402344 "/>
<path style=" stroke:none;fill-rule:nonzero;fill:rgb(78.823531%,3.529412%,7.058824%);fill-opacity:1;" d="M 28.503906 26.910156 C 28.585938 26.957031 28.671875 27.003906 28.757812 27.050781 C 28.699219 27.113281 28.644531 27.175781 28.585938 27.242188 C 28 27.898438 27.414062 28.558594 26.832031 29.21875 C 26.613281 29.464844 26.394531 29.707031 26.175781 29.953125 C 25.859375 30.308594 25.546875 30.660156 25.234375 31.011719 C 25.136719 31.125 25.039062 31.234375 24.9375 31.347656 C 24.847656 31.449219 24.753906 31.550781 24.660156 31.65625 C 24.582031 31.746094 24.5 31.835938 24.417969 31.929688 C 24.191406 32.191406 24.191406 32.191406 23.964844 32.601562 C 23.839844 32.554688 23.714844 32.507812 23.585938 32.460938 C 25.207031 30.628906 26.832031 28.796875 28.503906 26.910156 Z M 28.503906 26.910156 "/>
<path style=" stroke:none;fill-rule:nonzero;fill:rgb(89.019608%,4.705882%,14.117648%);fill-opacity:1;" d="M 39.097656 15.804688 C 39.308594 16.039062 39.519531 16.277344 39.730469 16.515625 C 39.894531 16.648438 39.894531 16.648438 40.0625 16.785156 C 40.527344 17.472656 40.4375 18.140625 40.421875 18.976562 C 40.421875 19.234375 40.421875 19.234375 40.417969 19.492188 C 40.414062 20.035156 40.40625 20.574219 40.398438 21.117188 C 40.398438 21.484375 40.394531 21.851562 40.390625 22.21875 C 40.382812 23.117188 40.375 24.015625 40.359375 24.914062 C 40.320312 24.914062 40.277344 24.914062 40.234375 24.914062 C 40.234375 24.824219 40.234375 24.730469 40.234375 24.636719 C 40.242188 23.675781 40.242188 22.714844 40.234375 21.753906 C 40.234375 21.394531 40.234375 21.039062 40.238281 20.679688 C 40.242188 20.164062 40.238281 19.648438 40.234375 19.132812 C 40.238281 18.972656 40.238281 18.8125 40.242188 18.648438 C 40.226562 17.785156 40.15625 17.328125 39.597656 16.714844 C 39.503906 16.632812 39.410156 16.546875 39.316406 16.460938 C 39.242188 16.382812 39.171875 16.308594 39.097656 16.230469 C 39.097656 16.089844 39.097656 15.949219 39.097656 15.804688 Z M 39.097656 15.804688 "/>
<path style=" stroke:none;fill-rule:nonzero;fill:rgb(79.215688%,3.921569%,7.843138%);fill-opacity:1;" d="M 15.890625 3.558594 C 16.066406 3.839844 16.234375 4.125 16.394531 4.414062 C 16.296875 4.390625 16.199219 4.367188 16.097656 4.34375 C 15.78125 4.261719 15.78125 4.261719 15.511719 4.269531 C 15.269531 4.546875 15.039062 4.828125 14.8125 5.117188 C 14.675781 5.285156 14.539062 5.457031 14.402344 5.625 C 14.300781 5.75 14.300781 5.75 14.199219 5.878906 C 13.769531 6.40625 13.316406 6.902344 12.863281 7.402344 C 12.78125 7.355469 12.699219 7.308594 12.613281 7.261719 C 12.695312 7.171875 12.773438 7.082031 12.859375 6.988281 C 13.609375 6.148438 14.316406 5.289062 15 4.375 C 15.117188 4.21875 15.117188 4.21875 15.238281 4.058594 C 15.308594 3.960938 15.378906 3.867188 15.453125 3.769531 C 15.640625 3.558594 15.640625 3.558594 15.890625 3.558594 Z M 15.890625 3.558594 "/>
<path style=" stroke:none;fill-rule:nonzero;fill:rgb(82.745099%,3.921569%,9.411765%);fill-opacity:1;" d="M 24.34375 21.5 C 24.789062 21.714844 25.078125 22.007812 25.421875 22.394531 C 25.527344 22.511719 25.632812 22.632812 25.742188 22.753906 C 25.90625 22.945312 25.90625 22.945312 26.078125 23.136719 C 26.1875 23.261719 26.300781 23.386719 26.417969 23.515625 C 26.523438 23.636719 26.628906 23.753906 26.738281 23.878906 C 26.832031 23.988281 26.929688 24.097656 27.03125 24.210938 C 27.242188 24.488281 27.242188 24.488281 27.242188 24.773438 C 27.328125 24.773438 27.410156 24.773438 27.496094 24.773438 C 27.539062 24.960938 27.578125 25.148438 27.621094 25.34375 C 27.0625 24.828125 26.585938 24.304688 26.121094 23.6875 C 25.714844 23.167969 25.273438 22.6875 24.835938 22.203125 C 24.667969 22.019531 24.503906 21.828125 24.34375 21.640625 C 24.34375 21.59375 24.34375 21.546875 24.34375 21.5 Z M 24.34375 21.5 "/>
<path style=" stroke:none;fill-rule:nonzero;fill:rgb(72.941178%,3.137255%,7.058824%);fill-opacity:1;" d="M 18.289062 6.691406 C 18.429688 6.847656 18.566406 7.007812 18.707031 7.164062 C 18.863281 7.34375 19.023438 7.519531 19.183594 7.695312 C 19.988281 8.59375 20.742188 9.527344 21.441406 10.535156 C 20.460938 10.058594 19.242188 8.621094 18.792969 7.523438 C 18.675781 7.210938 18.675781 7.210938 18.289062 7.117188 C 18.289062 6.976562 18.289062 6.835938 18.289062 6.691406 Z M 18.289062 6.691406 "/>
<path style=" stroke:none;fill-rule:nonzero;fill:rgb(81.568629%,4.313726%,8.627451%);fill-opacity:1;" d="M 29.171875 11.28125 C 29.242188 11.316406 29.3125 11.351562 29.386719 11.390625 C 29.347656 11.53125 29.304688 11.671875 29.261719 11.816406 C 29.09375 11.816406 28.929688 11.816406 28.757812 11.816406 C 28.464844 12.066406 28.464844 12.066406 28.183594 12.410156 C 28.078125 12.53125 27.96875 12.652344 27.859375 12.777344 C 27.695312 12.972656 27.695312 12.972656 27.527344 13.167969 C 27.414062 13.296875 27.304688 13.425781 27.1875 13.558594 C 26.910156 13.878906 26.636719 14.199219 26.359375 14.523438 C 26.359375 13.828125 26.816406 13.511719 27.230469 13.039062 C 27.292969 12.972656 27.351562 12.90625 27.410156 12.839844 C 27.589844 12.636719 27.765625 12.429688 27.941406 12.226562 C 28.054688 12.097656 28.167969 11.972656 28.28125 11.839844 C 28.386719 11.722656 28.488281 11.605469 28.59375 11.484375 C 28.882812 11.246094 28.882812 11.246094 29.171875 11.28125 Z M 29.171875 11.28125 "/>
<path style=" stroke:none;fill-rule:nonzero;fill:rgb(73.333335%,3.137255%,7.058824%);fill-opacity:1;" d="M 33.046875 24.347656 C 33.1875 24.507812 33.328125 24.667969 33.472656 24.828125 C 33.617188 24.992188 33.765625 25.15625 33.910156 25.320312 C 35.480469 27.066406 35.480469 27.066406 35.820312 27.90625 C 35.085938 27.394531 34.605469 26.777344 34.074219 26.015625 C 33.839844 25.683594 33.601562 25.363281 33.351562 25.046875 C 33.046875 24.628906 33.046875 24.628906 33.046875 24.347656 Z M 33.046875 24.347656 "/>
<path style=" stroke:none;fill-rule:nonzero;fill:rgb(83.529413%,3.921569%,9.019608%);fill-opacity:1;" d="M 21.695312 19.933594 C 21.820312 19.980469 21.945312 20.027344 22.070312 20.074219 C 21.949219 20.207031 21.949219 20.207031 21.828125 20.347656 C 21.164062 21.085938 20.527344 21.835938 19.929688 22.636719 C 19.886719 22.496094 19.84375 22.355469 19.800781 22.210938 C 19.917969 22.082031 20.03125 21.953125 20.152344 21.820312 C 20.304688 21.652344 20.453125 21.480469 20.605469 21.3125 C 20.683594 21.226562 20.757812 21.140625 20.835938 21.054688 C 20.910156 20.972656 20.984375 20.890625 21.058594 20.804688 C 21.125 20.730469 21.191406 20.65625 21.261719 20.578125 C 21.46875 20.335938 21.46875 20.335938 21.695312 19.933594 Z M 21.695312 19.933594 "/>
<path style=" stroke:none;fill-rule:nonzero;fill:rgb(83.529413%,4.313726%,10.196079%);fill-opacity:1;" d="M 29.386719 11.816406 C 29.953125 12.015625 30.226562 12.3125 30.609375 12.8125 C 30.707031 12.941406 30.800781 13.066406 30.902344 13.195312 C 30.984375 13.304688 31.066406 13.414062 31.152344 13.527344 C 31.238281 13.621094 31.320312 13.714844 31.40625 13.808594 C 31.363281 13.949219 31.320312 14.09375 31.277344 14.238281 C 30.640625 13.4375 30.003906 12.636719 29.386719 11.816406 Z M 29.386719 11.816406 "/>
<path style=" stroke:none;fill-rule:nonzero;fill:rgb(73.333335%,3.529412%,7.843138%);fill-opacity:1;" d="M 29.386719 19.933594 C 29.976562 20.597656 30.566406 21.261719 31.152344 21.925781 C 31.027344 21.972656 30.902344 22.019531 30.773438 22.066406 C 30.773438 21.972656 30.773438 21.878906 30.773438 21.78125 C 30.648438 21.734375 30.523438 21.6875 30.394531 21.640625 C 29.765625 20.863281 29.765625 20.863281 29.765625 20.5 C 29.640625 20.453125 29.515625 20.40625 29.386719 20.359375 C 29.386719 20.21875 29.386719 20.078125 29.386719 19.933594 Z M 29.386719 19.933594 "/>
<path style=" stroke:none;fill-rule:nonzero;fill:rgb(80.392158%,3.921569%,9.411765%);fill-opacity:1;" d="M 31.40625 14.238281 C 31.898438 14.464844 32.203125 14.824219 32.570312 15.25 C 32.683594 15.382812 32.796875 15.511719 32.914062 15.644531 C 33 15.742188 33.082031 15.84375 33.171875 15.945312 C 33.128906 16.085938 33.089844 16.226562 33.046875 16.371094 C 32.769531 16.042969 32.5 15.714844 32.226562 15.386719 C 32.148438 15.292969 32.070312 15.199219 31.988281 15.101562 C 31.914062 15.011719 31.839844 14.921875 31.765625 14.828125 C 31.660156 14.707031 31.660156 14.707031 31.554688 14.578125 C 31.40625 14.378906 31.40625 14.378906 31.40625 14.238281 Z M 31.40625 14.238281 "/>
<path style=" stroke:none;fill-rule:nonzero;fill:rgb(81.568629%,3.921569%,9.411765%);fill-opacity:1;" d="M 33.171875 16.371094 C 33.664062 16.597656 33.96875 16.960938 34.335938 17.386719 C 34.449219 17.515625 34.5625 17.644531 34.679688 17.78125 C 34.765625 17.878906 34.847656 17.980469 34.9375 18.082031 C 34.894531 18.222656 34.855469 18.363281 34.8125 18.507812 C 34.5625 18.207031 34.3125 17.902344 34.0625 17.601562 C 33.992188 17.515625 33.917969 17.429688 33.847656 17.339844 C 33.777344 17.257812 33.710938 17.175781 33.640625 17.089844 C 33.578125 17.015625 33.515625 16.9375 33.449219 16.859375 C 33.296875 16.65625 33.296875 16.65625 33.171875 16.371094 Z M 33.171875 16.371094 "/>
<path style=" stroke:none;fill-rule:nonzero;fill:rgb(83.529413%,4.313726%,10.588235%);fill-opacity:1;" d="M 15.890625 11.390625 C 16.355469 11.609375 16.648438 11.929688 16.996094 12.332031 C 17.097656 12.449219 17.195312 12.566406 17.300781 12.6875 C 17.414062 12.820312 17.414062 12.820312 17.53125 12.957031 C 17.488281 13.097656 17.449219 13.238281 17.40625 13.382812 C 17.152344 13.078125 16.902344 12.773438 16.648438 12.464844 C 16.578125 12.378906 16.503906 12.292969 16.429688 12.203125 C 15.890625 11.546875 15.890625 11.546875 15.890625 11.390625 Z M 15.890625 11.390625 "/>
<path style=" stroke:none;fill-rule:nonzero;fill:rgb(78.039217%,4.313726%,8.627451%);fill-opacity:1;" d="M 24.46875 8.96875 C 24.511719 9.109375 24.550781 9.25 24.59375 9.398438 C 24.136719 9.914062 23.679688 10.429688 23.207031 10.960938 C 23.125 10.914062 23.039062 10.867188 22.953125 10.820312 C 23.023438 10.746094 23.089844 10.671875 23.15625 10.597656 C 23.625 10.074219 24.074219 9.5625 24.46875 8.96875 Z M 24.46875 8.96875 "/>
<path style=" stroke:none;fill-rule:nonzero;fill:rgb(79.215688%,3.921569%,7.450981%);fill-opacity:1;" d="M 11.730469 32.175781 C 11.8125 32.222656 11.894531 32.269531 11.980469 32.320312 C 11.925781 32.378906 11.871094 32.441406 11.8125 32.507812 C 11.332031 33.039062 10.890625 33.578125 10.46875 34.167969 C 10.46875 33.640625 10.578125 33.554688 10.886719 33.171875 C 11.003906 33.027344 11.003906 33.027344 11.121094 32.878906 C 11.320312 32.640625 11.523438 32.40625 11.730469 32.175781 Z M 11.730469 32.175781 "/>
<path style=" stroke:none;fill-rule:nonzero;fill:rgb(77.254903%,4.313726%,9.019608%);fill-opacity:1;" d="M 27.746094 4.984375 C 27.789062 5.078125 27.832031 5.171875 27.875 5.269531 C 27.730469 5.75 27.59375 5.890625 27.257812 6.21875 C 27.171875 6.308594 27.082031 6.398438 26.992188 6.488281 C 26.738281 6.691406 26.738281 6.691406 26.359375 6.691406 C 26.816406 6.128906 27.277344 5.5625 27.746094 4.984375 Z M 27.746094 4.984375 "/>
<path style=" stroke:none;fill-rule:nonzero;fill:rgb(83.529413%,5.882353%,18.431373%);fill-opacity:1;" d="M 23.964844 9.964844 C 23.964844 10.394531 23.964844 10.394531 23.789062 10.648438 C 23.671875 10.777344 23.671875 10.777344 23.554688 10.910156 C 23.476562 10.996094 23.402344 11.082031 23.324219 11.171875 C 23.070312 11.402344 22.894531 11.472656 22.578125 11.53125 C 22.761719 10.976562 23.011719 10.824219 23.460938 10.535156 C 23.632812 10.351562 23.800781 10.164062 23.964844 9.964844 Z M 23.964844 9.964844 "/>
<path style=" stroke:none;fill-rule:nonzero;fill:rgb(73.333335%,5.098039%,10.588235%);fill-opacity:1;" d="M 15.640625 3.558594 C 15.722656 3.558594 15.804688 3.558594 15.890625 3.558594 C 16.066406 3.839844 16.234375 4.125 16.394531 4.414062 C 16.296875 4.390625 16.199219 4.367188 16.097656 4.34375 C 15.664062 4.246094 15.664062 4.246094 15.261719 4.414062 C 15.332031 4.003906 15.371094 3.863281 15.640625 3.558594 Z M 15.640625 3.558594 "/>
<path style=" stroke:none;fill-rule:nonzero;fill:rgb(76.078433%,3.529412%,8.235294%);fill-opacity:1;" d="M 14.503906 21.214844 C 14.546875 21.355469 14.585938 21.496094 14.628906 21.640625 C 14.257812 22.0625 13.882812 22.488281 13.496094 22.921875 C 13.414062 22.875 13.328125 22.828125 13.242188 22.78125 C 13.660156 22.261719 14.074219 21.746094 14.503906 21.214844 Z M 14.503906 21.214844 "/>
<path style=" stroke:none;fill-rule:nonzero;fill:rgb(77.254903%,4.313726%,9.019608%);fill-opacity:1;" d="M 33.046875 8.398438 C 33.539062 8.941406 33.988281 9.511719 34.433594 10.109375 C 33.847656 9.996094 33.65625 9.625 33.296875 9.113281 C 33.214844 9.066406 33.128906 9.019531 33.046875 8.96875 C 33.046875 8.78125 33.046875 8.59375 33.046875 8.398438 Z M 33.046875 8.398438 "/>
<path style=" stroke:none;fill-rule:nonzero;fill:rgb(76.862746%,4.705882%,9.019608%);fill-opacity:1;" d="M 28.882812 3.558594 C 29.050781 3.652344 29.214844 3.746094 29.386719 3.84375 C 29.320312 3.875 29.253906 3.902344 29.183594 3.933594 C 28.757812 4.210938 28.464844 4.582031 28.125 4.984375 C 28.042969 4.9375 27.960938 4.890625 27.875 4.839844 C 27.9375 4.773438 28 4.703125 28.0625 4.632812 C 28.144531 4.542969 28.222656 4.453125 28.308594 4.359375 C 28.386719 4.269531 28.46875 4.183594 28.550781 4.089844 C 28.765625 3.855469 28.765625 3.855469 28.882812 3.558594 Z M 28.882812 3.558594 "/>
<path style=" stroke:none;fill-rule:nonzero;fill:rgb(76.47059%,3.921569%,9.019608%);fill-opacity:1;" d="M 39.097656 15.804688 C 39.550781 16.300781 39.960938 16.816406 40.359375 17.371094 C 39.84375 17.144531 39.433594 16.722656 39.097656 16.230469 C 39.097656 16.089844 39.097656 15.949219 39.097656 15.804688 Z M 39.097656 15.804688 "/>
<path style=" stroke:none;fill-rule:nonzero;fill:rgb(81.176472%,5.098039%,11.372549%);fill-opacity:1;" d="M 15.136719 4.269531 C 15.136719 4.78125 15.050781 4.855469 14.757812 5.222656 C 14.6875 5.3125 14.617188 5.402344 14.542969 5.492188 C 14.488281 5.558594 14.433594 5.625 14.378906 5.695312 C 14.335938 5.554688 14.296875 5.414062 14.253906 5.269531 C 14.542969 4.9375 14.835938 4.609375 15.136719 4.269531 Z M 15.136719 4.269531 "/>
<path style=" stroke:none;fill-rule:nonzero;fill:rgb(73.333335%,3.921569%,8.627451%);fill-opacity:1;" d="M 23.460938 32.601562 C 23.5 32.746094 23.542969 32.886719 23.585938 33.03125 C 23.460938 33.078125 23.335938 33.125 23.207031 33.171875 C 23.054688 33.457031 23.054688 33.457031 22.953125 33.742188 C 22.832031 33.742188 22.707031 33.742188 22.578125 33.742188 C 22.578125 33.648438 22.578125 33.554688 22.578125 33.457031 C 22.703125 33.457031 22.828125 33.457031 22.953125 33.457031 C 22.992188 33.371094 23.027344 33.28125 23.066406 33.191406 C 23.207031 32.886719 23.207031 32.886719 23.460938 32.601562 Z M 23.460938 32.601562 "/>
<path style=" stroke:none;fill-rule:nonzero;fill:rgb(77.64706%,3.529412%,8.235294%);fill-opacity:1;" d="M 19.421875 29.898438 C 19.566406 30.03125 19.707031 30.164062 19.847656 30.296875 C 19.929688 30.375 20.007812 30.449219 20.089844 30.523438 C 20.304688 30.753906 20.304688 30.753906 20.558594 31.179688 C 20.390625 31.085938 20.222656 30.988281 20.054688 30.894531 C 19.917969 30.835938 19.917969 30.835938 19.777344 30.777344 C 19.550781 30.609375 19.550781 30.609375 19.453125 30.238281 C 19.445312 30.125 19.433594 30.011719 19.421875 29.898438 Z M 19.421875 29.898438 "/>
<path style=" stroke:none;fill-rule:nonzero;fill:rgb(75.686276%,4.313726%,9.019608%);fill-opacity:1;" d="M 7.695312 13.382812 C 7.734375 13.523438 7.777344 13.664062 7.820312 13.808594 C 7.695312 13.855469 7.570312 13.902344 7.441406 13.953125 C 7.402344 14.042969 7.363281 14.132812 7.324219 14.226562 C 7.15625 14.589844 7.003906 14.644531 6.683594 14.808594 C 6.804688 14.621094 6.925781 14.4375 7.046875 14.253906 C 7.113281 14.152344 7.183594 14.050781 7.25 13.945312 C 7.441406 13.667969 7.441406 13.667969 7.695312 13.382812 Z M 7.695312 13.382812 "/>
<path style=" stroke:none;fill-rule:nonzero;fill:rgb(75.686276%,3.529412%,7.058824%);fill-opacity:1;" d="M 25.855469 15.660156 C 26.226562 16.066406 26.566406 16.464844 26.863281 16.941406 C 26.441406 16.738281 26.15625 16.484375 25.855469 16.089844 C 25.855469 15.945312 25.855469 15.804688 25.855469 15.660156 Z M 25.855469 15.660156 "/>
<path style=" stroke:none;fill-rule:nonzero;fill:rgb(75.686276%,3.529412%,9.019608%);fill-opacity:1;" d="M 20.304688 21.640625 C 20.429688 21.6875 20.554688 21.734375 20.683594 21.78125 C 20.246094 22.207031 20.246094 22.207031 19.800781 22.636719 C 19.921875 22.089844 19.957031 21.984375 20.304688 21.640625 Z M 20.304688 21.640625 "/>
<path style=" stroke:none;fill-rule:nonzero;fill:rgb(82.745099%,4.705882%,10.588235%);fill-opacity:1;" d="M 13.621094 13.527344 C 13.664062 13.667969 13.703125 13.808594 13.746094 13.953125 C 13.539062 14.1875 13.332031 14.421875 13.117188 14.664062 C 13.035156 14.617188 12.949219 14.570312 12.863281 14.523438 C 13.113281 14.191406 13.363281 13.863281 13.621094 13.527344 Z M 13.621094 13.527344 "/>
<path style=" stroke:none;fill-rule:nonzero;fill:rgb(77.64706%,3.921569%,10.196079%);fill-opacity:1;" d="M 23.460938 20.5 C 23.828125 20.65625 24.0625 20.753906 24.34375 21.070312 C 24.300781 21.210938 24.257812 21.351562 24.214844 21.5 C 23.964844 21.167969 23.714844 20.839844 23.460938 20.5 Z M 23.460938 20.5 "/>
</g>
</svg>
