<?xml version="1.0" encoding="UTF-8"?>
<svg xmlns="http://www.w3.org/2000/svg" xmlns:xlink="http://www.w3.org/1999/xlink" width="42px" height="42px" viewBox="0 0 42 42" version="1.1">
<g id="surface1">
<path style=" stroke:none;fill-rule:nonzero;fill:rgb(99.607843%,98.039216%,98.039216%);fill-opacity:1;" d="M 0 0 C 13.859375 0 27.71875 0 42 0 C 42 13.859375 42 27.71875 42 42 C 28.140625 42 14.28125 42 0 42 C 0 28.140625 0 14.28125 0 0 Z M 0 0 "/>
<path style=" stroke:none;fill-rule:nonzero;fill:rgb(92.941177%,13.725491%,16.862746%);fill-opacity:1;" d="M 29.175781 5.210938 C 31.660156 6.53125 33.148438 7.921875 34.800781 10.199219 C 33.601562 9.601562 32.398438 9 31.199219 8.398438 C 31.210938 9.179688 31.210938 9.179688 31.21875 9.976562 C 31.238281 11.90625 31.253906 13.839844 31.265625 15.769531 C 31.273438 16.605469 31.28125 17.441406 31.289062 18.277344 C 31.304688 19.476562 31.3125 20.675781 31.316406 21.875 C 31.328125 22.960938 31.328125 22.960938 31.335938 24.066406 C 31.199219 25.800781 31.199219 25.800781 30 27 C 27.570312 27.207031 26.671875 27.179688 24.601562 25.800781 C 24.226562 24.433594 24.226562 24.433594 24 22.835938 C 23.6875 20.605469 23.6875 20.605469 22.5625 18.703125 C 21.585938 17.832031 21.585938 17.832031 20.023438 18.113281 C 18.5 18.449219 18.5 18.449219 18 19.800781 C 17.84375 22.941406 18.015625 25.238281 19.199219 28.199219 C 16.945312 26.597656 15.652344 25.519531 15 22.800781 C 14.910156 20.796875 14.929688 18.804688 15 16.800781 C 13.875 17.925781 14.164062 19.824219 14.0625 21.335938 C 14.011719 22.054688 13.960938 22.773438 13.910156 23.515625 C 13.855469 24.347656 13.855469 24.347656 13.800781 25.199219 C 12.027344 23.425781 11.871094 21.765625 11.773438 19.351562 C 11.808594 16.117188 12.71875 14.253906 15 12 C 17.277344 10.203125 19.339844 9.878906 22.199219 9.601562 C 22.027344 10.167969 21.851562 10.738281 21.675781 11.324219 C 21.238281 14.210938 22.761719 15.9375 24.308594 18.257812 C 25.425781 20.1875 25.746094 21.914062 25.972656 24.113281 C 26.324219 25.378906 26.324219 25.378906 27.925781 25.867188 C 28.414062 26.042969 28.898438 26.21875 29.398438 26.398438 C 29.359375 25.777344 29.359375 25.777344 29.316406 25.144531 C 29.195312 23.25 29.089844 21.355469 28.988281 19.460938 C 28.945312 18.8125 28.898438 18.160156 28.855469 17.488281 C 28.660156 13.722656 28.75 11.117188 30.601562 7.800781 C 25.511719 6.234375 20.34375 5.5625 15.375 7.835938 C 11.625 9.964844 9.171875 12.695312 7.800781 16.800781 C 7.199219 20.910156 7.734375 24.417969 9.734375 28.058594 C 11.351562 30.09375 13.304688 31.1875 15.59375 32.363281 C 16.191406 32.679688 16.191406 32.679688 16.800781 33 C 16.800781 33.199219 16.800781 33.394531 16.800781 33.601562 C 15.667969 33.488281 15.667969 33.488281 14.511719 33.375 C 14.085938 33.332031 13.664062 33.292969 13.226562 33.25 C 12 33 12 33 10.199219 31.800781 C 8.800781 31.753906 7.398438 31.746094 6 31.800781 C 5.613281 30.9375 5.222656 30.074219 4.835938 29.210938 C 4.621094 28.730469 4.40625 28.25 4.183594 27.757812 C 2.378906 23.558594 2.382812 19.183594 3.9375 14.886719 C 6.296875 9.738281 9.65625 6.589844 14.816406 4.246094 C 19.859375 2.601562 24.394531 2.972656 29.175781 5.210938 Z M 29.175781 5.210938 "/>
<path style=" stroke:none;fill-rule:nonzero;fill:rgb(92.941177%,15.294118%,18.039216%);fill-opacity:1;" d="M 29.398438 6 C 32.085938 6.621094 33.238281 8.003906 34.800781 10.199219 C 33 9.300781 33 9.300781 31.199219 8.398438 C 31.210938 9.179688 31.210938 9.179688 31.21875 9.976562 C 31.238281 11.90625 31.253906 13.839844 31.265625 15.769531 C 31.273438 16.605469 31.28125 17.441406 31.289062 18.277344 C 31.304688 19.476562 31.3125 20.675781 31.316406 21.875 C 31.328125 22.960938 31.328125 22.960938 31.335938 24.066406 C 31.199219 25.800781 31.199219 25.800781 30 27 C 27.570312 27.207031 26.671875 27.179688 24.601562 25.800781 C 24.226562 24.433594 24.226562 24.433594 24 22.835938 C 23.6875 20.605469 23.6875 20.605469 22.5625 18.703125 C 21.585938 17.832031 21.585938 17.832031 20.023438 18.113281 C 18.5 18.449219 18.5 18.449219 18 19.800781 C 17.84375 22.941406 18.015625 25.238281 19.199219 28.199219 C 16.945312 26.597656 15.652344 25.519531 15 22.800781 C 14.910156 20.796875 14.929688 18.804688 15 16.800781 C 13.875 17.925781 14.164062 19.824219 14.0625 21.335938 C 14.011719 22.054688 13.960938 22.773438 13.910156 23.515625 C 13.875 24.070312 13.835938 24.628906 13.800781 25.199219 C 12.027344 23.425781 11.871094 21.765625 11.773438 19.351562 C 11.808594 16.117188 12.71875 14.253906 15 12 C 17.277344 10.203125 19.339844 9.878906 22.199219 9.601562 C 22.027344 10.167969 21.851562 10.738281 21.675781 11.324219 C 21.238281 14.210938 22.761719 15.9375 24.308594 18.257812 C 25.425781 20.1875 25.746094 21.914062 25.972656 24.113281 C 26.324219 25.378906 26.324219 25.378906 27.925781 25.867188 C 28.414062 26.042969 28.898438 26.21875 29.398438 26.398438 C 29.371094 25.984375 29.34375 25.570312 29.316406 25.144531 C 29.195312 23.25 29.089844 21.355469 28.988281 19.460938 C 28.945312 18.8125 28.898438 18.160156 28.855469 17.488281 C 28.660156 13.722656 28.75 11.117188 30.601562 7.800781 C 29.113281 7.503906 29.113281 7.503906 27.601562 7.199219 C 28.195312 6.804688 28.789062 6.40625 29.398438 6 Z M 29.398438 6 "/>
<path style=" stroke:none;fill-rule:nonzero;fill:rgb(93.725491%,20.784314%,23.921569%);fill-opacity:1;" d="M 37.199219 14.398438 C 39.171875 16.371094 39.121094 18.9375 39.226562 21.636719 C 39.164062 26.589844 37.394531 31.1875 33.976562 34.800781 C 30.101562 38.25 26.34375 39.804688 21.113281 39.734375 C 17.832031 39.398438 14.824219 38.503906 12.601562 36 C 13.355469 36.289062 13.355469 36.289062 14.128906 36.582031 C 18.710938 37.945312 24.054688 38.019531 28.460938 36.039062 C 32.328125 33.773438 35.976562 30.195312 37.199219 25.800781 C 37.335938 23.835938 37.3125 21.882812 37.273438 19.914062 C 37.269531 19.382812 37.265625 18.851562 37.257812 18.304688 C 37.246094 17.003906 37.222656 15.703125 37.199219 14.398438 Z M 37.199219 14.398438 "/>
<path style=" stroke:none;fill-rule:nonzero;fill:rgb(93.725491%,24.313726%,27.450982%);fill-opacity:1;" d="M 29.398438 6 C 32.085938 6.621094 33.238281 8.003906 34.800781 10.199219 C 33.601562 9.601562 32.398438 9 31.199219 8.398438 C 31.207031 8.921875 31.210938 9.441406 31.21875 9.976562 C 31.238281 11.90625 31.253906 13.839844 31.265625 15.769531 C 31.273438 16.605469 31.28125 17.441406 31.289062 18.277344 C 31.304688 19.476562 31.3125 20.675781 31.316406 21.875 C 31.324219 22.597656 31.328125 23.320312 31.335938 24.066406 C 31.199219 25.800781 31.199219 25.800781 30 27 C 28.125 27.074219 28.125 27.074219 26.398438 27 C 26.398438 26.800781 26.398438 26.605469 26.398438 26.398438 C 27.390625 26.398438 28.378906 26.398438 29.398438 26.398438 C 29.371094 25.984375 29.34375 25.570312 29.316406 25.144531 C 29.195312 23.25 29.089844 21.355469 28.988281 19.460938 C 28.945312 18.8125 28.898438 18.160156 28.855469 17.488281 C 28.660156 13.722656 28.75 11.117188 30.601562 7.800781 C 29.609375 7.601562 28.621094 7.402344 27.601562 7.199219 C 28.195312 6.804688 28.789062 6.40625 29.398438 6 Z M 29.398438 6 "/>
<path style=" stroke:none;fill-rule:nonzero;fill:rgb(94.509804%,31.764707%,34.117648%);fill-opacity:1;" d="M 12.601562 36 C 13.101562 36.195312 13.601562 36.390625 14.117188 36.59375 C 16.425781 37.265625 18.335938 37.339844 20.738281 37.3125 C 21.890625 37.308594 21.890625 37.308594 23.066406 37.300781 C 24.859375 37.214844 26.460938 37.015625 28.199219 36.601562 C 28.398438 37.195312 28.597656 37.789062 28.800781 38.398438 C 23.738281 40.085938 19.277344 40.136719 14.398438 37.800781 C 13.34375 36.835938 13.34375 36.835938 12.601562 36 Z M 12.601562 36 "/>
<path style=" stroke:none;fill-rule:nonzero;fill:rgb(94.117647%,26.666668%,29.411766%);fill-opacity:1;" d="M 30 15 C 30.199219 15 30.394531 15 30.601562 15 C 30.734375 16.773438 30.855469 18.550781 30.976562 20.324219 C 31.011719 20.828125 31.050781 21.335938 31.09375 21.855469 C 31.125 22.339844 31.152344 22.824219 31.1875 23.320312 C 31.21875 23.765625 31.25 24.210938 31.28125 24.671875 C 31.199219 25.800781 31.199219 25.800781 30 27 C 28.125 27.074219 28.125 27.074219 26.398438 27 C 26.398438 26.800781 26.398438 26.605469 26.398438 26.398438 C 27.390625 26.398438 28.378906 26.398438 29.398438 26.398438 C 29.394531 25.675781 29.386719 24.957031 29.378906 24.210938 C 29.375 23.265625 29.367188 22.320312 29.363281 21.375 C 29.359375 20.898438 29.351562 20.421875 29.347656 19.929688 C 29.332031 16.335938 29.332031 16.335938 30 15 Z M 30 15 "/>
<path style=" stroke:none;fill-rule:nonzero;fill:rgb(94.117647%,25.882354%,28.235295%);fill-opacity:1;" d="M 12 16.199219 C 12.394531 16.199219 12.792969 16.199219 13.199219 16.199219 C 14.066406 17.929688 13.855469 19.449219 13.835938 21.375 C 13.832031 22.089844 13.828125 22.800781 13.820312 23.535156 C 13.8125 24.085938 13.808594 24.632812 13.800781 25.199219 C 12.34375 23.746094 12.023438 22.753906 11.941406 20.710938 C 11.949219 20.175781 11.957031 19.640625 11.960938 19.085938 C 11.96875 18.546875 11.972656 18.007812 11.980469 17.449219 C 11.984375 17.035156 11.992188 16.625 12 16.199219 Z M 12 16.199219 "/>
<path style=" stroke:none;fill-rule:nonzero;fill:rgb(94.117647%,29.019609%,31.37255%);fill-opacity:1;" d="M 11.398438 30.601562 C 13.476562 31.347656 15.089844 32.207031 16.800781 33.601562 C 12.148438 33.148438 12.148438 33.148438 10.800781 31.800781 C 10.996094 31.402344 11.195312 31.007812 11.398438 30.601562 Z M 11.398438 30.601562 "/>
<path style=" stroke:none;fill-rule:nonzero;fill:rgb(92.941177%,12.54902%,15.686275%);fill-opacity:1;" d="M 30 10.199219 C 30.199219 10.199219 30.394531 10.199219 30.601562 10.199219 C 30.71875 13.832031 30.71875 13.832031 30.601562 15 C 30.203125 15.394531 29.808594 15.792969 29.398438 16.199219 C 28.648438 12.226562 28.648438 12.226562 30 10.199219 Z M 30 10.199219 "/>
<path style=" stroke:none;fill-rule:nonzero;fill:rgb(93.725491%,23.529412%,25.882354%);fill-opacity:1;" d="M 16.800781 20.398438 C 16.996094 20.398438 17.195312 20.398438 17.398438 20.398438 C 17.601562 21.363281 17.800781 22.324219 18 23.289062 C 18.113281 23.824219 18.222656 24.359375 18.335938 24.910156 C 18.601562 26.398438 18.601562 26.398438 18.601562 28.199219 C 17.363281 27.335938 17.363281 27.335938 16.199219 25.800781 C 16.164062 23.953125 16.445312 22.207031 16.800781 20.398438 Z M 16.800781 20.398438 "/>
<path style=" stroke:none;fill-rule:nonzero;fill:rgb(93.725491%,20.784314%,23.529412%);fill-opacity:1;" d="M 7.199219 9.601562 C 7.398438 9.996094 7.597656 10.390625 7.800781 10.800781 C 7.238281 12.375 7.238281 12.375 6.601562 13.800781 C 6.203125 13.800781 5.808594 13.800781 5.398438 13.800781 C 5.398438 14.394531 5.398438 14.988281 5.398438 15.601562 C 5.003906 15.601562 4.609375 15.601562 4.199219 15.601562 C 4.894531 13.253906 5.613281 11.476562 7.199219 9.601562 Z M 7.199219 9.601562 "/>
<path style=" stroke:none;fill-rule:nonzero;fill:rgb(92.54902%,11.372549%,14.117648%);fill-opacity:1;" d="M 16.800781 4.800781 C 18.1875 4.800781 19.570312 4.800781 21 4.800781 C 20.207031 4.996094 19.414062 5.195312 18.601562 5.398438 C 18.601562 5.796875 18.601562 6.191406 18.601562 6.601562 C 17.410156 6.796875 16.222656 6.996094 15 7.199219 C 15.394531 7.003906 15.792969 6.804688 16.199219 6.601562 C 16.398438 6.007812 16.597656 5.410156 16.800781 4.800781 Z M 16.800781 4.800781 "/>
<path style=" stroke:none;fill-rule:nonzero;fill:rgb(93.725491%,20.784314%,23.529412%);fill-opacity:1;" d="M 35.398438 29.398438 C 35.796875 29.992188 36.191406 30.589844 36.601562 31.199219 C 35.15625 32.859375 34.703125 33.023438 32.398438 33.601562 C 33.390625 32.214844 34.378906 30.828125 35.398438 29.398438 Z M 35.398438 29.398438 "/>
</g>
</svg>
