<?xml version="1.0" encoding="UTF-8"?>
<svg xmlns="http://www.w3.org/2000/svg" xmlns:xlink="http://www.w3.org/1999/xlink" width="42px" height="42px" viewBox="0 0 42 42" version="1.1">
<g id="surface1">
<path style=" stroke:none;fill-rule:nonzero;fill:rgb(98.823529%,98.823529%,99.215686%);fill-opacity:1;" d="M 0 0 C 13.859375 0 27.71875 0 42 0 C 42 13.859375 42 27.71875 42 42 C 28.140625 42 14.28125 42 0 42 C 0 28.140625 0 14.28125 0 0 Z M 0 0 "/>
<path style=" stroke:none;fill-rule:nonzero;fill:rgb(99.607843%,99.607843%,99.607843%);fill-opacity:1;" d="M 0 0 C 13.859375 0 27.71875 0 42 0 C 42 13.859375 42 27.71875 42 42 C 28.140625 42 14.28125 42 0 42 C 0 28.140625 0 14.28125 0 0 Z M 17.621094 2.363281 C 17.5625 2.375 17.503906 2.386719 17.441406 2.398438 C 14.207031 3.058594 11.214844 4.441406 8.722656 6.621094 C 8.644531 6.691406 8.5625 6.761719 8.480469 6.832031 C 7.640625 7.554688 6.828125 8.351562 6.160156 9.238281 C 6.132812 9.277344 6.101562 9.3125 6.074219 9.351562 C 4.792969 11.027344 3.785156 12.851562 3.078125 14.839844 C 3.0625 14.890625 3.042969 14.941406 3.023438 14.996094 C 2.667969 16.023438 2.4375 17.105469 2.257812 18.179688 C 2.25 18.226562 2.242188 18.273438 2.234375 18.324219 C 1.710938 21.574219 2.132812 25.367188 3.570312 28.351562 C 3.617188 28.460938 3.667969 28.574219 3.714844 28.683594 C 4.390625 30.246094 5.269531 31.671875 6.371094 32.96875 C 6.421875 33.035156 6.476562 33.101562 6.53125 33.171875 C 7.347656 34.167969 8.269531 35.144531 9.308594 35.910156 C 9.378906 35.960938 9.378906 35.960938 9.445312 36.011719 C 10.144531 36.535156 10.855469 37.027344 11.621094 37.449219 C 11.679688 37.480469 11.738281 37.515625 11.796875 37.546875 C 13.148438 38.292969 14.539062 38.875 16.03125 39.269531 C 16.160156 39.304688 16.160156 39.304688 16.296875 39.34375 C 16.851562 39.492188 17.40625 39.601562 17.972656 39.703125 C 18.039062 39.714844 18.101562 39.726562 18.171875 39.738281 C 22.25 40.433594 26.484375 39.511719 30.101562 37.589844 C 30.140625 37.566406 30.183594 37.546875 30.226562 37.523438 C 31.648438 36.757812 32.929688 35.769531 34.089844 34.648438 C 34.15625 34.585938 34.15625 34.585938 34.222656 34.523438 C 34.773438 33.984375 35.296875 33.441406 35.769531 32.828125 C 35.824219 32.761719 35.878906 32.691406 35.9375 32.621094 C 37.9375 30.109375 39.175781 27.097656 39.691406 23.941406 C 39.699219 23.890625 39.707031 23.839844 39.714844 23.789062 C 39.867188 22.9375 39.933594 22.113281 39.921875 21.25 C 39.921875 21.066406 39.921875 20.878906 39.921875 20.695312 C 39.917969 17.90625 39.25 15.164062 38.011719 12.671875 C 37.984375 12.617188 37.960938 12.566406 37.933594 12.515625 C 37.089844 10.816406 35.980469 9.257812 34.648438 7.910156 C 34.566406 7.824219 34.480469 7.734375 34.398438 7.648438 C 33.921875 7.164062 33.433594 6.71875 32.898438 6.300781 C 32.847656 6.257812 32.796875 6.210938 32.742188 6.167969 C 30.460938 4.265625 27.644531 3.109375 24.78125 2.449219 C 24.722656 2.4375 24.664062 2.421875 24.605469 2.410156 C 23.429688 2.136719 22.253906 2.078125 21.046875 2.078125 C 20.960938 2.078125 20.960938 2.078125 20.871094 2.078125 C 19.78125 2.074219 18.695312 2.148438 17.621094 2.363281 Z M 17.621094 2.363281 "/>
<path style=" stroke:none;fill-rule:nonzero;fill:rgb(93.333334%,19.215687%,21.960784%);fill-opacity:1;" d="M 25.828125 11.269531 C 25.875 11.292969 25.917969 11.3125 25.964844 11.335938 C 26.636719 11.660156 27.214844 12.054688 27.789062 12.53125 C 27.851562 12.578125 27.851562 12.578125 27.914062 12.628906 C 29.738281 14.125 31.019531 16.109375 31.570312 18.410156 C 31.582031 18.460938 31.59375 18.507812 31.609375 18.558594 C 32.011719 20.171875 31.996094 21.914062 31.570312 23.519531 C 31.554688 23.578125 31.539062 23.640625 31.523438 23.699219 C 31.3125 24.496094 31.042969 25.242188 30.660156 25.96875 C 30.636719 26.015625 30.613281 26.0625 30.589844 26.109375 C 29.203125 28.757812 26.886719 30.5 24.078125 31.429688 C 23.824219 31.507812 23.570312 31.578125 23.308594 31.640625 C 23.230469 31.660156 23.230469 31.660156 23.152344 31.679688 C 20.527344 32.320312 17.609375 31.683594 15.328125 30.308594 C 12.773438 28.71875 11.054688 26.234375 10.359375 23.308594 C 9.75 20.5625 10.277344 17.578125 11.773438 15.199219 C 13.476562 12.597656 16.011719 10.925781 19.035156 10.285156 C 21.332031 9.84375 23.742188 10.246094 25.828125 11.269531 Z M 25.828125 11.269531 "/>
<path style=" stroke:none;fill-rule:nonzero;fill:rgb(99.215686%,98.823529%,99.215686%);fill-opacity:1;" d="M 25.828125 11.269531 C 25.875 11.292969 25.917969 11.3125 25.964844 11.335938 C 26.636719 11.660156 27.214844 12.054688 27.789062 12.53125 C 27.851562 12.578125 27.851562 12.578125 27.914062 12.628906 C 29.738281 14.125 31.019531 16.109375 31.570312 18.410156 C 31.582031 18.460938 31.59375 18.507812 31.609375 18.558594 C 32.011719 20.171875 31.996094 21.914062 31.570312 23.519531 C 31.554688 23.578125 31.539062 23.640625 31.523438 23.699219 C 31.3125 24.496094 31.042969 25.242188 30.660156 25.96875 C 30.636719 26.015625 30.613281 26.0625 30.589844 26.109375 C 29.203125 28.757812 26.886719 30.5 24.078125 31.429688 C 23.824219 31.507812 23.570312 31.578125 23.308594 31.640625 C 23.230469 31.660156 23.230469 31.660156 23.152344 31.679688 C 20.527344 32.320312 17.609375 31.683594 15.328125 30.308594 C 12.773438 28.71875 11.054688 26.234375 10.359375 23.308594 C 9.75 20.5625 10.277344 17.578125 11.773438 15.199219 C 13.476562 12.597656 16.011719 10.925781 19.035156 10.285156 C 21.332031 9.84375 23.742188 10.246094 25.828125 11.269531 Z M 19.039062 13.160156 C 18.96875 13.210938 18.894531 13.261719 18.820312 13.3125 C 18.4375 13.640625 18.152344 14.15625 17.988281 14.628906 C 17.988281 14.699219 17.988281 14.769531 17.988281 14.839844 C 17.929688 14.808594 17.871094 14.78125 17.808594 14.75 C 17.277344 14.496094 16.804688 14.378906 16.214844 14.378906 C 16.15625 14.378906 16.097656 14.378906 16.039062 14.378906 C 15.15625 14.402344 14.378906 14.816406 13.777344 15.449219 C 13.109375 16.285156 12.988281 17.167969 13.089844 18.199219 C 13.226562 18.808594 13.515625 19.28125 13.929688 19.738281 C 13.859375 19.792969 13.859375 19.792969 13.789062 19.847656 C 13.019531 20.476562 12.5 21.019531 12.179688 21.980469 C 12.121094 23.082031 12.234375 23.917969 12.941406 24.808594 C 13.433594 25.34375 14.097656 25.75 14.832031 25.824219 C 14.925781 25.828125 15.023438 25.832031 15.121094 25.828125 C 15.097656 25.898438 15.074219 25.96875 15.050781 26.039062 C 14.96875 26.9375 15.203125 27.75 15.75 28.460938 C 16.097656 28.871094 16.453125 29.164062 16.941406 29.398438 C 17.007812 29.4375 17.007812 29.4375 17.078125 29.472656 C 17.679688 29.726562 18.570312 29.71875 19.1875 29.523438 C 19.28125 29.484375 19.371094 29.441406 19.460938 29.398438 C 19.53125 29.371094 19.53125 29.371094 19.601562 29.339844 C 20.054688 29.140625 20.445312 28.832031 20.71875 28.421875 C 20.929688 28.488281 20.929688 28.488281 21.070312 28.671875 C 21.457031 29.15625 22.148438 29.554688 22.769531 29.628906 C 22.9375 29.636719 23.101562 29.636719 23.269531 29.632812 C 23.328125 29.632812 23.382812 29.632812 23.4375 29.632812 C 24.359375 29.625 25.003906 29.3125 25.675781 28.683594 C 26.382812 27.933594 26.546875 27.15625 26.542969 26.15625 C 26.542969 25.972656 26.542969 25.972656 26.460938 25.828125 C 26.539062 25.832031 26.617188 25.835938 26.699219 25.839844 C 27.441406 25.832031 28.132812 25.554688 28.722656 25.113281 C 29.402344 24.417969 29.78125 23.613281 29.792969 22.640625 C 29.785156 21.84375 29.527344 21.167969 28.980469 20.578125 C 28.625 20.226562 28.625 20.226562 28.210938 19.949219 C 28.285156 19.765625 28.359375 19.582031 28.4375 19.398438 C 28.46875 19.328125 28.5 19.257812 28.53125 19.183594 C 28.558594 19.113281 28.589844 19.042969 28.621094 18.972656 C 28.902344 18.210938 28.84375 17.390625 28.523438 16.652344 C 28.125 15.867188 27.429688 15.230469 26.597656 14.929688 C 25.824219 14.71875 24.9375 14.761719 24.21875 15.121094 C 24.199219 15.0625 24.179688 15.003906 24.160156 14.941406 C 23.816406 14 23.34375 13.265625 22.457031 12.761719 C 21.292969 12.226562 20.042969 12.382812 19.039062 13.160156 Z M 19.039062 13.160156 "/>
<path style=" stroke:none;fill-rule:nonzero;fill:rgb(92.941177%,15.294118%,18.431373%);fill-opacity:1;" d="M 25.898438 2.730469 C 26.003906 2.757812 26.003906 2.757812 26.105469 2.785156 C 26.300781 2.835938 26.496094 2.890625 26.691406 2.945312 C 26.777344 2.96875 26.777344 2.96875 26.863281 2.992188 C 27.675781 3.226562 28.4375 3.597656 29.199219 3.964844 C 29.242188 3.984375 29.289062 4.007812 29.332031 4.027344 C 30.851562 4.761719 32.191406 5.679688 33.460938 6.789062 C 33.546875 6.863281 33.546875 6.863281 33.632812 6.9375 C 34.523438 7.722656 35.351562 8.558594 36.050781 9.519531 C 36.085938 9.566406 36.117188 9.613281 36.152344 9.660156 C 36.648438 10.339844 37.109375 11.027344 37.519531 11.761719 C 37.550781 11.8125 37.582031 11.867188 37.613281 11.921875 C 38.136719 12.863281 38.554688 13.828125 38.921875 14.839844 C 38.941406 14.894531 38.960938 14.949219 38.980469 15.007812 C 39.242188 15.730469 39.414062 16.46875 39.566406 17.21875 C 39.585938 17.304688 39.601562 17.386719 39.621094 17.472656 C 39.847656 18.640625 39.933594 19.804688 39.933594 20.992188 C 39.933594 21.054688 39.933594 21.117188 39.9375 21.179688 C 39.9375 22.117188 39.863281 23.027344 39.707031 23.953125 C 39.699219 24.003906 39.691406 24.058594 39.679688 24.113281 C 39.175781 27.027344 38.011719 29.816406 36.261719 32.199219 C 36.230469 32.242188 36.199219 32.28125 36.167969 32.324219 C 35.664062 33.003906 35.097656 33.621094 34.511719 34.230469 C 34.445312 34.296875 34.445312 34.296875 34.382812 34.363281 C 33.871094 34.890625 33.347656 35.390625 32.761719 35.839844 C 32.703125 35.882812 32.703125 35.882812 32.644531 35.925781 C 31.054688 37.148438 29.363281 38.027344 27.511719 38.78125 C 27.460938 38.800781 27.410156 38.820312 27.359375 38.839844 C 26.53125 39.179688 25.648438 39.355469 24.78125 39.550781 C 24.726562 39.5625 24.671875 39.574219 24.613281 39.585938 C 22.601562 40.023438 20.304688 40.097656 18.269531 39.761719 C 18.171875 39.746094 18.171875 39.746094 18.070312 39.726562 C 15.355469 39.285156 12.65625 38.296875 10.410156 36.695312 C 10.289062 36.609375 10.167969 36.527344 10.046875 36.441406 C 8.617188 35.460938 7.273438 34.210938 6.230469 32.828125 C 6.175781 32.761719 6.121094 32.695312 6.066406 32.625 C 4.019531 30.058594 2.714844 26.894531 2.269531 23.652344 C 2.25 23.511719 2.226562 23.375 2.203125 23.234375 C 2.089844 22.558594 2.078125 21.894531 2.082031 21.210938 C 2.082031 21.019531 2.082031 20.828125 2.082031 20.636719 C 2.078125 19.550781 2.167969 18.496094 2.402344 17.433594 C 2.417969 17.363281 2.433594 17.292969 2.449219 17.21875 C 2.496094 17.007812 2.542969 16.800781 2.589844 16.589844 C 2.605469 16.53125 2.617188 16.472656 2.632812 16.410156 C 3.558594 12.460938 5.988281 8.621094 9.238281 6.160156 C 9.277344 6.132812 9.316406 6.101562 9.351562 6.074219 C 10.851562 4.925781 12.5 3.933594 14.28125 3.289062 C 14.371094 3.253906 14.460938 3.222656 14.550781 3.1875 C 18.179688 1.828125 22.179688 1.738281 25.898438 2.730469 Z M 17.5 2.890625 C 17.429688 2.90625 17.359375 2.921875 17.285156 2.9375 C 17.078125 2.984375 16.867188 3.03125 16.660156 3.078125 C 16.574219 3.097656 16.574219 3.097656 16.484375 3.117188 C 13.929688 3.695312 11.5625 4.953125 9.519531 6.578125 C 9.480469 6.613281 9.441406 6.644531 9.398438 6.675781 C 8.34375 7.523438 7.320312 8.503906 6.511719 9.589844 C 6.453125 9.664062 6.394531 9.742188 6.335938 9.816406 C 5.242188 11.25 4.296875 12.855469 3.710938 14.558594 C 3.667969 14.679688 3.625 14.796875 3.578125 14.914062 C 3.179688 16.035156 2.925781 17.167969 2.730469 18.339844 C 2.71875 18.398438 2.710938 18.460938 2.699219 18.523438 C 2.222656 21.46875 2.566406 25.203125 3.894531 27.878906 C 3.972656 28.03125 4.042969 28.1875 4.109375 28.347656 C 4.757812 29.871094 5.582031 31.28125 6.648438 32.550781 C 6.707031 32.617188 6.761719 32.6875 6.820312 32.757812 C 7.734375 33.871094 8.761719 34.9375 9.941406 35.769531 C 9.984375 35.800781 10.027344 35.832031 10.074219 35.867188 C 11.703125 37.03125 13.433594 37.910156 15.328125 38.570312 C 15.382812 38.589844 15.4375 38.609375 15.492188 38.628906 C 15.894531 38.765625 16.296875 38.867188 16.710938 38.953125 C 16.78125 38.96875 16.851562 38.984375 16.921875 39 C 17.570312 39.136719 18.222656 39.238281 18.878906 39.320312 C 18.980469 39.332031 19.082031 39.347656 19.179688 39.359375 C 19.675781 39.425781 20.175781 39.421875 20.675781 39.417969 C 20.832031 39.417969 20.988281 39.417969 21.140625 39.417969 C 22.191406 39.421875 23.210938 39.34375 24.242188 39.148438 C 24.316406 39.132812 24.316406 39.132812 24.394531 39.121094 C 25.164062 38.976562 25.925781 38.820312 26.671875 38.570312 C 26.757812 38.539062 26.84375 38.511719 26.933594 38.480469 C 29.449219 37.605469 31.753906 36.214844 33.671875 34.371094 C 33.714844 34.324219 33.761719 34.28125 33.808594 34.234375 C 34.4375 33.628906 35.027344 33.015625 35.546875 32.3125 C 35.625 32.207031 35.707031 32.101562 35.789062 31.996094 C 36.875 30.605469 37.671875 29.015625 38.289062 27.371094 C 38.308594 27.324219 38.328125 27.277344 38.34375 27.226562 C 39.464844 24.296875 39.707031 21.007812 39.199219 17.921875 C 39.1875 17.832031 39.1875 17.832031 39.171875 17.738281 C 38.726562 15.003906 37.519531 12.390625 35.910156 10.148438 C 35.882812 10.109375 35.851562 10.070312 35.824219 10.027344 C 35.34375 9.367188 34.796875 8.777344 34.230469 8.191406 C 34.1875 8.148438 34.144531 8.101562 34.101562 8.058594 C 33.589844 7.527344 33.066406 7.035156 32.480469 6.578125 C 32.414062 6.527344 32.347656 6.472656 32.28125 6.417969 C 29.644531 4.304688 26.351562 3.113281 23.03125 2.660156 C 22.941406 2.648438 22.855469 2.636719 22.765625 2.621094 C 22.460938 2.585938 22.15625 2.578125 21.847656 2.578125 C 21.792969 2.578125 21.734375 2.578125 21.671875 2.578125 C 21.550781 2.578125 21.425781 2.578125 21.304688 2.578125 C 21.121094 2.578125 20.9375 2.574219 20.753906 2.574219 C 19.65625 2.570312 18.574219 2.652344 17.5 2.890625 Z M 17.5 2.890625 "/>
<path style=" stroke:none;fill-rule:nonzero;fill:rgb(99.607843%,98.823529%,99.215686%);fill-opacity:1;" d="M 19.25 18.269531 C 19.449219 18.347656 19.648438 18.429688 19.84375 18.519531 C 20.558594 18.8125 21.382812 18.765625 22.101562 18.519531 C 22.285156 18.472656 22.371094 18.460938 22.539062 18.550781 C 22.628906 18.734375 22.628906 18.734375 22.707031 18.96875 C 22.984375 19.746094 23.394531 20.261719 24.078125 20.71875 C 24.011719 20.894531 23.941406 21.066406 23.871094 21.238281 C 23.847656 21.296875 23.824219 21.351562 23.800781 21.410156 C 23.777344 21.46875 23.753906 21.523438 23.730469 21.582031 C 23.566406 22.019531 23.5 22.390625 23.511719 22.851562 C 23.511719 22.902344 23.511719 22.953125 23.511719 23.003906 C 23.515625 23.128906 23.515625 23.253906 23.519531 23.378906 C 23.464844 23.382812 23.40625 23.382812 23.351562 23.382812 C 22.429688 23.421875 21.738281 23.722656 21.070312 24.359375 C 21.011719 24.4375 21.011719 24.4375 20.953125 24.515625 C 20.921875 24.558594 20.890625 24.597656 20.859375 24.640625 C 20.8125 24.640625 20.769531 24.640625 20.71875 24.640625 C 20.664062 24.570312 20.605469 24.5 20.550781 24.425781 C 19.996094 23.761719 19.234375 23.511719 18.410156 23.378906 C 18.414062 23.269531 18.414062 23.269531 18.414062 23.15625 C 18.429688 22.179688 18.320312 21.4375 17.679688 20.648438 C 17.644531 20.605469 17.605469 20.558594 17.570312 20.511719 C 17.65625 20.25 17.730469 20.226562 17.960938 20.085938 C 18.636719 19.621094 18.976562 19.035156 19.25 18.269531 Z M 19.25 18.269531 "/>
<path style=" stroke:none;fill-rule:nonzero;fill:rgb(99.607843%,98.823529%,98.823529%);fill-opacity:1;" d="M 17.148438 14.769531 C 17.210938 14.785156 17.273438 14.800781 17.335938 14.816406 C 17.558594 14.890625 17.683594 14.949219 17.851562 15.121094 C 17.941406 15.46875 17.960938 15.8125 17.980469 16.171875 C 18.023438 16.761719 18.371094 17.421875 18.804688 17.8125 C 18.835938 17.839844 18.871094 17.867188 18.90625 17.894531 C 19.039062 18.058594 19.039062 18.058594 19.046875 18.195312 C 18.914062 18.972656 18.394531 19.5625 17.78125 20.019531 C 17.394531 20.238281 17.394531 20.238281 17.199219 20.195312 C 17.089844 20.132812 16.980469 20.070312 16.871094 20.007812 C 16.175781 19.597656 15.34375 19.464844 14.542969 19.632812 C 14.503906 19.644531 14.460938 19.65625 14.421875 19.664062 C 14.210938 19.671875 14.210938 19.671875 14.101562 19.589844 C 13.480469 18.925781 13.257812 18.078125 13.273438 17.191406 C 13.359375 16.359375 13.859375 15.683594 14.484375 15.15625 C 15.257812 14.585938 16.242188 14.453125 17.148438 14.769531 Z M 17.148438 14.769531 "/>
<path style=" stroke:none;fill-rule:nonzero;fill:rgb(99.607843%,98.823529%,99.215686%);fill-opacity:1;" d="M 22.8125 13.304688 C 23.367188 13.769531 23.796875 14.382812 23.914062 15.109375 C 23.910156 15.304688 23.890625 15.378906 23.757812 15.523438 C 23.660156 15.605469 23.5625 15.6875 23.460938 15.765625 C 22.984375 16.15625 22.648438 16.734375 22.582031 17.34375 C 22.578125 17.390625 22.574219 17.4375 22.570312 17.484375 C 22.519531 18.082031 22.519531 18.082031 22.34375 18.257812 C 22.199219 18.328125 22.066406 18.375 21.910156 18.410156 C 21.839844 18.433594 21.769531 18.457031 21.699219 18.480469 C 20.984375 18.546875 20.242188 18.550781 19.601562 18.199219 C 19.546875 18.171875 19.496094 18.144531 19.441406 18.117188 C 19.257812 17.921875 19.28125 17.710938 19.28125 17.457031 C 19.253906 16.703125 19.0625 15.964844 18.496094 15.421875 C 18.4375 15.371094 18.4375 15.371094 18.378906 15.320312 C 18.199219 15.121094 18.199219 15.121094 18.183594 14.859375 C 18.261719 14.484375 18.476562 14.171875 18.691406 13.859375 C 18.730469 13.796875 18.769531 13.734375 18.8125 13.671875 C 19.90625 12.546875 21.535156 12.394531 22.8125 13.304688 Z M 22.8125 13.304688 "/>
<path style=" stroke:none;fill-rule:nonzero;fill:rgb(99.607843%,98.823529%,98.823529%);fill-opacity:1;" d="M 23.660156 23.589844 C 23.671875 23.632812 23.6875 23.671875 23.699219 23.714844 C 23.964844 24.472656 24.445312 25.046875 25.136719 25.453125 C 25.421875 25.585938 25.707031 25.660156 26.015625 25.722656 C 26.179688 25.761719 26.179688 25.761719 26.25 25.828125 C 26.320312 26.816406 26.265625 27.589844 25.601562 28.375 C 24.953125 29.046875 24.242188 29.394531 23.304688 29.425781 C 22.398438 29.417969 21.734375 28.992188 21.097656 28.386719 C 20.960938 28.136719 21 27.988281 21.070312 27.71875 C 21.117188 27.625 21.164062 27.53125 21.210938 27.441406 C 21.359375 26.722656 21.410156 25.859375 21.054688 25.203125 C 20.980469 25.011719 21.011719 24.902344 21.070312 24.710938 C 21.4375 24.148438 22.070312 23.789062 22.710938 23.621094 C 23.027344 23.566406 23.339844 23.574219 23.660156 23.589844 Z M 23.660156 23.589844 "/>
<path style=" stroke:none;fill-rule:nonzero;fill:rgb(99.607843%,98.823529%,98.823529%);fill-opacity:1;" d="M 14.421875 20.089844 C 14.578125 20.167969 14.578125 20.167969 14.730469 20.261719 C 15.199219 20.542969 15.59375 20.601562 16.128906 20.59375 C 16.214844 20.59375 16.214844 20.59375 16.304688 20.59375 C 16.570312 20.589844 16.808594 20.578125 17.070312 20.53125 C 17.289062 20.511719 17.289062 20.511719 17.433594 20.597656 C 17.929688 21.21875 18.210938 21.851562 18.207031 22.648438 C 18.210938 22.703125 18.210938 22.757812 18.210938 22.816406 C 18.207031 23.222656 18.207031 23.222656 18.128906 23.378906 C 17.992188 23.40625 17.851562 23.421875 17.714844 23.4375 C 16.921875 23.550781 16.359375 23.910156 15.820312 24.5 C 15.578125 24.832031 15.371094 25.179688 15.191406 25.550781 C 14.4375 25.597656 13.882812 25.273438 13.304688 24.8125 C 12.757812 24.320312 12.433594 23.578125 12.375 22.847656 C 12.347656 22.023438 12.621094 21.328125 13.15625 20.703125 C 13.886719 19.9375 13.886719 19.9375 14.421875 20.089844 Z M 14.421875 20.089844 "/>
<path style=" stroke:none;fill-rule:nonzero;fill:rgb(99.607843%,98.823529%,99.215686%);fill-opacity:1;" d="M 26.859375 15.308594 C 27.566406 15.710938 28.132812 16.273438 28.429688 17.042969 C 28.617188 17.804688 28.578125 18.652344 28.1875 19.339844 C 28.105469 19.476562 28.019531 19.609375 27.929688 19.738281 C 27.699219 19.707031 27.46875 19.675781 27.242188 19.632812 C 26.332031 19.496094 25.546875 19.652344 24.78125 20.160156 C 24.703125 20.226562 24.628906 20.292969 24.550781 20.359375 C 24.359375 20.511719 24.359375 20.511719 24.191406 20.5 C 23.664062 20.328125 23.304688 19.824219 23.046875 19.355469 C 22.652344 18.546875 22.652344 18.546875 22.75 18.199219 C 22.863281 18.117188 22.980469 18.035156 23.097656 17.960938 C 23.371094 17.746094 23.546875 17.441406 23.730469 17.148438 C 23.785156 17.0625 23.785156 17.0625 23.84375 16.972656 C 23.933594 16.8125 23.980469 16.6875 24.019531 16.507812 C 24.03125 16.453125 24.042969 16.398438 24.054688 16.34375 C 24.082031 16.160156 24.09375 15.980469 24.101562 15.792969 C 24.128906 15.488281 24.128906 15.488281 24.308594 15.328125 C 24.371094 15.308594 24.433594 15.285156 24.5 15.261719 C 24.546875 15.234375 24.59375 15.210938 24.644531 15.1875 C 25.296875 14.972656 26.234375 15.03125 26.859375 15.308594 Z M 26.859375 15.308594 "/>
<path style=" stroke:none;fill-rule:nonzero;fill:rgb(99.607843%,98.823529%,98.823529%);fill-opacity:1;" d="M 18.269531 23.589844 C 19.167969 23.59375 19.796875 23.964844 20.449219 24.558594 C 20.582031 24.714844 20.636719 24.785156 20.648438 24.988281 C 20.597656 25.148438 20.597656 25.148438 20.519531 25.308594 C 20.144531 26.085938 20.242188 26.984375 20.511719 27.789062 C 20.554688 27.90625 20.601562 28.023438 20.648438 28.140625 C 20.089844 28.824219 19.503906 29.253906 18.621094 29.398438 C 17.691406 29.46875 16.976562 29.230469 16.242188 28.664062 C 15.753906 28.222656 15.476562 27.582031 15.328125 26.949219 C 15.320312 26.765625 15.316406 26.578125 15.320312 26.394531 C 15.320312 26.347656 15.324219 26.296875 15.324219 26.25 C 15.324219 26.132812 15.328125 26.015625 15.328125 25.898438 C 15.554688 25.824219 15.769531 25.753906 16.003906 25.707031 C 16.808594 25.507812 17.507812 25.058594 17.945312 24.355469 C 18.085938 24.109375 18.195312 23.867188 18.269531 23.589844 Z M 18.269531 23.589844 "/>
<path style=" stroke:none;fill-rule:nonzero;fill:rgb(99.607843%,98.823529%,98.823529%);fill-opacity:1;" d="M 27.859375 20.160156 C 28.316406 20.195312 28.597656 20.527344 28.890625 20.855469 C 29.414062 21.515625 29.609375 22.191406 29.539062 23.03125 C 29.375 23.835938 29.003906 24.546875 28.351562 25.058594 C 28.125 25.195312 27.890625 25.304688 27.648438 25.410156 C 27.582031 25.441406 27.515625 25.46875 27.449219 25.5 C 27.097656 25.578125 26.746094 25.558594 26.390625 25.550781 C 26.359375 25.488281 26.328125 25.425781 26.296875 25.363281 C 26.253906 25.28125 26.210938 25.199219 26.167969 25.117188 C 26.125 25.035156 26.085938 24.957031 26.042969 24.875 C 25.898438 24.636719 25.75 24.476562 25.550781 24.289062 C 25.511719 24.253906 25.472656 24.214844 25.433594 24.175781 C 24.960938 23.746094 24.421875 23.507812 23.800781 23.378906 C 23.59375 22.707031 23.695312 22.007812 23.984375 21.382812 C 24.074219 21.21875 24.171875 21.078125 24.289062 20.929688 C 24.746094 20.992188 24.746094 20.992188 24.949219 21.035156 C 25.789062 21.191406 26.636719 21.042969 27.347656 20.574219 C 27.53125 20.445312 27.699219 20.320312 27.859375 20.160156 Z M 27.859375 20.160156 "/>
<path style=" stroke:none;fill-rule:nonzero;fill:rgb(21.176471%,32.156864%,63.921571%);fill-opacity:1;" d="M 20.113281 9.929688 C 20.199219 9.929688 20.199219 9.929688 20.285156 9.925781 C 20.402344 9.925781 20.523438 9.925781 20.644531 9.925781 C 20.824219 9.925781 21.003906 9.925781 21.179688 9.925781 C 21.835938 9.921875 22.457031 9.949219 23.101562 10.078125 C 23.152344 10.089844 23.203125 10.101562 23.253906 10.109375 C 26.175781 10.71875 28.742188 12.492188 30.378906 14.980469 C 31.328125 16.480469 32.058594 18.285156 32.078125 20.078125 C 32.078125 20.132812 32.078125 20.183594 32.078125 20.238281 C 32.082031 20.40625 32.082031 20.578125 32.082031 20.746094 C 32.082031 20.804688 32.082031 20.863281 32.082031 20.921875 C 32.082031 21.902344 32.003906 22.839844 31.78125 23.800781 C 31.765625 23.871094 31.765625 23.871094 31.746094 23.949219 C 31.59375 24.617188 31.316406 25.222656 31.011719 25.828125 C 30.972656 25.902344 30.972656 25.902344 30.9375 25.980469 C 30.597656 26.65625 30.234375 27.273438 29.75 27.859375 C 29.71875 27.898438 29.6875 27.9375 29.65625 27.976562 C 28.382812 29.542969 26.6875 30.871094 24.746094 31.5 C 24.691406 31.519531 24.636719 31.535156 24.582031 31.554688 C 23.675781 31.84375 22.78125 32.066406 21.828125 32.078125 C 21.765625 32.078125 21.707031 32.078125 21.644531 32.078125 C 21.511719 32.078125 21.382812 32.082031 21.253906 32.082031 C 21.125 32.082031 20.996094 32.082031 20.863281 32.085938 C 18.261719 32.125 15.75 31.191406 13.789062 29.46875 C 13.699219 29.394531 13.699219 29.394531 13.609375 29.316406 C 12.261719 28.136719 11.359375 26.679688 10.640625 25.058594 C 10.605469 24.984375 10.570312 24.90625 10.53125 24.828125 C 10.40625 24.511719 10.328125 24.195312 10.25 23.867188 C 10.234375 23.804688 10.222656 23.746094 10.207031 23.683594 C 9.984375 22.746094 9.910156 21.828125 9.910156 20.867188 C 9.910156 20.8125 9.910156 20.757812 9.910156 20.699219 C 9.910156 18.074219 10.910156 15.59375 12.671875 13.648438 C 12.722656 13.589844 12.773438 13.53125 12.824219 13.46875 C 14.019531 12.074219 15.628906 11.078125 17.359375 10.5 C 17.449219 10.464844 17.539062 10.429688 17.628906 10.394531 C 17.933594 10.277344 18.242188 10.207031 18.5625 10.140625 C 18.617188 10.128906 18.671875 10.117188 18.730469 10.105469 C 18.878906 10.074219 19.03125 10.042969 19.179688 10.011719 C 19.230469 9.996094 19.285156 9.984375 19.335938 9.972656 C 19.597656 9.929688 19.851562 9.929688 20.113281 9.929688 Z M 19.039062 10.289062 C 18.972656 10.300781 18.972656 10.300781 18.90625 10.316406 C 17.214844 10.636719 15.613281 11.367188 14.28125 12.460938 C 14.242188 12.492188 14.203125 12.523438 14.160156 12.558594 C 11.992188 14.328125 10.542969 16.816406 10.191406 19.617188 C 10.171875 19.867188 10.15625 20.117188 10.148438 20.371094 C 10.148438 20.425781 10.144531 20.484375 10.144531 20.539062 C 10.074219 22.960938 10.699219 25.417969 12.179688 27.371094 C 12.242188 27.457031 12.242188 27.457031 12.308594 27.542969 C 14.109375 29.871094 16.648438 31.390625 19.566406 31.824219 C 22.476562 32.140625 25.417969 31.351562 27.730469 29.546875 C 27.84375 29.453125 27.957031 29.355469 28.070312 29.261719 C 28.136719 29.203125 28.203125 29.144531 28.273438 29.085938 C 30.105469 27.476562 31.253906 25.273438 31.710938 22.890625 C 31.722656 22.828125 31.734375 22.765625 31.746094 22.703125 C 32.105469 20.769531 31.84375 18.675781 31.078125 16.871094 C 31.058594 16.820312 31.039062 16.773438 31.019531 16.726562 C 30.363281 15.15625 29.3125 13.753906 28 12.671875 C 27.941406 12.621094 27.941406 12.621094 27.882812 12.574219 C 25.476562 10.582031 22.117188 9.6875 19.039062 10.289062 Z M 19.039062 10.289062 "/>
<path style=" stroke:none;fill-rule:nonzero;fill:rgb(93.333334%,20%,22.745098%);fill-opacity:1;" d="M 23.800781 15.679688 C 23.847656 15.679688 23.890625 15.679688 23.941406 15.679688 C 23.90625 16.070312 23.847656 16.425781 23.730469 16.800781 C 23.777344 16.777344 23.824219 16.753906 23.871094 16.730469 C 23.835938 17.070312 23.742188 17.269531 23.539062 17.542969 C 23.464844 17.640625 23.464844 17.640625 23.394531 17.738281 C 23.238281 17.921875 23.085938 18.0625 22.890625 18.199219 C 22.84375 18.199219 22.796875 18.199219 22.75 18.199219 C 22.933594 19.082031 23.257812 19.8125 23.988281 20.375 C 24.179688 20.453125 24.238281 20.4375 24.429688 20.371094 C 24.554688 20.285156 24.554688 20.285156 24.679688 20.175781 C 25.257812 19.730469 25.859375 19.519531 26.585938 19.527344 C 26.667969 19.527344 26.75 19.527344 26.832031 19.527344 C 26.894531 19.527344 26.957031 19.527344 27.019531 19.53125 C 27.019531 19.554688 27.019531 19.578125 27.019531 19.601562 C 26.960938 19.601562 26.898438 19.605469 26.839844 19.609375 C 26.761719 19.617188 26.683594 19.621094 26.605469 19.625 C 26.527344 19.632812 26.449219 19.636719 26.371094 19.640625 C 26.277344 19.65625 26.277344 19.65625 26.179688 19.671875 C 26.144531 19.738281 26.144531 19.738281 26.109375 19.808594 C 26.191406 19.808594 26.273438 19.808594 26.359375 19.804688 C 26.464844 19.804688 26.574219 19.800781 26.683594 19.800781 C 26.738281 19.800781 26.789062 19.800781 26.847656 19.796875 C 27.148438 19.796875 27.375 19.808594 27.648438 19.949219 C 27.539062 20.21875 27.363281 20.378906 27.160156 20.578125 C 27.125 20.683594 27.125 20.683594 27.089844 20.789062 C 26.496094 21.171875 25.644531 21.246094 24.964844 21.105469 C 24.917969 21.09375 24.867188 21.078125 24.820312 21.066406 C 24.511719 20.976562 24.511719 20.976562 24.21875 21.070312 C 24.101562 21.246094 24.015625 21.429688 23.941406 21.628906 C 23.914062 21.691406 23.890625 21.753906 23.863281 21.816406 C 23.777344 22.128906 23.785156 22.417969 23.792969 22.742188 C 23.792969 22.804688 23.792969 22.863281 23.792969 22.929688 C 23.792969 23.078125 23.796875 23.230469 23.800781 23.378906 C 23.847656 23.386719 23.890625 23.394531 23.9375 23.398438 C 24.621094 23.5 25.296875 23.839844 25.761719 24.359375 C 26.035156 24.738281 26.253906 25.097656 26.390625 25.550781 C 27.289062 25.53125 28.03125 25.308594 28.6875 24.675781 C 28.886719 24.445312 29.035156 24.203125 29.171875 23.929688 C 29.214844 23.867188 29.214844 23.867188 29.261719 23.800781 C 29.328125 23.800781 29.398438 23.800781 29.46875 23.800781 C 29.410156 24.359375 29.085938 24.769531 28.671875 25.140625 C 27.984375 25.640625 27.304688 25.84375 26.460938 25.828125 C 26.484375 25.875 26.507812 25.921875 26.53125 25.96875 C 26.59375 27.003906 26.421875 27.785156 25.753906 28.597656 C 25.144531 29.238281 24.5 29.585938 23.617188 29.636719 C 22.640625 29.660156 21.980469 29.472656 21.214844 28.835938 C 21.078125 28.707031 20.96875 28.574219 20.859375 28.421875 C 20.636719 28.472656 20.636719 28.472656 20.5 28.679688 C 20.277344 28.960938 19.984375 29.15625 19.671875 29.328125 C 19.625 29.328125 19.578125 29.328125 19.53125 29.328125 C 19.621094 29.039062 19.726562 28.910156 19.976562 28.734375 C 20.332031 28.484375 20.332031 28.484375 20.578125 28.140625 C 20.539062 27.917969 20.457031 27.71875 20.371094 27.511719 C 20.242188 27.128906 20.214844 26.777344 20.207031 26.375 C 20.207031 26.328125 20.207031 26.28125 20.203125 26.230469 C 20.203125 25.824219 20.320312 25.613281 20.585938 25.316406 C 20.71875 25.199219 20.71875 25.199219 20.859375 25.199219 C 21.175781 25.855469 21.167969 26.453125 21.140625 27.160156 C 21.1875 27.160156 21.230469 27.160156 21.28125 27.160156 C 21.226562 27.625 21.226562 27.625 21.070312 27.859375 C 21.027344 28.046875 21.039062 28.160156 21.140625 28.328125 C 21.542969 28.839844 22.179688 29.210938 22.820312 29.328125 C 23.746094 29.402344 24.546875 29.21875 25.296875 28.640625 C 25.648438 28.316406 25.855469 27.949219 26.039062 27.511719 C 26.066406 27.460938 26.09375 27.410156 26.117188 27.355469 C 26.210938 27.0625 26.195312 26.777344 26.1875 26.472656 C 26.1875 26.410156 26.1875 26.347656 26.1875 26.285156 C 26.183594 26.132812 26.183594 25.980469 26.179688 25.828125 C 26.101562 25.816406 26.101562 25.816406 26.023438 25.800781 C 25.171875 25.621094 24.519531 25.210938 24.011719 24.5 C 23.660156 23.910156 23.660156 23.910156 23.660156 23.589844 C 23.042969 23.640625 22.511719 23.691406 21.96875 24.007812 C 21.839844 24.078125 21.839844 24.078125 21.699219 24.078125 C 21.710938 23.917969 21.710938 23.917969 21.769531 23.730469 C 22.300781 23.359375 22.894531 23.335938 23.519531 23.378906 C 23.507812 23.328125 23.496094 23.277344 23.488281 23.226562 C 23.328125 22.375 23.558594 21.585938 24.011719 20.859375 C 24.011719 20.8125 24.011719 20.769531 24.011719 20.71875 C 23.902344 20.628906 23.902344 20.628906 23.761719 20.535156 C 23.09375 20.046875 22.640625 19.371094 22.46875 18.550781 C 22.355469 18.550781 22.238281 18.550781 22.121094 18.550781 C 22.121094 18.457031 22.121094 18.363281 22.121094 18.269531 C 22.164062 18.257812 22.210938 18.246094 22.253906 18.230469 C 22.425781 18.136719 22.425781 18.136719 22.449219 17.910156 C 22.457031 17.820312 22.460938 17.726562 22.46875 17.636719 C 22.515625 17.207031 22.574219 16.8125 22.820312 16.449219 C 22.980469 16.332031 22.980469 16.332031 23.171875 16.238281 C 23.390625 16.066406 23.601562 15.878906 23.800781 15.679688 Z M 23.800781 15.679688 "/>
<path style=" stroke:none;fill-rule:nonzero;fill:rgb(14.509805%,26.666668%,60.784316%);fill-opacity:1;" d="M 23.800781 4.058594 C 24.210938 4.136719 24.609375 4.246094 25.011719 4.355469 C 25.105469 4.378906 25.199219 4.402344 25.289062 4.429688 C 26.445312 4.726562 26.445312 4.726562 26.875 5.183594 C 27.042969 5.492188 27.0625 5.816406 27.019531 6.160156 C 26.878906 6.613281 26.648438 7.027344 26.253906 7.304688 C 26.0625 7.363281 25.890625 7.359375 25.691406 7.351562 C 25.742188 7.40625 25.796875 7.464844 25.851562 7.523438 C 26.277344 8.121094 26.28125 9.09375 26.320312 9.800781 C 25.96875 9.730469 25.617188 9.660156 25.265625 9.585938 C 25.1875 9.570312 25.1875 9.570312 25.109375 9.550781 C 24.988281 9.519531 24.988281 9.519531 24.921875 9.449219 C 24.894531 9.28125 24.875 9.109375 24.855469 8.9375 C 24.84375 8.835938 24.828125 8.734375 24.816406 8.632812 C 24.8125 8.582031 24.804688 8.53125 24.796875 8.476562 C 24.773438 8.269531 24.746094 8.0625 24.714844 7.851562 C 24.699219 7.753906 24.699219 7.753906 24.6875 7.65625 C 24.632812 7.46875 24.582031 7.398438 24.429688 7.28125 C 24.324219 7.246094 24.324219 7.246094 24.21875 7.210938 C 24.203125 7.289062 24.183594 7.367188 24.167969 7.445312 C 24.039062 8.003906 23.90625 8.554688 23.730469 9.101562 C 23.304688 9.0625 22.9375 8.964844 22.539062 8.820312 C 22.585938 8.429688 22.675781 8.074219 22.789062 7.699219 C 23.007812 6.953125 23.203125 6.199219 23.394531 5.441406 C 23.511719 4.972656 23.640625 4.515625 23.800781 4.058594 Z M 23.800781 4.058594 "/>
<path style=" stroke:none;fill-rule:nonzero;fill:rgb(14.509805%,26.274511%,60.784316%);fill-opacity:1;" d="M 19.390625 3.921875 C 19.519531 4.519531 19.648438 5.117188 19.773438 5.71875 C 19.800781 5.828125 19.824219 5.941406 19.847656 6.050781 C 19.925781 6.414062 20 6.777344 20.078125 7.140625 C 20.105469 7.257812 20.128906 7.378906 20.15625 7.5 C 20.191406 7.667969 20.226562 7.835938 20.261719 8.007812 C 20.277344 8.082031 20.277344 8.082031 20.296875 8.160156 C 20.335938 8.363281 20.371094 8.542969 20.371094 8.75 C 20.238281 8.773438 20.105469 8.796875 19.972656 8.820312 C 19.898438 8.832031 19.824219 8.847656 19.746094 8.859375 C 19.347656 8.914062 19.347656 8.914062 19.179688 8.890625 C 19.015625 8.75 19.015625 8.75 18.847656 8.554688 C 18.816406 8.519531 18.789062 8.484375 18.757812 8.449219 C 18.503906 8.15625 18.257812 7.855469 18.019531 7.554688 C 17.78125 7.269531 17.535156 6.996094 17.289062 6.71875 C 17.3125 6.828125 17.3125 6.828125 17.335938 6.9375 C 17.390625 7.199219 17.445312 7.464844 17.5 7.730469 C 17.523438 7.84375 17.546875 7.957031 17.570312 8.074219 C 17.605469 8.238281 17.640625 8.402344 17.671875 8.566406 C 17.683594 8.617188 17.695312 8.667969 17.707031 8.722656 C 17.78125 9.085938 17.78125 9.085938 17.78125 9.238281 C 17.632812 9.273438 17.488281 9.308594 17.34375 9.34375 C 17.261719 9.363281 17.179688 9.382812 17.097656 9.402344 C 16.871094 9.449219 16.871094 9.449219 16.589844 9.449219 C 16.574219 9.359375 16.554688 9.273438 16.535156 9.179688 C 16.46875 8.84375 16.402344 8.507812 16.335938 8.171875 C 16.308594 8.027344 16.277344 7.886719 16.25 7.742188 C 16.207031 7.53125 16.167969 7.320312 16.125 7.113281 C 16.113281 7.042969 16.097656 6.972656 16.082031 6.902344 C 15.984375 6.414062 15.878906 5.925781 15.761719 5.441406 C 15.699219 5.160156 15.667969 4.90625 15.679688 4.621094 C 15.8125 4.585938 15.949219 4.550781 16.082031 4.515625 C 16.15625 4.496094 16.230469 4.476562 16.308594 4.457031 C 16.519531 4.410156 16.519531 4.410156 16.800781 4.410156 C 16.941406 4.550781 16.941406 4.550781 17.089844 4.746094 C 17.359375 5.09375 17.644531 5.417969 17.945312 5.742188 C 18.207031 6.03125 18.445312 6.34375 18.691406 6.648438 C 18.632812 6.351562 18.578125 6.054688 18.519531 5.757812 C 18.503906 5.671875 18.488281 5.589844 18.46875 5.5 C 18.453125 5.421875 18.4375 5.339844 18.421875 5.253906 C 18.410156 5.179688 18.394531 5.105469 18.378906 5.027344 C 18.355469 4.910156 18.332031 4.796875 18.300781 4.679688 C 18.253906 4.472656 18.265625 4.269531 18.269531 4.058594 C 18.363281 4.035156 18.460938 4.011719 18.554688 3.988281 C 18.605469 3.976562 18.660156 3.964844 18.714844 3.949219 C 18.941406 3.914062 19.160156 3.914062 19.390625 3.921875 Z M 19.390625 3.921875 "/>
<path style=" stroke:none;fill-rule:nonzero;fill:rgb(14.117648%,25.882354%,60.784316%);fill-opacity:1;" d="M 31.421875 7.355469 C 31.753906 7.503906 32 7.75 32.199219 8.050781 C 32.230469 8.328125 32.148438 8.558594 32.058594 8.820312 C 32.015625 8.988281 31.972656 9.15625 31.929688 9.324219 C 31.90625 9.410156 31.878906 9.5 31.855469 9.589844 C 31.773438 9.890625 31.699219 10.191406 31.621094 10.496094 C 31.609375 10.546875 31.597656 10.59375 31.585938 10.644531 C 31.558594 10.761719 31.527344 10.875 31.5 10.988281 C 31.574219 10.910156 31.574219 10.910156 31.648438 10.824219 C 31.996094 10.445312 32.34375 10.074219 32.710938 9.714844 C 32.878906 9.539062 33.03125 9.359375 33.179688 9.171875 C 33.46875 9.207031 33.597656 9.355469 33.792969 9.558594 C 33.847656 9.617188 33.90625 9.675781 33.960938 9.734375 C 34.003906 9.78125 34.046875 9.824219 34.089844 9.871094 C 33.980469 10.144531 33.796875 10.3125 33.585938 10.515625 C 33.359375 10.738281 33.140625 10.960938 32.933594 11.199219 C 32.707031 11.46875 32.457031 11.714844 32.203125 11.964844 C 31.972656 12.195312 31.753906 12.433594 31.542969 12.679688 C 31.382812 12.863281 31.210938 13.03125 31.035156 13.199219 C 30.933594 13.296875 30.933594 13.296875 30.871094 13.441406 C 30.597656 13.398438 30.453125 13.277344 30.253906 13.09375 C 30.195312 13.042969 30.140625 12.996094 30.082031 12.945312 C 29.84375 12.542969 30.011719 12.089844 30.121094 11.660156 C 30.15625 11.53125 30.195312 11.398438 30.230469 11.269531 C 30.25 11.207031 30.265625 11.140625 30.285156 11.074219 C 30.40625 10.648438 30.53125 10.222656 30.660156 9.800781 C 30.589844 9.871094 30.589844 9.871094 30.515625 9.945312 C 30.371094 10.089844 30.222656 10.234375 30.078125 10.382812 C 29.992188 10.464844 29.910156 10.546875 29.824219 10.632812 C 29.761719 10.691406 29.761719 10.691406 29.699219 10.753906 C 29.421875 11.03125 29.160156 11.320312 28.910156 11.621094 C 28.667969 11.507812 28.496094 11.371094 28.296875 11.191406 C 28.242188 11.140625 28.1875 11.089844 28.128906 11.039062 C 28.085938 11 28.042969 10.960938 28 10.921875 C 28.09375 10.714844 28.191406 10.574219 28.351562 10.417969 C 28.390625 10.378906 28.433594 10.335938 28.476562 10.296875 C 28.519531 10.253906 28.5625 10.210938 28.609375 10.167969 C 28.914062 9.867188 29.210938 9.5625 29.492188 9.234375 C 29.695312 9.003906 29.921875 8.789062 30.140625 8.570312 C 30.289062 8.421875 30.429688 8.265625 30.566406 8.105469 C 30.730469 7.921875 30.890625 7.734375 31.058594 7.554688 C 31.097656 7.515625 31.132812 7.472656 31.171875 7.429688 C 31.289062 7.351562 31.289062 7.351562 31.421875 7.355469 Z M 31.421875 7.355469 "/>
<path style=" stroke:none;fill-rule:nonzero;fill:rgb(14.901961%,27.058825%,61.56863%);fill-opacity:1;" d="M 16.941406 33.179688 C 17.507812 33.21875 18.0625 33.289062 18.621094 33.390625 C 18.707031 34.230469 18.785156 35.0625 18.761719 35.910156 C 18.804688 35.910156 18.851562 35.910156 18.898438 35.910156 C 18.910156 35.820312 18.910156 35.820312 18.925781 35.726562 C 18.972656 35.480469 19.046875 35.269531 19.144531 35.035156 C 19.179688 34.953125 19.214844 34.867188 19.25 34.78125 C 19.285156 34.695312 19.324219 34.605469 19.359375 34.519531 C 19.394531 34.429688 19.433594 34.339844 19.46875 34.25 C 19.558594 34.035156 19.648438 33.816406 19.738281 33.601562 C 19.882812 33.609375 20.027344 33.621094 20.167969 33.628906 C 20.289062 33.640625 20.289062 33.640625 20.410156 33.648438 C 20.730469 33.675781 21.039062 33.738281 21.351562 33.808594 C 21.34375 33.945312 21.332031 34.085938 21.324219 34.222656 C 21.320312 34.296875 21.3125 34.375 21.308594 34.453125 C 21.285156 34.65625 21.257812 34.847656 21.214844 35.050781 C 21.128906 35.449219 21.085938 35.847656 21.039062 36.25 C 20.972656 36.832031 20.882812 37.378906 20.71875 37.941406 C 20.417969 37.917969 20.121094 37.894531 19.808594 37.871094 C 19.789062 37.394531 19.839844 36.964844 19.933594 36.5 C 20.042969 35.957031 20.101562 35.410156 20.160156 34.859375 C 20.136719 34.921875 20.113281 34.984375 20.085938 35.046875 C 19.996094 35.28125 19.90625 35.515625 19.816406 35.75 C 19.777344 35.847656 19.738281 35.949219 19.699219 36.050781 C 19.484375 36.613281 19.265625 37.171875 19.039062 37.730469 C 18.738281 37.707031 18.4375 37.683594 18.128906 37.660156 C 18.039062 37 17.960938 36.339844 17.898438 35.671875 C 17.894531 35.617188 17.886719 35.558594 17.882812 35.5 C 17.875 35.421875 17.875 35.421875 17.867188 35.34375 C 17.851562 35.195312 17.851562 35.195312 17.78125 35 C 17.625 35.8125 17.511719 36.625 17.429688 37.449219 C 16.828125 37.453125 16.828125 37.453125 16.589844 37.414062 C 16.519531 37.402344 16.453125 37.390625 16.378906 37.378906 C 16.390625 37.308594 16.398438 37.242188 16.40625 37.167969 C 16.441406 36.878906 16.476562 36.589844 16.511719 36.300781 C 16.53125 36.152344 16.550781 36.007812 16.566406 35.859375 C 16.578125 35.757812 16.589844 35.660156 16.605469 35.558594 C 16.664062 35.042969 16.730469 34.53125 16.839844 34.019531 C 16.878906 33.84375 16.898438 33.667969 16.914062 33.484375 C 16.917969 33.425781 16.925781 33.367188 16.929688 33.308594 C 16.933594 33.265625 16.9375 33.222656 16.941406 33.179688 Z M 16.941406 33.179688 "/>
<path style=" stroke:none;fill-rule:nonzero;fill:rgb(14.509805%,26.274511%,60.784316%);fill-opacity:1;" d="M 35.429688 12.207031 C 36.003906 12.59375 36.378906 13.144531 36.609375 13.789062 C 36.675781 14.191406 36.703125 14.574219 36.523438 14.949219 C 36.347656 15.191406 36.152344 15.363281 35.910156 15.539062 C 35.789062 15.40625 35.671875 15.273438 35.554688 15.136719 C 35.523438 15.101562 35.488281 15.0625 35.453125 15.023438 C 35.207031 14.738281 35.207031 14.738281 35.21875 14.542969 C 35.238281 14.5 35.257812 14.460938 35.28125 14.421875 C 35.390625 14.199219 35.375 14.03125 35.351562 13.789062 C 35.199219 13.605469 35.074219 13.476562 34.859375 13.371094 C 34.191406 13.3125 33.636719 13.605469 33.109375 14 C 32.925781 14.15625 32.785156 14.3125 32.730469 14.554688 C 32.707031 14.910156 32.808594 15.125 33.039062 15.398438 C 33.308594 15.578125 33.429688 15.527344 33.738281 15.46875 C 33.71875 15.40625 33.695312 15.347656 33.675781 15.28125 C 33.613281 15.085938 33.566406 14.902344 33.53125 14.699219 C 33.65625 14.628906 33.78125 14.558594 33.90625 14.488281 C 33.976562 14.449219 34.046875 14.410156 34.117188 14.371094 C 34.300781 14.28125 34.300781 14.28125 34.441406 14.28125 C 34.570312 14.53125 34.695312 14.785156 34.824219 15.035156 C 34.863281 15.109375 34.898438 15.179688 34.9375 15.253906 C 34.972656 15.324219 35.003906 15.390625 35.042969 15.460938 C 35.074219 15.527344 35.105469 15.589844 35.140625 15.65625 C 35.210938 15.820312 35.210938 15.820312 35.210938 16.03125 C 34.390625 16.441406 34.390625 16.441406 34.242188 16.515625 C 34.136719 16.566406 34.039062 16.617188 33.9375 16.671875 C 33.886719 16.695312 33.839844 16.722656 33.789062 16.75 C 33.742188 16.769531 33.699219 16.792969 33.65625 16.816406 C 33.421875 16.914062 33.273438 16.875 33.039062 16.800781 C 32.324219 16.429688 31.875 15.859375 31.570312 15.121094 C 31.425781 14.628906 31.480469 14.21875 31.683594 13.757812 C 32.121094 12.953125 32.925781 12.472656 33.769531 12.171875 C 34.3125 12.039062 34.90625 11.976562 35.429688 12.207031 Z M 35.429688 12.207031 "/>
<path style=" stroke:none;fill-rule:nonzero;fill:rgb(14.509805%,26.274511%,60.784316%);fill-opacity:1;" d="M 6.089844 12.390625 C 6.367188 12.433594 6.597656 12.484375 6.851562 12.605469 C 6.90625 12.628906 6.960938 12.65625 7.015625 12.679688 C 7.078125 12.710938 7.078125 12.710938 7.140625 12.738281 C 7.042969 12.988281 6.941406 13.230469 6.832031 13.476562 C 6.800781 13.546875 6.769531 13.621094 6.738281 13.691406 C 6.707031 13.765625 6.675781 13.839844 6.640625 13.917969 C 6.609375 13.992188 6.574219 14.066406 6.542969 14.144531 C 6.460938 14.328125 6.378906 14.515625 6.300781 14.699219 C 6.554688 14.792969 6.726562 14.839844 7 14.839844 C 7.230469 14.332031 7.460938 13.824219 7.699219 13.300781 C 7.992188 13.300781 8.097656 13.34375 8.347656 13.476562 C 8.410156 13.507812 8.472656 13.539062 8.535156 13.574219 C 8.585938 13.597656 8.632812 13.625 8.679688 13.648438 C 8.660156 13.691406 8.640625 13.734375 8.625 13.78125 C 8.539062 13.976562 8.453125 14.171875 8.371094 14.367188 C 8.339844 14.433594 8.308594 14.503906 8.28125 14.574219 C 8.25 14.636719 8.222656 14.703125 8.195312 14.769531 C 8.167969 14.832031 8.144531 14.890625 8.117188 14.953125 C 8.039062 15.136719 8.039062 15.136719 7.980469 15.398438 C 8.257812 15.515625 8.535156 15.632812 8.820312 15.75 C 8.84375 15.632812 8.867188 15.519531 8.890625 15.398438 C 8.941406 15.28125 8.992188 15.160156 9.050781 15.042969 C 9.082031 14.980469 9.113281 14.914062 9.144531 14.847656 C 9.179688 14.78125 9.210938 14.710938 9.246094 14.644531 C 9.277344 14.574219 9.308594 14.507812 9.34375 14.433594 C 9.425781 14.265625 9.507812 14.097656 9.589844 13.929688 C 9.867188 13.96875 10.097656 14.027344 10.351562 14.144531 C 10.40625 14.167969 10.460938 14.195312 10.515625 14.222656 C 10.558594 14.242188 10.597656 14.261719 10.640625 14.28125 C 10.574219 14.574219 10.449219 14.835938 10.324219 15.109375 C 10.296875 15.164062 10.273438 15.21875 10.25 15.273438 C 10.171875 15.441406 10.09375 15.609375 10.015625 15.78125 C 9.9375 15.949219 9.859375 16.117188 9.78125 16.289062 C 9.730469 16.394531 9.683594 16.5 9.636719 16.605469 C 9.519531 16.855469 9.410156 17.101562 9.308594 17.359375 C 9.011719 17.316406 8.769531 17.210938 8.496094 17.082031 C 8.449219 17.058594 8.40625 17.039062 8.359375 17.015625 C 8.214844 16.949219 8.070312 16.878906 7.921875 16.808594 C 7.722656 16.714844 7.519531 16.617188 7.316406 16.523438 C 7.242188 16.484375 7.242188 16.484375 7.164062 16.449219 C 6.625 16.195312 6.085938 15.949219 5.542969 15.703125 C 5.480469 15.675781 5.414062 15.644531 5.347656 15.613281 C 5.292969 15.589844 5.238281 15.566406 5.183594 15.539062 C 5.039062 15.46875 5.039062 15.46875 4.828125 15.328125 C 5.019531 14.695312 5.300781 14.105469 5.578125 13.503906 C 5.628906 13.398438 5.675781 13.289062 5.726562 13.179688 C 5.847656 12.917969 5.96875 12.652344 6.089844 12.390625 Z M 6.089844 12.390625 "/>
<path style=" stroke:none;fill-rule:nonzero;fill:rgb(14.117648%,26.274511%,60.784316%);fill-opacity:1;" d="M 14 5.460938 C 14.097656 5.59375 14.097656 5.59375 14.191406 5.761719 C 14.222656 5.816406 14.253906 5.871094 14.289062 5.925781 C 14.363281 6.121094 14.359375 6.179688 14.28125 6.371094 C 14.128906 6.484375 14.128906 6.484375 13.9375 6.597656 C 13.867188 6.636719 13.796875 6.675781 13.726562 6.71875 C 13.652344 6.757812 13.582031 6.800781 13.503906 6.84375 C 13.433594 6.882812 13.359375 6.925781 13.285156 6.96875 C 13.101562 7.074219 12.921875 7.175781 12.738281 7.28125 C 12.816406 7.550781 12.882812 7.71875 13.089844 7.910156 C 13.132812 7.882812 13.175781 7.859375 13.21875 7.832031 C 13.414062 7.714844 13.613281 7.597656 13.808594 7.480469 C 13.875 7.441406 13.941406 7.398438 14.011719 7.355469 C 14.078125 7.316406 14.144531 7.28125 14.210938 7.238281 C 14.269531 7.203125 14.332031 7.167969 14.394531 7.132812 C 14.558594 7.070312 14.558594 7.070312 14.714844 7.121094 C 14.9375 7.277344 15.007812 7.457031 15.121094 7.699219 C 15.105469 7.847656 15.105469 7.847656 15.050781 7.980469 C 14.882812 8.097656 14.722656 8.199219 14.542969 8.300781 C 14.496094 8.328125 14.449219 8.351562 14.402344 8.382812 C 14.308594 8.433594 14.21875 8.484375 14.125 8.539062 C 13.964844 8.628906 13.808594 8.722656 13.648438 8.820312 C 13.695312 9.113281 13.851562 9.339844 14 9.589844 C 14.238281 9.5 14.449219 9.398438 14.664062 9.265625 C 14.722656 9.230469 14.78125 9.195312 14.839844 9.160156 C 14.960938 9.085938 15.078125 9.015625 15.199219 8.941406 C 15.257812 8.90625 15.316406 8.871094 15.375 8.835938 C 15.425781 8.804688 15.476562 8.773438 15.53125 8.742188 C 15.679688 8.679688 15.679688 8.679688 15.832031 8.695312 C 16.027344 8.777344 16.082031 8.910156 16.1875 9.089844 C 16.222656 9.152344 16.261719 9.214844 16.296875 9.277344 C 16.378906 9.449219 16.378906 9.449219 16.378906 9.660156 C 16.335938 9.683594 16.289062 9.707031 16.246094 9.734375 C 15.671875 10.042969 15.113281 10.367188 14.550781 10.695312 C 14.433594 10.761719 14.3125 10.832031 14.195312 10.902344 C 14.125 10.941406 14.054688 10.984375 13.984375 11.023438 C 13.804688 11.121094 13.628906 11.199219 13.441406 11.269531 C 13.421875 11.238281 13.402344 11.203125 13.386719 11.167969 C 12.992188 10.441406 12.585938 9.722656 12.171875 9.007812 C 12.109375 8.902344 12.109375 8.902344 12.046875 8.792969 C 11.863281 8.480469 11.675781 8.167969 11.484375 7.859375 C 11.457031 7.808594 11.425781 7.761719 11.394531 7.710938 C 11.339844 7.621094 11.285156 7.535156 11.226562 7.445312 C 11.15625 7.332031 11.15625 7.332031 11.058594 7.140625 C 11.152344 6.863281 11.253906 6.839844 11.503906 6.695312 C 11.582031 6.652344 11.660156 6.609375 11.742188 6.5625 C 11.824219 6.515625 11.910156 6.46875 11.992188 6.421875 C 12.152344 6.332031 12.3125 6.242188 12.472656 6.148438 C 12.550781 6.105469 12.628906 6.0625 12.710938 6.015625 C 12.871094 5.925781 13.03125 5.832031 13.191406 5.734375 C 13.265625 5.6875 13.339844 5.644531 13.417969 5.597656 C 13.484375 5.554688 13.550781 5.515625 13.621094 5.472656 C 13.789062 5.390625 13.789062 5.390625 14 5.460938 Z M 14 5.460938 "/>
<path style=" stroke:none;fill-rule:nonzero;fill:rgb(14.117648%,26.274511%,61.176473%);fill-opacity:1;" d="M 28.421875 31.359375 C 28.742188 31.621094 28.882812 31.976562 29.058594 32.34375 C 29.125 32.484375 29.195312 32.621094 29.261719 32.761719 C 29.3125 32.863281 29.3125 32.863281 29.367188 32.972656 C 29.550781 33.34375 29.746094 33.710938 29.941406 34.078125 C 29.996094 34.175781 30.046875 34.277344 30.097656 34.375 C 30.164062 34.5 30.230469 34.621094 30.292969 34.742188 C 30.378906 34.929688 30.378906 34.929688 30.378906 35.140625 C 30.261719 35.214844 30.144531 35.285156 30.027344 35.355469 C 29.960938 35.394531 29.894531 35.433594 29.828125 35.476562 C 29.558594 35.582031 29.386719 35.585938 29.121094 35.488281 C 28.828125 35.34375 28.546875 35.175781 28.265625 35.003906 C 28.117188 34.914062 27.96875 34.824219 27.816406 34.734375 C 27.71875 34.675781 27.71875 34.675781 27.617188 34.613281 C 27.46875 34.527344 27.316406 34.445312 27.160156 34.371094 C 27.1875 34.421875 27.214844 34.472656 27.242188 34.527344 C 27.34375 34.71875 27.449219 34.914062 27.546875 35.105469 C 27.59375 35.191406 27.636719 35.273438 27.679688 35.355469 C 27.746094 35.476562 27.808594 35.597656 27.871094 35.714844 C 27.910156 35.789062 27.945312 35.859375 27.988281 35.933594 C 28.070312 36.121094 28.070312 36.121094 28.070312 36.328125 C 27.949219 36.402344 27.824219 36.472656 27.703125 36.542969 C 27.632812 36.585938 27.566406 36.625 27.496094 36.664062 C 27.300781 36.75 27.300781 36.75 27.160156 36.738281 C 26.96875 36.65625 26.933594 36.566406 26.839844 36.382812 C 26.808594 36.320312 26.777344 36.253906 26.742188 36.191406 C 26.707031 36.121094 26.675781 36.050781 26.640625 35.980469 C 26.566406 35.832031 26.492188 35.6875 26.417969 35.542969 C 26.378906 35.464844 26.339844 35.386719 26.300781 35.308594 C 26.179688 35.066406 26.050781 34.824219 25.925781 34.582031 C 25.882812 34.503906 25.84375 34.425781 25.800781 34.34375 C 25.71875 34.191406 25.636719 34.039062 25.558594 33.886719 C 25.519531 33.816406 25.484375 33.746094 25.445312 33.671875 C 25.414062 33.613281 25.382812 33.550781 25.347656 33.488281 C 25.277344 33.335938 25.234375 33.203125 25.199219 33.039062 C 25.34375 32.953125 25.488281 32.871094 25.632812 32.785156 C 25.695312 32.75 25.695312 32.75 25.753906 32.710938 C 25.875 32.644531 25.875 32.644531 26.109375 32.550781 C 26.378906 32.632812 26.609375 32.769531 26.847656 32.910156 C 26.960938 32.976562 26.960938 32.976562 27.070312 33.039062 C 27.144531 33.085938 27.222656 33.128906 27.300781 33.175781 C 27.375 33.21875 27.453125 33.265625 27.527344 33.308594 C 27.851562 33.5 28.171875 33.6875 28.488281 33.878906 C 28.460938 33.824219 28.429688 33.769531 28.398438 33.710938 C 28.289062 33.5 28.175781 33.292969 28.066406 33.085938 C 28.019531 32.992188 27.972656 32.902344 27.921875 32.8125 C 27.855469 32.683594 27.785156 32.554688 27.71875 32.425781 C 27.675781 32.347656 27.632812 32.269531 27.59375 32.1875 C 27.511719 31.988281 27.511719 31.988281 27.578125 31.78125 C 27.769531 31.667969 27.769531 31.667969 28.003906 31.558594 C 28.082031 31.519531 28.160156 31.484375 28.238281 31.445312 C 28.296875 31.417969 28.359375 31.390625 28.421875 31.359375 Z M 28.421875 31.359375 "/>
<path style=" stroke:none;fill-rule:nonzero;fill:rgb(14.509805%,26.274511%,60.784316%);fill-opacity:1;" d="M 37.132812 17.007812 C 37.597656 17.285156 37.832031 17.625 37.972656 18.144531 C 38.070312 18.652344 38.09375 19.164062 37.824219 19.621094 C 37.59375 19.914062 37.332031 20.089844 36.964844 20.148438 C 36.894531 20.152344 36.824219 20.15625 36.75 20.160156 C 36.714844 20.039062 36.679688 19.917969 36.644531 19.796875 C 36.625 19.730469 36.605469 19.660156 36.585938 19.59375 C 36.542969 19.398438 36.519531 19.238281 36.539062 19.039062 C 36.710938 18.917969 36.710938 18.917969 36.890625 18.828125 C 36.972656 18.761719 36.972656 18.761719 36.96875 18.632812 C 36.96875 18.558594 36.96875 18.558594 36.96875 18.480469 C 36.96875 18.429688 36.96875 18.378906 36.96875 18.328125 C 36.972656 18.199219 36.972656 18.199219 36.890625 18.128906 C 36.75 18.128906 36.609375 18.128906 36.46875 18.128906 C 36.34375 18.394531 36.300781 18.644531 36.265625 18.929688 C 36.179688 19.5625 36.070312 19.988281 35.570312 20.410156 C 35.125 20.707031 34.675781 20.691406 34.160156 20.648438 C 33.6875 20.542969 33.371094 20.199219 33.109375 19.808594 C 32.914062 19.273438 32.765625 18.617188 32.945312 18.058594 C 33.152344 17.648438 33.519531 17.347656 33.929688 17.15625 C 34.160156 17.078125 34.21875 17.082031 34.441406 17.148438 C 34.464844 17.257812 34.488281 17.367188 34.511719 17.476562 C 34.523438 17.539062 34.535156 17.601562 34.550781 17.664062 C 34.582031 17.851562 34.605469 18.007812 34.578125 18.199219 C 34.457031 18.304688 34.457031 18.304688 34.300781 18.390625 C 34.078125 18.542969 34.078125 18.542969 33.976562 18.78125 C 33.976562 18.945312 33.980469 19.089844 34.019531 19.25 C 34.15625 19.417969 34.15625 19.417969 34.40625 19.402344 C 34.640625 19.40625 34.640625 19.40625 34.789062 19.320312 C 34.925781 19.050781 34.957031 18.792969 34.992188 18.492188 C 35.078125 17.863281 35.230469 17.492188 35.722656 17.089844 C 36.101562 16.835938 36.722656 16.851562 37.132812 17.007812 Z M 37.132812 17.007812 "/>
<path style=" stroke:none;fill-rule:nonzero;fill:rgb(14.509805%,26.274511%,60.784316%);fill-opacity:1;" d="M 5.257812 17.285156 C 5.371094 17.285156 5.484375 17.289062 5.601562 17.289062 C 5.601562 17.660156 5.601562 18.027344 5.601562 18.410156 C 5.4375 18.457031 5.277344 18.503906 5.109375 18.550781 C 4.957031 18.671875 4.957031 18.671875 4.953125 18.824219 C 4.933594 19.09375 4.933594 19.09375 5.039062 19.320312 C 5.15625 19.324219 5.273438 19.324219 5.390625 19.320312 C 5.40625 19.28125 5.425781 19.246094 5.445312 19.207031 C 6.128906 17.792969 6.128906 17.792969 6.71875 17.429688 C 7.167969 17.28125 7.691406 17.304688 8.125 17.492188 C 8.546875 17.738281 8.847656 18.027344 9.03125 18.480469 C 9.113281 19.167969 9.003906 19.769531 8.710938 20.390625 C 8.421875 20.710938 8.035156 20.867188 7.628906 21 C 7.53125 21.003906 7.433594 21.007812 7.335938 21.003906 C 7.25 21.003906 7.160156 21 7.070312 21 C 7.0625 20.59375 7.082031 20.210938 7.140625 19.808594 C 7.214844 19.789062 7.289062 19.769531 7.367188 19.75 C 7.652344 19.667969 7.652344 19.667969 7.910156 19.53125 C 7.992188 19.28125 8 19.089844 7.980469 18.828125 C 7.734375 18.667969 7.636719 18.65625 7.351562 18.691406 C 7.054688 18.929688 6.921875 19.246094 6.769531 19.585938 C 6.558594 20.039062 6.265625 20.320312 5.816406 20.527344 C 5.425781 20.664062 5.058594 20.597656 4.683594 20.445312 C 4.359375 20.265625 4.136719 20.007812 3.988281 19.671875 C 3.960938 19.453125 3.964844 19.238281 3.964844 19.023438 C 3.960938 18.964844 3.960938 18.90625 3.957031 18.847656 C 3.957031 18.363281 4.074219 18 4.398438 17.636719 C 4.441406 17.605469 4.480469 17.570312 4.523438 17.539062 C 4.566406 17.507812 4.605469 17.472656 4.648438 17.4375 C 4.863281 17.289062 5 17.28125 5.257812 17.285156 Z M 5.257812 17.285156 "/>
<path style=" stroke:none;fill-rule:nonzero;fill:rgb(14.509805%,26.274511%,60.784316%);fill-opacity:1;" d="M 9.730469 7.980469 C 10.015625 8.085938 10.109375 8.25 10.253906 8.507812 C 10.277344 8.546875 10.300781 8.589844 10.324219 8.628906 C 10.398438 8.757812 10.472656 8.890625 10.546875 9.019531 C 10.652344 9.207031 10.757812 9.390625 10.867188 9.574219 C 10.894531 9.621094 10.917969 9.667969 10.949219 9.71875 C 11.140625 10.050781 11.339844 10.382812 11.546875 10.707031 C 11.574219 10.753906 11.601562 10.796875 11.628906 10.84375 C 11.789062 11.101562 11.789062 11.101562 11.953125 11.363281 C 12.03125 11.480469 12.105469 11.597656 12.179688 11.71875 C 12.222656 11.785156 12.261719 11.851562 12.308594 11.921875 C 12.40625 12.144531 12.398438 12.234375 12.320312 12.460938 C 12.175781 12.664062 12.175781 12.664062 11.992188 12.871094 C 11.933594 12.941406 11.871094 13.007812 11.8125 13.082031 C 11.621094 13.230469 11.621094 13.230469 11.433594 13.21875 C 11.148438 13.144531 10.898438 13.035156 10.632812 12.90625 C 10.550781 12.867188 10.550781 12.867188 10.46875 12.828125 C 10.292969 12.742188 10.121094 12.660156 9.945312 12.574219 C 9.824219 12.515625 9.703125 12.457031 9.585938 12.402344 C 9.347656 12.289062 9.109375 12.171875 8.871094 12.058594 C 8.507812 11.882812 8.140625 11.710938 7.777344 11.535156 C 7.496094 11.402344 7.210938 11.265625 6.929688 11.128906 C 7.042969 10.894531 7.164062 10.742188 7.355469 10.5625 C 7.554688 10.375 7.554688 10.375 7.699219 10.148438 C 7.996094 10.214844 8.242188 10.351562 8.507812 10.492188 C 8.558594 10.519531 8.609375 10.546875 8.664062 10.574219 C 8.828125 10.660156 8.988281 10.75 9.152344 10.835938 C 9.316406 10.921875 9.476562 11.011719 9.640625 11.097656 C 9.738281 11.148438 9.839844 11.203125 9.941406 11.257812 C 10.265625 11.429688 10.589844 11.597656 10.921875 11.761719 C 10.894531 11.722656 10.867188 11.683594 10.839844 11.644531 C 10.484375 11.140625 10.136719 10.636719 9.792969 10.125 C 9.726562 10.03125 9.660156 9.933594 9.597656 9.839844 C 9.5 9.703125 9.40625 9.5625 9.3125 9.421875 C 9.28125 9.378906 9.253906 9.335938 9.222656 9.292969 C 9.027344 9 9.027344 9 9.039062 8.800781 C 9.136719 8.609375 9.273438 8.46875 9.417969 8.3125 C 9.476562 8.25 9.535156 8.1875 9.59375 8.125 C 9.660156 8.050781 9.660156 8.050781 9.730469 7.980469 Z M 9.730469 7.980469 "/>
<path style=" stroke:none;fill-rule:nonzero;fill:rgb(14.901961%,27.058825%,61.176473%);fill-opacity:1;" d="M 13.859375 31.570312 C 14.183594 31.691406 14.488281 31.84375 14.796875 32 C 14.851562 32.027344 14.90625 32.054688 14.964844 32.082031 C 15.140625 32.171875 15.316406 32.261719 15.492188 32.347656 C 15.613281 32.410156 15.730469 32.46875 15.851562 32.527344 C 16.144531 32.675781 16.4375 32.824219 16.730469 32.96875 C 16.667969 33.304688 16.558594 33.519531 16.378906 33.808594 C 15.964844 33.6875 15.585938 33.5 15.199219 33.3125 C 15.097656 33.261719 15.097656 33.261719 14.992188 33.210938 C 14.824219 33.132812 14.65625 33.050781 14.488281 32.96875 C 14.445312 33.15625 14.398438 33.339844 14.351562 33.53125 C 14.859375 33.785156 15.367188 34.039062 15.890625 34.300781 C 15.828125 34.605469 15.753906 34.800781 15.609375 35.070312 C 15.210938 35.035156 14.921875 34.875 14.582031 34.683594 C 14.476562 34.628906 14.371094 34.570312 14.265625 34.511719 C 14.21875 34.488281 14.175781 34.460938 14.125 34.433594 C 13.988281 34.359375 13.988281 34.359375 13.789062 34.300781 C 13.769531 34.363281 13.75 34.425781 13.730469 34.488281 C 13.660156 34.683594 13.589844 34.878906 13.511719 35.070312 C 13.589844 35.09375 13.589844 35.09375 13.675781 35.117188 C 14.015625 35.242188 14.332031 35.402344 14.65625 35.570312 C 14.722656 35.601562 14.785156 35.632812 14.851562 35.667969 C 15.011719 35.75 15.171875 35.828125 15.328125 35.910156 C 15.234375 36.207031 15.125 36.476562 14.980469 36.75 C 14.585938 36.710938 14.296875 36.5625 13.953125 36.382812 C 13.894531 36.351562 13.839844 36.324219 13.78125 36.292969 C 13.597656 36.199219 13.417969 36.105469 13.238281 36.011719 C 13.117188 35.945312 12.992188 35.882812 12.871094 35.820312 C 12.570312 35.664062 12.269531 35.507812 11.96875 35.351562 C 12.070312 35.023438 12.207031 34.722656 12.363281 34.421875 C 12.390625 34.371094 12.414062 34.324219 12.441406 34.273438 C 12.519531 34.121094 12.597656 33.96875 12.679688 33.8125 C 12.730469 33.714844 12.78125 33.613281 12.835938 33.511719 C 13.171875 32.863281 13.515625 32.214844 13.859375 31.570312 Z M 13.859375 31.570312 "/>
<path style=" stroke:none;fill-rule:nonzero;fill:rgb(14.901961%,27.058825%,61.176473%);fill-opacity:1;" d="M 24.921875 33.179688 C 24.953125 33.597656 24.953125 33.597656 24.988281 34.019531 C 24.335938 34.179688 23.695312 34.292969 23.03125 34.371094 C 23.054688 34.578125 23.078125 34.785156 23.101562 35 C 23.148438 34.992188 23.195312 34.984375 23.242188 34.972656 C 23.457031 34.9375 23.671875 34.898438 23.886719 34.859375 C 23.960938 34.847656 24.035156 34.832031 24.113281 34.820312 C 24.21875 34.800781 24.21875 34.800781 24.332031 34.78125 C 24.394531 34.769531 24.460938 34.757812 24.53125 34.746094 C 24.710938 34.71875 24.710938 34.71875 24.988281 34.71875 C 25.082031 35.011719 25.136719 35.253906 25.128906 35.558594 C 24.90625 35.605469 24.679688 35.652344 24.457031 35.699219 C 24.394531 35.714844 24.328125 35.726562 24.265625 35.742188 C 24.203125 35.753906 24.140625 35.765625 24.078125 35.777344 C 23.992188 35.796875 23.992188 35.796875 23.90625 35.8125 C 23.730469 35.839844 23.730469 35.839844 23.308594 35.839844 C 23.355469 36.117188 23.402344 36.394531 23.449219 36.679688 C 23.578125 36.65625 23.707031 36.628906 23.839844 36.601562 C 24.007812 36.570312 24.175781 36.539062 24.34375 36.503906 C 24.425781 36.488281 24.511719 36.472656 24.597656 36.453125 C 24.679688 36.4375 24.761719 36.421875 24.84375 36.40625 C 24.917969 36.390625 24.992188 36.378906 25.070312 36.363281 C 25.269531 36.328125 25.269531 36.328125 25.550781 36.328125 C 25.617188 36.664062 25.621094 36.972656 25.621094 37.308594 C 25.238281 37.378906 24.859375 37.445312 24.480469 37.515625 C 24.351562 37.539062 24.222656 37.5625 24.09375 37.585938 C 23.90625 37.617188 23.722656 37.652344 23.535156 37.6875 C 23.476562 37.695312 23.421875 37.707031 23.363281 37.71875 C 23.042969 37.773438 22.722656 37.824219 22.398438 37.871094 C 22.300781 37.328125 22.199219 36.785156 22.101562 36.246094 C 22.066406 36.058594 22.03125 35.875 22 35.691406 C 21.949219 35.425781 21.902344 35.160156 21.851562 34.894531 C 21.832031 34.773438 21.832031 34.773438 21.808594 34.648438 C 21.792969 34.570312 21.777344 34.492188 21.765625 34.414062 C 21.75 34.34375 21.738281 34.277344 21.726562 34.207031 C 21.699219 34.027344 21.695312 33.855469 21.699219 33.671875 C 22.078125 33.601562 22.460938 33.53125 22.839844 33.460938 C 22.96875 33.4375 23.097656 33.414062 23.226562 33.390625 C 23.414062 33.355469 23.597656 33.320312 23.785156 33.289062 C 23.84375 33.277344 23.898438 33.265625 23.957031 33.253906 C 24.285156 33.195312 24.589844 33.167969 24.921875 33.179688 Z M 24.921875 33.179688 "/>
<path style=" stroke:none;fill-rule:nonzero;fill:rgb(14.509805%,26.666668%,61.176473%);fill-opacity:1;" d="M 11.851562 29.714844 C 12.300781 29.988281 12.882812 30.410156 13.019531 30.941406 C 13.058594 31.421875 13.09375 31.894531 12.878906 32.339844 C 12.511719 32.261719 12.175781 32.109375 11.898438 31.851562 C 11.863281 31.660156 11.878906 31.503906 11.894531 31.3125 C 11.914062 31.128906 11.914062 31.128906 11.765625 30.929688 C 11.523438 30.78125 11.375 30.734375 11.09375 30.746094 C 10.65625 30.878906 10.308594 31.292969 10.035156 31.648438 C 9.914062 31.902344 9.898438 32.0625 9.941406 32.339844 C 10.066406 32.53125 10.152344 32.65625 10.359375 32.761719 C 10.65625 32.777344 10.65625 32.777344 10.929688 32.6875 C 11.058594 32.621094 11.058594 32.621094 11.195312 32.632812 C 11.390625 32.710938 11.4375 32.804688 11.535156 32.988281 C 11.566406 33.042969 11.597656 33.09375 11.628906 33.152344 C 11.707031 33.363281 11.707031 33.460938 11.621094 33.671875 C 11.175781 33.972656 10.667969 33.945312 10.148438 33.878906 C 9.574219 33.660156 9.128906 33.113281 8.820312 32.59375 C 8.648438 31.964844 8.726562 31.5 9.042969 30.929688 C 9.640625 29.996094 10.695312 29.183594 11.851562 29.714844 Z M 11.851562 29.714844 "/>
<path style=" stroke:none;fill-rule:nonzero;fill:rgb(14.509805%,26.666668%,61.176473%);fill-opacity:1;" d="M 31.148438 28.699219 C 31.226562 28.765625 31.304688 28.832031 31.382812 28.898438 C 31.445312 28.953125 31.445312 28.953125 31.511719 29.007812 C 31.628906 29.113281 31.746094 29.210938 31.851562 29.328125 C 31.847656 29.539062 31.773438 29.617188 31.636719 29.773438 C 31.578125 29.832031 31.519531 29.886719 31.460938 29.941406 C 31.402344 30 31.34375 30.054688 31.285156 30.113281 C 31.242188 30.152344 31.195312 30.195312 31.148438 30.238281 C 31.238281 30.4375 31.332031 30.578125 31.484375 30.730469 C 31.523438 30.769531 31.5625 30.808594 31.605469 30.851562 C 31.667969 30.914062 31.667969 30.914062 31.734375 30.976562 C 31.796875 31.039062 31.796875 31.039062 31.863281 31.105469 C 32 31.242188 32.140625 31.378906 32.277344 31.515625 C 32.371094 31.609375 32.464844 31.703125 32.558594 31.796875 C 32.789062 32.023438 33.019531 32.253906 33.25 32.480469 C 33.132812 32.734375 32.988281 32.894531 32.785156 33.09375 C 32.730469 33.148438 32.671875 33.203125 32.613281 33.261719 C 32.570312 33.304688 32.523438 33.347656 32.480469 33.390625 C 32.285156 33.300781 32.140625 33.207031 31.988281 33.054688 C 31.949219 33.015625 31.910156 32.976562 31.871094 32.933594 C 31.828125 32.894531 31.785156 32.851562 31.742188 32.808594 C 31.699219 32.765625 31.65625 32.722656 31.613281 32.675781 C 31.476562 32.539062 31.339844 32.398438 31.203125 32.261719 C 31.109375 32.167969 31.015625 32.074219 30.921875 31.980469 C 30.695312 31.75 30.46875 31.519531 30.238281 31.289062 C 30 31.402344 29.847656 31.527344 29.664062 31.71875 C 29.613281 31.769531 29.5625 31.820312 29.511719 31.871094 C 29.457031 31.929688 29.457031 31.929688 29.398438 31.988281 C 29.175781 31.890625 29.027344 31.773438 28.859375 31.597656 C 28.816406 31.550781 28.773438 31.507812 28.726562 31.460938 C 28.695312 31.429688 28.664062 31.394531 28.628906 31.359375 C 28.726562 31.144531 28.835938 30.996094 29.003906 30.828125 C 29.050781 30.78125 29.101562 30.734375 29.148438 30.683594 C 29.199219 30.636719 29.25 30.585938 29.304688 30.53125 C 29.355469 30.480469 29.410156 30.425781 29.464844 30.375 C 29.632812 30.207031 29.800781 30.039062 29.96875 29.871094 C 30.082031 29.757812 30.195312 29.644531 30.3125 29.53125 C 30.589844 29.253906 30.871094 28.976562 31.148438 28.699219 Z M 31.148438 28.699219 "/>
<path style=" stroke:none;fill-rule:nonzero;fill:rgb(93.333334%,20%,22.745098%);fill-opacity:1;" d="M 22.667969 12.894531 C 23.488281 13.46875 23.921875 14.164062 24.21875 15.121094 C 24.292969 15.085938 24.367188 15.054688 24.441406 15.019531 C 25.058594 14.742188 25.929688 14.738281 26.578125 14.914062 C 27.488281 15.285156 28.125 15.855469 28.542969 16.734375 C 28.878906 17.539062 28.855469 18.359375 28.558594 19.179688 C 28.472656 19.355469 28.382812 19.523438 28.277344 19.6875 C 28.199219 19.808594 28.199219 19.808594 28.210938 19.949219 C 28.316406 20.039062 28.316406 20.039062 28.453125 20.128906 C 28.96875 20.503906 29.378906 20.964844 29.609375 21.558594 C 29.636719 21.621094 29.660156 21.683594 29.6875 21.746094 C 29.769531 22.046875 29.773438 22.320312 29.773438 22.632812 C 29.773438 22.6875 29.773438 22.746094 29.773438 22.800781 C 29.777344 23.214844 29.691406 23.554688 29.539062 23.941406 C 29.46875 23.917969 29.402344 23.894531 29.328125 23.871094 C 29.390625 23.414062 29.390625 23.414062 29.4375 23.214844 C 29.582031 22.429688 29.414062 21.757812 28.996094 21.085938 C 28.75 20.738281 28.449219 20.386719 28.039062 20.238281 C 27.792969 20.226562 27.714844 20.3125 27.53125 20.46875 C 27.242188 20.71875 27.242188 20.71875 27.089844 20.71875 C 27.183594 20.40625 27.320312 20.28125 27.578125 20.089844 C 27.601562 20.042969 27.625 19.996094 27.648438 19.949219 C 27.328125 19.875 27.011719 19.855469 26.683594 19.839844 C 26.628906 19.835938 26.574219 19.835938 26.515625 19.832031 C 26.378906 19.824219 26.246094 19.816406 26.109375 19.808594 C 26.144531 19.707031 26.144531 19.707031 26.179688 19.601562 C 26.378906 19.597656 26.578125 19.597656 26.78125 19.59375 C 26.835938 19.59375 26.890625 19.59375 26.949219 19.59375 C 27.285156 19.59375 27.601562 19.613281 27.929688 19.671875 C 28 19.550781 28.066406 19.429688 28.136719 19.308594 C 28.171875 19.238281 28.210938 19.171875 28.25 19.101562 C 28.539062 18.511719 28.507812 17.675781 28.363281 17.046875 C 28.09375 16.328125 27.570312 15.738281 26.878906 15.398438 C 26.433594 15.214844 26.03125 15.15625 25.550781 15.160156 C 25.460938 15.15625 25.460938 15.15625 25.371094 15.15625 C 24.953125 15.15625 24.5625 15.214844 24.21875 15.46875 C 24.121094 15.695312 24.121094 15.695312 24.121094 15.953125 C 24.097656 16.28125 24.058594 16.558594 23.941406 16.871094 C 23.871094 16.871094 23.800781 16.871094 23.730469 16.871094 C 23.617188 16.644531 23.730469 16.429688 23.796875 16.195312 C 23.808594 16.148438 23.824219 16.097656 23.835938 16.046875 C 23.871094 15.925781 23.90625 15.800781 23.941406 15.679688 C 23.851562 15.757812 23.761719 15.835938 23.671875 15.910156 C 23.625 15.953125 23.574219 15.996094 23.523438 16.042969 C 23.382812 16.164062 23.382812 16.164062 23.265625 16.292969 C 23.171875 16.378906 23.171875 16.378906 23.03125 16.378906 C 22.960938 16.414062 22.960938 16.414062 22.890625 16.449219 C 22.988281 16.136719 23.144531 15.957031 23.378906 15.726562 C 23.441406 15.667969 23.503906 15.605469 23.566406 15.539062 C 23.730469 15.398438 23.730469 15.398438 23.871094 15.398438 C 23.785156 14.65625 23.527344 13.996094 22.96875 13.480469 C 22.664062 13.257812 22.324219 13.101562 21.980469 12.949219 C 21.925781 12.921875 21.871094 12.898438 21.8125 12.871094 C 21.570312 12.792969 21.34375 12.785156 21.09375 12.789062 C 21.015625 12.789062 21.015625 12.789062 20.941406 12.789062 C 20.148438 12.808594 19.585938 13.089844 18.992188 13.601562 C 18.683594 13.957031 18.433594 14.328125 18.269531 14.769531 C 18.199219 14.769531 18.132812 14.769531 18.058594 14.769531 C 18.035156 14.722656 18.015625 14.675781 17.988281 14.628906 C 18.308594 13.808594 18.769531 13.25 19.53125 12.808594 C 20.566406 12.355469 21.664062 12.285156 22.667969 12.894531 Z M 22.667969 12.894531 "/>
<path style=" stroke:none;fill-rule:nonzero;fill:rgb(93.333334%,20%,22.745098%);fill-opacity:1;" d="M 23.800781 15.679688 C 23.847656 15.679688 23.890625 15.679688 23.941406 15.679688 C 23.90625 16.070312 23.847656 16.425781 23.730469 16.800781 C 23.777344 16.777344 23.824219 16.753906 23.871094 16.730469 C 23.835938 17.070312 23.742188 17.269531 23.539062 17.542969 C 23.464844 17.640625 23.464844 17.640625 23.394531 17.738281 C 23.238281 17.921875 23.085938 18.0625 22.890625 18.199219 C 22.84375 18.199219 22.796875 18.199219 22.75 18.199219 C 22.933594 19.082031 23.257812 19.8125 23.988281 20.375 C 24.179688 20.453125 24.238281 20.4375 24.429688 20.371094 C 24.554688 20.285156 24.554688 20.285156 24.679688 20.175781 C 25.257812 19.730469 25.859375 19.519531 26.585938 19.527344 C 26.667969 19.527344 26.75 19.527344 26.832031 19.527344 C 26.894531 19.527344 26.957031 19.527344 27.019531 19.53125 C 27.019531 19.554688 27.019531 19.578125 27.019531 19.601562 C 26.960938 19.601562 26.898438 19.605469 26.839844 19.609375 C 26.761719 19.617188 26.683594 19.621094 26.605469 19.625 C 26.527344 19.632812 26.449219 19.636719 26.371094 19.640625 C 26.277344 19.65625 26.277344 19.65625 26.179688 19.671875 C 26.144531 19.738281 26.144531 19.738281 26.109375 19.808594 C 26.191406 19.808594 26.273438 19.808594 26.359375 19.804688 C 26.464844 19.804688 26.574219 19.800781 26.683594 19.800781 C 26.738281 19.800781 26.789062 19.800781 26.847656 19.796875 C 27.148438 19.796875 27.375 19.808594 27.648438 19.949219 C 27.539062 20.21875 27.363281 20.378906 27.160156 20.578125 C 27.125 20.683594 27.125 20.683594 27.089844 20.789062 C 26.496094 21.171875 25.644531 21.246094 24.964844 21.105469 C 24.917969 21.09375 24.867188 21.078125 24.820312 21.066406 C 24.574219 21 24.453125 20.976562 24.21875 21.070312 C 24.148438 21.160156 24.078125 21.253906 24.011719 21.351562 C 23.941406 21.351562 23.871094 21.351562 23.800781 21.351562 C 23.820312 21.296875 23.84375 21.246094 23.867188 21.191406 C 23.925781 21.035156 23.972656 20.882812 24.011719 20.71875 C 23.976562 20.695312 23.941406 20.671875 23.90625 20.648438 C 23.171875 20.125 22.65625 19.449219 22.46875 18.550781 C 22.355469 18.550781 22.238281 18.550781 22.121094 18.550781 C 22.121094 18.457031 22.121094 18.363281 22.121094 18.269531 C 22.164062 18.257812 22.210938 18.246094 22.253906 18.230469 C 22.425781 18.136719 22.425781 18.136719 22.449219 17.910156 C 22.457031 17.773438 22.457031 17.773438 22.46875 17.636719 C 22.515625 17.207031 22.574219 16.8125 22.820312 16.449219 C 22.980469 16.332031 22.980469 16.332031 23.171875 16.238281 C 23.390625 16.066406 23.601562 15.878906 23.800781 15.679688 Z M 23.800781 15.679688 "/>
<path style=" stroke:none;fill-rule:nonzero;fill:rgb(14.509805%,26.274511%,60.784316%);fill-opacity:1;" d="M 28.699219 5.738281 C 28.957031 5.835938 29.1875 5.953125 29.421875 6.097656 C 29.484375 6.136719 29.546875 6.175781 29.609375 6.214844 C 29.65625 6.242188 29.703125 6.269531 29.75 6.300781 C 29.707031 6.578125 29.621094 6.78125 29.484375 7.027344 C 29.441406 7.101562 29.398438 7.175781 29.355469 7.25 C 29.3125 7.328125 29.265625 7.410156 29.21875 7.488281 C 29.148438 7.617188 29.078125 7.742188 29.007812 7.867188 C 28.960938 7.953125 28.910156 8.042969 28.859375 8.128906 C 28.675781 8.457031 28.496094 8.785156 28.316406 9.113281 C 28.265625 9.207031 28.214844 9.300781 28.164062 9.394531 C 28.089844 9.53125 28.011719 9.667969 27.9375 9.804688 C 27.871094 9.933594 27.800781 10.058594 27.730469 10.1875 C 27.691406 10.257812 27.652344 10.332031 27.613281 10.40625 C 27.511719 10.570312 27.511719 10.570312 27.371094 10.640625 C 27.199219 10.554688 27.035156 10.464844 26.871094 10.363281 C 26.824219 10.335938 26.777344 10.308594 26.730469 10.28125 C 26.617188 10.214844 26.503906 10.148438 26.390625 10.078125 C 26.4375 9.828125 26.542969 9.625 26.664062 9.402344 C 26.707031 9.320312 26.75 9.242188 26.792969 9.160156 C 26.839844 9.074219 26.886719 8.988281 26.933594 8.902344 C 26.980469 8.816406 27.027344 8.726562 27.074219 8.640625 C 27.511719 7.828125 27.960938 7.027344 28.421875 6.230469 C 28.476562 6.132812 28.53125 6.035156 28.585938 5.941406 C 28.640625 5.839844 28.640625 5.839844 28.699219 5.738281 Z M 28.699219 5.738281 "/>
<path style=" stroke:none;fill-rule:nonzero;fill:rgb(92.941177%,12.941177%,16.078432%);fill-opacity:1;" d="M 7.980469 24.710938 C 8.300781 24.871094 8.550781 25.070312 8.679688 25.410156 C 8.734375 25.828125 8.707031 26.175781 8.46875 26.53125 C 8.265625 26.765625 8.074219 26.925781 7.761719 26.972656 C 7.375 26.980469 7.082031 26.933594 6.789062 26.671875 C 6.671875 26.511719 6.597656 26.359375 6.511719 26.179688 C 6.488281 26.132812 6.464844 26.085938 6.441406 26.039062 C 6.425781 25.664062 6.460938 25.355469 6.707031 25.058594 C 7.066406 24.675781 7.472656 24.628906 7.980469 24.710938 Z M 7.980469 24.710938 "/>
<path style=" stroke:none;fill-rule:nonzero;fill:rgb(92.941177%,12.54902%,15.294118%);fill-opacity:1;" d="M 34.511719 24.710938 C 34.832031 24.871094 35.082031 25.070312 35.210938 25.410156 C 35.257812 25.777344 35.257812 26.085938 35.09375 26.421875 C 34.789062 26.757812 34.5625 26.933594 34.101562 26.972656 C 33.796875 26.96875 33.628906 26.871094 33.390625 26.671875 C 33.066406 26.304688 33.015625 26.085938 33.019531 25.601562 C 33.058594 25.238281 33.242188 25.0625 33.5 24.824219 C 33.84375 24.660156 34.136719 24.640625 34.511719 24.710938 Z M 34.511719 24.710938 "/>
<path style=" stroke:none;fill-rule:nonzero;fill:rgb(93.333334%,20.784314%,23.529412%);fill-opacity:1;" d="M 20.859375 25.199219 C 21.175781 25.855469 21.167969 26.453125 21.140625 27.160156 C 21.1875 27.160156 21.230469 27.160156 21.28125 27.160156 C 21.226562 27.625 21.226562 27.625 21.070312 27.859375 C 21.027344 28.046875 21.039062 28.160156 21.140625 28.328125 C 21.542969 28.839844 22.179688 29.210938 22.820312 29.328125 C 23.554688 29.386719 24.128906 29.285156 24.789062 28.960938 C 24.832031 28.941406 24.875 28.925781 24.921875 28.910156 C 24.964844 28.933594 25.011719 28.957031 25.058594 28.980469 C 24.964844 29.210938 24.882812 29.304688 24.65625 29.414062 C 24.613281 29.4375 24.566406 29.457031 24.519531 29.480469 C 23.832031 29.734375 22.828125 29.734375 22.152344 29.46875 C 21.648438 29.222656 21.183594 28.882812 20.859375 28.421875 C 20.636719 28.472656 20.636719 28.472656 20.5 28.679688 C 20.277344 28.960938 19.984375 29.15625 19.671875 29.328125 C 19.625 29.328125 19.578125 29.328125 19.53125 29.328125 C 19.621094 29.039062 19.726562 28.910156 19.976562 28.734375 C 20.332031 28.484375 20.332031 28.484375 20.578125 28.140625 C 20.539062 27.917969 20.457031 27.71875 20.371094 27.511719 C 20.242188 27.128906 20.214844 26.777344 20.207031 26.375 C 20.207031 26.328125 20.207031 26.28125 20.203125 26.230469 C 20.203125 25.824219 20.320312 25.613281 20.585938 25.316406 C 20.71875 25.199219 20.71875 25.199219 20.859375 25.199219 Z M 20.859375 25.199219 "/>
<path style=" stroke:none;fill-rule:nonzero;fill:rgb(93.333334%,19.607843%,22.745098%);fill-opacity:1;" d="M 14.699219 19.53125 C 15.578125 19.507812 16.21875 19.546875 16.984375 19.996094 C 17.152344 20.097656 17.152344 20.097656 17.359375 20.160156 C 17.582031 20.097656 17.582031 20.097656 17.78125 20.019531 C 17.746094 20.085938 17.714844 20.152344 17.679688 20.222656 C 17.621094 20.421875 17.628906 20.488281 17.730469 20.675781 C 17.816406 20.796875 17.90625 20.914062 17.996094 21.03125 C 18.449219 21.640625 18.515625 22.289062 18.480469 23.03125 C 18.460938 23.148438 18.4375 23.265625 18.410156 23.378906 C 18.304688 23.308594 18.304688 23.308594 18.199219 23.171875 C 18.183594 22.992188 18.175781 22.828125 18.171875 22.648438 C 18.148438 21.902344 17.90625 21.183594 17.359375 20.648438 C 17.195312 20.566406 17.195312 20.566406 17.011719 20.578125 C 16.960938 20.578125 16.914062 20.578125 16.863281 20.578125 C 16.726562 20.574219 16.585938 20.578125 16.449219 20.578125 C 16.449219 20.558594 16.449219 20.535156 16.449219 20.511719 C 16.382812 20.503906 16.316406 20.5 16.25 20.492188 C 15.625 20.429688 15.085938 20.320312 14.558594 19.949219 C 14.535156 19.878906 14.515625 19.8125 14.488281 19.738281 C 14.558594 19.71875 14.628906 19.695312 14.699219 19.671875 C 14.699219 19.625 14.699219 19.578125 14.699219 19.53125 Z M 14.699219 19.53125 "/>
<path style=" stroke:none;fill-rule:nonzero;fill:rgb(99.607843%,96.470588%,96.862745%);fill-opacity:1;" d="M 18.058594 23.589844 C 17.859375 24.277344 17.410156 24.828125 16.800781 25.199219 C 16.753906 25.226562 16.710938 25.257812 16.664062 25.285156 C 16.300781 25.492188 15.953125 25.53125 15.539062 25.550781 C 15.566406 24.992188 15.945312 24.636719 16.335938 24.273438 C 16.820312 23.859375 17.40625 23.550781 18.058594 23.589844 Z M 18.058594 23.589844 "/>
<path style=" stroke:none;fill-rule:nonzero;fill:rgb(99.607843%,96.862745%,96.862745%);fill-opacity:1;" d="M 26.691406 19.789062 C 26.773438 19.789062 26.773438 19.789062 26.855469 19.785156 C 27.152344 19.789062 27.378906 19.816406 27.648438 19.949219 C 27.480469 20.375 27.054688 20.527344 26.664062 20.722656 C 26.320312 20.863281 25.980469 20.878906 25.609375 20.882812 C 25.5625 20.882812 25.515625 20.882812 25.46875 20.882812 C 25.144531 20.878906 24.875 20.820312 24.570312 20.71875 C 24.738281 20.3125 25.109375 20.132812 25.492188 19.945312 C 25.886719 19.800781 26.277344 19.792969 26.691406 19.789062 Z M 26.691406 19.789062 "/>
<path style=" stroke:none;fill-rule:nonzero;fill:rgb(99.215686%,95.686275%,95.686275%);fill-opacity:1;" d="M 23.941406 23.660156 C 24.546875 23.6875 25.0625 24.046875 25.507812 24.445312 C 25.765625 24.730469 26.039062 25.089844 26.039062 25.480469 C 25.441406 25.46875 24.992188 25.1875 24.5625 24.78125 C 24.28125 24.46875 23.941406 24.09375 23.941406 23.660156 Z M 23.941406 23.660156 "/>
<path style=" stroke:none;fill-rule:nonzero;fill:rgb(99.215686%,94.117647%,94.509804%);fill-opacity:1;" d="M 20.71875 25.199219 C 20.765625 25.199219 20.8125 25.199219 20.859375 25.199219 C 21.230469 26.027344 21.238281 26.722656 20.921875 27.566406 C 20.902344 27.617188 20.878906 27.667969 20.859375 27.71875 C 20.8125 27.71875 20.769531 27.71875 20.71875 27.71875 C 20.546875 27.277344 20.476562 26.894531 20.484375 26.421875 C 20.484375 26.363281 20.480469 26.308594 20.480469 26.25 C 20.484375 25.855469 20.5625 25.5625 20.71875 25.199219 Z M 20.71875 25.199219 "/>
<path style=" stroke:none;fill-rule:nonzero;fill:rgb(99.215686%,94.509804%,94.901961%);fill-opacity:1;" d="M 23.941406 15.679688 C 23.898438 16.476562 23.597656 17.210938 23.03125 17.78125 C 22.875 17.867188 22.875 17.867188 22.75 17.921875 C 22.65625 17.269531 22.902344 16.773438 23.238281 16.238281 C 23.695312 15.679688 23.695312 15.679688 23.941406 15.679688 Z M 23.941406 15.679688 "/>
<path style=" stroke:none;fill-rule:nonzero;fill:rgb(99.215686%,94.117647%,94.117647%);fill-opacity:1;" d="M 18.128906 15.398438 C 18.652344 15.789062 18.984375 16.296875 19.109375 16.941406 C 19.125 17.222656 19.121094 17.5 19.109375 17.78125 C 18.617188 17.460938 18.332031 16.886719 18.160156 16.335938 C 18.101562 16.027344 18.113281 15.714844 18.128906 15.398438 Z M 18.128906 15.398438 "/>
<path style=" stroke:none;fill-rule:nonzero;fill:rgb(96.078432%,96.862745%,98.039216%);fill-opacity:1;" d="M 24.710938 5.390625 C 25.457031 5.4375 25.457031 5.4375 25.691406 5.671875 C 25.730469 5.863281 25.738281 6.039062 25.691406 6.230469 C 25.605469 6.351562 25.605469 6.351562 25.480469 6.441406 C 25.316406 6.464844 25.316406 6.464844 25.132812 6.460938 C 25.074219 6.460938 25.015625 6.460938 24.953125 6.460938 C 24.773438 6.4375 24.65625 6.390625 24.5 6.300781 C 24.523438 6.199219 24.542969 6.101562 24.566406 6.003906 C 24.578125 5.949219 24.589844 5.890625 24.601562 5.835938 C 24.636719 5.6875 24.671875 5.539062 24.710938 5.390625 Z M 24.710938 5.390625 "/>
<path style=" stroke:none;fill-rule:nonzero;fill:rgb(99.215686%,93.725491%,93.725491%);fill-opacity:1;" d="M 15.125 19.785156 C 15.179688 19.785156 15.238281 19.785156 15.296875 19.785156 C 15.351562 19.785156 15.410156 19.785156 15.46875 19.785156 C 15.914062 19.792969 16.265625 19.875 16.660156 20.089844 C 16.753906 20.136719 16.847656 20.183594 16.941406 20.230469 C 16.941406 20.277344 16.941406 20.324219 16.941406 20.371094 C 16.265625 20.570312 15.519531 20.464844 14.898438 20.152344 C 14.785156 20.089844 14.671875 20.019531 14.558594 19.949219 C 14.742188 19.769531 14.875 19.789062 15.125 19.785156 Z M 15.125 19.785156 "/>
<path style=" stroke:none;fill-rule:nonzero;fill:rgb(25.490198%,36.078432%,66.274512%);fill-opacity:1;" d="M 25.339844 31.078125 C 25.339844 31.148438 25.339844 31.21875 25.339844 31.289062 C 24.71875 31.507812 24.097656 31.714844 23.457031 31.878906 C 23.371094 31.902344 23.28125 31.925781 23.1875 31.949219 C 22.980469 31.988281 22.871094 31.992188 22.679688 31.921875 C 22.75 31.921875 22.820312 31.921875 22.890625 31.921875 C 22.890625 31.828125 22.890625 31.734375 22.890625 31.640625 C 22.941406 31.628906 22.992188 31.621094 23.042969 31.609375 C 23.589844 31.492188 24.109375 31.335938 24.632812 31.144531 C 24.683594 31.125 24.734375 31.105469 24.789062 31.085938 C 24.835938 31.070312 24.878906 31.054688 24.925781 31.039062 C 25.085938 31.003906 25.1875 31.03125 25.339844 31.078125 Z M 25.339844 31.078125 "/>
<path style=" stroke:none;fill-rule:nonzero;fill:rgb(24.705882%,35.294119%,65.882355%);fill-opacity:1;" d="M 31.640625 22.890625 C 31.730469 22.914062 31.824219 22.9375 31.921875 22.960938 C 31.613281 24.707031 31.613281 24.707031 31.289062 25.058594 C 31.21875 25.058594 31.152344 25.058594 31.078125 25.058594 C 31.21875 24.550781 31.359375 24.042969 31.507812 23.539062 C 31.566406 23.324219 31.605469 23.109375 31.640625 22.890625 Z M 31.640625 22.890625 "/>
<path style=" stroke:none;fill-rule:nonzero;fill:rgb(25.882354%,36.470589%,66.274512%);fill-opacity:1;" d="M 10.359375 17.640625 C 10.5625 17.957031 10.523438 18.28125 10.457031 18.636719 C 10.4375 18.714844 10.417969 18.789062 10.398438 18.871094 C 10.285156 19.371094 10.242188 19.855469 10.21875 20.371094 C 10.195312 20.371094 10.171875 20.371094 10.148438 20.371094 C 10.125 20.140625 10.105469 19.90625 10.078125 19.671875 C 10.058594 19.808594 10.035156 19.945312 10.011719 20.089844 C 9.988281 20.089844 9.964844 20.089844 9.941406 20.089844 C 9.917969 19.597656 10.003906 19.148438 10.109375 18.667969 C 10.136719 18.554688 10.136719 18.554688 10.160156 18.4375 C 10.277344 17.886719 10.277344 17.886719 10.359375 17.640625 Z M 10.359375 17.640625 "/>
<path style=" stroke:none;fill-rule:nonzero;fill:rgb(92.941177%,15.294118%,18.431373%);fill-opacity:1;" d="M 13.371094 16.378906 C 13.394531 16.378906 13.417969 16.378906 13.441406 16.378906 C 13.429688 16.457031 13.417969 16.53125 13.410156 16.613281 C 13.371094 16.921875 13.34375 17.234375 13.320312 17.546875 C 13.300781 17.710938 13.300781 17.710938 13.230469 17.851562 C 13.183594 17.851562 13.136719 17.851562 13.089844 17.851562 C 13.082031 17.683594 13.078125 17.519531 13.074219 17.351562 C 13.070312 17.304688 13.066406 17.257812 13.066406 17.210938 C 13.058594 16.835938 13.140625 16.660156 13.371094 16.378906 Z M 13.371094 16.378906 "/>
<path style=" stroke:none;fill-rule:nonzero;fill:rgb(93.725491%,25.098041%,27.450982%);fill-opacity:1;" d="M 27.019531 19.53125 C 27.019531 19.554688 27.019531 19.578125 27.019531 19.601562 C 26.960938 19.601562 26.902344 19.605469 26.839844 19.609375 C 26.726562 19.613281 26.726562 19.613281 26.609375 19.621094 C 26.53125 19.625 26.457031 19.628906 26.378906 19.632812 C 26.28125 19.652344 26.28125 19.652344 26.179688 19.671875 C 26.109375 19.773438 26.109375 19.773438 26.039062 19.878906 C 25.886719 19.929688 25.886719 19.929688 25.714844 19.964844 C 25.628906 19.980469 25.628906 19.980469 25.542969 19.996094 C 25.476562 20.007812 25.476562 20.007812 25.410156 20.019531 C 25.410156 19.925781 25.410156 19.835938 25.410156 19.738281 C 25.953125 19.535156 26.441406 19.503906 27.019531 19.53125 Z M 27.019531 19.53125 "/>
<path style=" stroke:none;fill-rule:nonzero;fill:rgb(17.647059%,29.019609%,62.352943%);fill-opacity:1;" d="M 31.921875 21.699219 C 31.941406 21.699219 31.964844 21.699219 31.988281 21.699219 C 31.992188 21.84375 31.992188 21.988281 31.996094 22.132812 C 31.996094 22.214844 31.996094 22.292969 31.996094 22.375 C 31.992188 22.582031 31.96875 22.761719 31.921875 22.960938 C 31.851562 22.960938 31.78125 22.960938 31.710938 22.960938 C 31.71875 22.816406 31.726562 22.671875 31.734375 22.527344 C 31.742188 22.445312 31.746094 22.367188 31.75 22.285156 C 31.777344 22.0625 31.828125 21.898438 31.921875 21.699219 Z M 31.921875 21.699219 "/>
<path style=" stroke:none;fill-rule:nonzero;fill:rgb(17.254902%,29.019609%,62.352943%);fill-opacity:1;" d="M 22.960938 31.78125 C 22.9375 31.828125 22.914062 31.871094 22.890625 31.921875 C 22.640625 32.003906 22.4375 31.996094 22.175781 31.996094 C 22.085938 31.992188 22 31.992188 21.90625 31.992188 C 21.804688 31.992188 21.804688 31.992188 21.699219 31.988281 C 21.824219 31.835938 21.890625 31.785156 22.089844 31.742188 C 22.15625 31.738281 22.222656 31.730469 22.289062 31.726562 C 22.355469 31.722656 22.421875 31.714844 22.492188 31.710938 C 22.664062 31.710938 22.796875 31.730469 22.960938 31.78125 Z M 22.960938 31.78125 "/>
<path style=" stroke:none;fill-rule:nonzero;fill:rgb(84.313726%,86.666667%,92.54902%);fill-opacity:1;" d="M 30.589844 9.730469 C 30.636719 9.753906 30.683594 9.777344 30.730469 9.800781 C 30.675781 9.964844 30.675781 9.964844 30.589844 10.148438 C 30.550781 10.167969 30.511719 10.1875 30.46875 10.207031 C 30.242188 10.324219 30.082031 10.503906 29.90625 10.683594 C 29.855469 10.738281 29.855469 10.738281 29.800781 10.792969 C 29.714844 10.882812 29.625 10.972656 29.539062 11.058594 C 29.492188 11.035156 29.449219 11.015625 29.398438 10.988281 C 29.429688 10.960938 29.460938 10.929688 29.496094 10.898438 C 29.636719 10.757812 29.777344 10.617188 29.917969 10.476562 C 29.964844 10.429688 30.015625 10.382812 30.066406 10.332031 C 30.113281 10.285156 30.160156 10.238281 30.207031 10.191406 C 30.25 10.148438 30.292969 10.105469 30.335938 10.058594 C 30.464844 9.933594 30.464844 9.933594 30.589844 9.730469 Z M 30.589844 9.730469 "/>
<path style=" stroke:none;fill-rule:nonzero;fill:rgb(30.19608%,40.000001%,68.235296%);fill-opacity:1;" d="M 10.148438 19.109375 C 10.195312 19.109375 10.242188 19.109375 10.289062 19.109375 C 10.265625 19.527344 10.242188 19.941406 10.21875 20.371094 C 10.195312 20.371094 10.171875 20.371094 10.148438 20.371094 C 10.125 20.140625 10.105469 19.90625 10.078125 19.671875 C 10.058594 19.808594 10.035156 19.945312 10.011719 20.089844 C 9.988281 20.089844 9.964844 20.089844 9.941406 20.089844 C 9.917969 19.691406 9.941406 19.460938 10.148438 19.109375 Z M 10.148438 19.109375 "/>
<path style=" stroke:none;fill-rule:nonzero;fill:rgb(93.725491%,23.921569%,26.666668%);fill-opacity:1;" d="M 12.601562 21.28125 C 12.671875 21.476562 12.671875 21.550781 12.605469 21.753906 C 12.578125 21.804688 12.554688 21.855469 12.53125 21.910156 C 12.484375 21.886719 12.4375 21.863281 12.390625 21.839844 C 12.34375 22.070312 12.296875 22.300781 12.25 22.539062 C 12.226562 22.539062 12.203125 22.539062 12.179688 22.539062 C 12.15625 22.105469 12.207031 21.816406 12.390625 21.421875 C 12.460938 21.375 12.527344 21.328125 12.601562 21.28125 Z M 12.601562 21.28125 "/>
<path style=" stroke:none;fill-rule:nonzero;fill:rgb(16.470589%,28.235295%,61.960787%);fill-opacity:1;" d="M 10.710938 17.078125 C 10.734375 17.078125 10.757812 17.078125 10.78125 17.078125 C 10.742188 17.429688 10.695312 17.730469 10.570312 18.058594 C 10.523438 18.015625 10.476562 17.96875 10.429688 17.921875 C 10.445312 17.578125 10.457031 17.332031 10.710938 17.078125 Z M 10.710938 17.078125 "/>
<path style=" stroke:none;fill-rule:nonzero;fill:rgb(23.137255%,33.725491%,65.098041%);fill-opacity:1;" d="M 29.121094 28.351562 C 29.144531 28.417969 29.167969 28.488281 29.191406 28.558594 C 28.960938 28.789062 28.726562 29.023438 28.488281 29.261719 C 28.445312 29.214844 28.398438 29.167969 28.351562 29.121094 C 28.605469 28.867188 28.859375 28.613281 29.121094 28.351562 Z M 29.121094 28.351562 "/>
<path style=" stroke:none;fill-rule:nonzero;fill:rgb(92.941177%,15.294118%,18.431373%);fill-opacity:1;" d="M 21.28125 26.320312 C 21.304688 26.320312 21.328125 26.320312 21.351562 26.320312 C 21.355469 26.433594 21.359375 26.542969 21.363281 26.65625 C 21.367188 26.71875 21.367188 26.78125 21.371094 26.847656 C 21.351562 27.019531 21.351562 27.019531 21.25 27.148438 C 21.140625 27.230469 21.140625 27.230469 21.070312 27.230469 C 21.078125 27.128906 21.085938 27.03125 21.097656 26.933594 C 21.101562 26.878906 21.105469 26.820312 21.109375 26.765625 C 21.140625 26.59375 21.195312 26.46875 21.28125 26.320312 Z M 21.28125 26.320312 "/>
<path style=" stroke:none;fill-rule:nonzero;fill:rgb(72.941178%,76.862746%,87.450981%);fill-opacity:1;" d="M 20.160156 34.789062 C 20.25 35.054688 20.203125 35.269531 20.164062 35.539062 C 20.15625 35.585938 20.148438 35.636719 20.144531 35.6875 C 20.125 35.808594 20.109375 35.929688 20.089844 36.050781 C 20.066406 36.050781 20.042969 36.050781 20.019531 36.050781 C 20.011719 35.972656 20 35.894531 19.988281 35.8125 C 19.964844 35.574219 19.964844 35.574219 19.878906 35.421875 C 19.933594 35.269531 19.933594 35.269531 20.015625 35.097656 C 20.042969 35.039062 20.070312 34.980469 20.097656 34.921875 C 20.117188 34.878906 20.136719 34.835938 20.160156 34.789062 Z M 20.160156 34.789062 "/>
<path style=" stroke:none;fill-rule:nonzero;fill:rgb(13.333334%,25.490198%,60.784316%);fill-opacity:1;" d="M 10.078125 19.601562 C 10.101562 19.601562 10.125 19.601562 10.148438 19.601562 C 10.148438 19.855469 10.148438 20.109375 10.148438 20.371094 C 10.082031 20.394531 10.011719 20.417969 9.941406 20.441406 C 9.949219 20.3125 9.960938 20.1875 9.96875 20.058594 C 9.976562 19.988281 9.980469 19.917969 9.988281 19.84375 C 10.011719 19.671875 10.011719 19.671875 10.078125 19.601562 Z M 10.078125 19.601562 "/>
<path style=" stroke:none;fill-rule:nonzero;fill:rgb(92.941177%,15.294118%,18.431373%);fill-opacity:1;" d="M 23.800781 21.699219 C 23.777344 21.90625 23.753906 22.117188 23.730469 22.328125 C 23.660156 22.328125 23.589844 22.328125 23.519531 22.328125 C 23.5625 21.898438 23.5625 21.898438 23.589844 21.769531 C 23.730469 21.699219 23.730469 21.699219 23.800781 21.699219 Z M 23.800781 21.699219 "/>
<path style=" stroke:none;fill-rule:nonzero;fill:rgb(93.725491%,22.352941%,25.098041%);fill-opacity:1;" d="M 17.570312 23.449219 C 17.546875 23.542969 17.523438 23.636719 17.5 23.730469 C 17.363281 23.753906 17.222656 23.777344 17.078125 23.800781 C 17.078125 23.707031 17.078125 23.613281 17.078125 23.519531 C 17.253906 23.433594 17.378906 23.445312 17.570312 23.449219 Z M 17.570312 23.449219 "/>
<path style=" stroke:none;fill-rule:nonzero;fill:rgb(93.725491%,22.352941%,25.098041%);fill-opacity:1;" d="M 15.539062 14.488281 C 15.515625 14.582031 15.492188 14.675781 15.46875 14.769531 C 15.332031 14.792969 15.191406 14.816406 15.050781 14.839844 C 15.050781 14.746094 15.050781 14.65625 15.050781 14.558594 C 15.222656 14.472656 15.347656 14.484375 15.539062 14.488281 Z M 15.539062 14.488281 "/>
<path style=" stroke:none;fill-rule:nonzero;fill:rgb(25.490198%,35.686275%,65.882355%);fill-opacity:1;" d="M 17.148438 10.710938 C 17.148438 10.78125 17.148438 10.847656 17.148438 10.921875 C 17.011719 10.941406 16.871094 10.964844 16.730469 10.988281 C 16.730469 10.898438 16.730469 10.804688 16.730469 10.710938 C 16.90625 10.621094 16.96875 10.65625 17.148438 10.710938 Z M 17.148438 10.710938 "/>
<path style=" stroke:none;fill-rule:nonzero;fill:rgb(92.941177%,16.078432%,18.82353%);fill-opacity:1;" d="M 15.539062 14.421875 C 15.679688 14.421875 15.816406 14.421875 15.960938 14.421875 C 15.9375 14.488281 15.914062 14.558594 15.890625 14.628906 C 15.75 14.652344 15.613281 14.675781 15.46875 14.699219 C 15.492188 14.609375 15.515625 14.515625 15.539062 14.421875 Z M 15.539062 14.421875 "/>
<path style=" stroke:none;fill-rule:nonzero;fill:rgb(92.941177%,13.333334%,16.470589%);fill-opacity:1;" d="M 16.449219 25.480469 C 16.378906 25.582031 16.378906 25.582031 16.308594 25.691406 C 16.089844 25.703125 16.089844 25.703125 15.890625 25.691406 C 16.019531 25.429688 16.183594 25.390625 16.449219 25.480469 Z M 16.449219 25.480469 "/>
<path style=" stroke:none;fill-rule:nonzero;fill:rgb(92.941177%,14.901961%,17.647059%);fill-opacity:1;" d="M 14.910156 14.628906 C 14.980469 14.652344 15.046875 14.675781 15.121094 14.699219 C 15.027344 14.792969 14.933594 14.886719 14.839844 14.980469 C 14.769531 14.957031 14.703125 14.933594 14.628906 14.910156 C 14.722656 14.816406 14.816406 14.726562 14.910156 14.628906 Z M 14.910156 14.628906 "/>
<path style=" stroke:none;fill-rule:nonzero;fill:rgb(19.215687%,30.588236%,63.137257%);fill-opacity:1;" d="M 27.648438 29.539062 C 27.695312 29.5625 27.742188 29.585938 27.789062 29.609375 C 27.71875 29.65625 27.652344 29.703125 27.578125 29.75 C 27.601562 29.679688 27.625 29.613281 27.648438 29.539062 Z M 27.511719 29.75 C 27.554688 29.796875 27.601562 29.84375 27.648438 29.890625 C 27.554688 29.996094 27.554688 29.996094 27.441406 30.101562 C 27.394531 30.101562 27.347656 30.101562 27.300781 30.101562 C 27.429688 29.828125 27.429688 29.828125 27.511719 29.75 Z M 27.511719 29.75 "/>
<path style=" stroke:none;fill-rule:nonzero;fill:rgb(93.725491%,24.705882%,27.058825%);fill-opacity:1;" d="M 16.730469 23.660156 C 16.777344 23.683594 16.824219 23.707031 16.871094 23.730469 C 16.824219 23.777344 16.777344 23.824219 16.730469 23.871094 C 16.753906 23.917969 16.777344 23.960938 16.800781 24.011719 C 16.683594 24.054688 16.570312 24.101562 16.449219 24.148438 C 16.472656 23.984375 16.472656 23.984375 16.519531 23.800781 C 16.589844 23.753906 16.660156 23.707031 16.730469 23.660156 Z M 16.730469 23.660156 "/>
</g>
</svg>
